<svg width="17" height="17" viewBox="0 0 17 17" fill="none" xmlns="http://www.w3.org/2000/svg">
<path d="M8.53312 16.3936C12.9514 16.3936 16.5332 15.8927 16.5332 15.2749C16.5332 15.0804 16.1783 14.8976 15.5542 14.7382C15.0883 14.9303 14.1763 14.9852 13.6482 15.0007C13.539 15.0039 13.3796 15.0066 13.2022 15.0066C12.7965 15.0066 12.2961 14.9923 12.0818 14.9364C11.9866 14.9767 11.8882 15.0153 11.7864 15.0521C10.8388 15.396 9.5928 15.5933 8.36819 15.5933C6.81124 15.5933 5.44185 15.3172 4.44966 14.8561C4.41474 14.9629 4.34463 15.058 4.2091 15.1159C4.12823 15.1505 4.04969 15.1686 3.97448 15.1719C3.96592 15.1723 3.9575 15.1725 3.94908 15.1725C3.72895 15.1725 3.53973 15.0444 3.40958 14.8291C3.34568 14.7234 3.30662 14.6244 3.2648 14.5338C3.24962 14.5011 3.23416 14.4694 3.21705 14.4389C1.57025 14.6439 0.533203 14.9424 0.533203 15.2749C0.533203 15.8927 4.11484 16.3936 8.53312 16.3936Z" fill="#56BFCF"/>
<path d="M13.7836 13.2358C14.2121 13.1426 15.6352 11.9206 16.1027 12.1876C16.6706 12.5119 15.7982 13.5715 14.2835 14.1569C14.2697 14.1623 14.2767 14.1802 14.2912 14.177C14.6947 14.0881 15.6177 13.8693 15.7433 14.3628C15.9014 14.9844 12.2747 14.9521 12.0753 14.8169L13.7836 13.2358Z" fill="#AD5832"/>
<path d="M13.8127 13.4834C14.2271 13.3594 15.3793 12.4048 15.9393 12.4048C16.0017 12.4048 16.0568 12.4166 16.1027 12.4428C16.1205 12.453 16.1369 12.4639 16.1519 12.4755C16.1516 12.3887 16.1129 12.3243 16.0342 12.2794C16.0079 12.2644 15.9746 12.2575 15.9355 12.2575C15.6384 12.2575 15.0103 12.6563 14.6167 12.9064C14.31 13.1013 14.0599 13.2602 13.8828 13.3222C13.8618 13.3768 13.8384 13.4304 13.8127 13.4834Z" fill="#C68A70"/>
<path d="M14.2336 14.2871C14.2342 14.2871 14.2348 14.287 14.2354 14.287C14.2425 14.2863 14.2498 14.2855 14.2573 14.2847C14.2451 14.2823 14.2333 14.2784 14.2223 14.2731C14.2201 14.2793 14.2246 14.2871 14.2336 14.2871ZM14.3722 14.2728C14.5109 14.2589 14.6791 14.2449 14.8474 14.2449C14.9452 14.2449 15.043 14.2497 15.135 14.2619C15.1861 14.2323 15.2252 14.2001 15.25 14.1653C15.2176 14.1628 15.184 14.1617 15.1497 14.1617C14.882 14.1617 14.5646 14.2302 14.3722 14.2728Z" fill="#C68A70"/>
<path d="M13.1978 14.7871C13.3711 14.7871 13.5576 14.784 13.751 14.7769C14.6691 14.743 15.3473 14.6311 15.5647 14.4775C15.5718 14.4726 15.578 14.4678 15.5835 14.4632C15.4949 14.3459 15.3277 14.2871 15.1351 14.2614C14.7462 14.4867 13.6563 14.5658 12.7884 14.5691C12.6817 14.6373 12.5685 14.7024 12.4486 14.7645C12.6372 14.7779 12.8977 14.7871 13.1978 14.7871Z" fill="#793D45"/>
<path d="M15.5833 14.4639C15.6304 14.4246 15.624 14.3997 15.6208 14.3871C15.6023 14.314 15.5622 14.2629 15.4945 14.2264C15.4294 14.1912 15.3448 14.1726 15.2499 14.1654C15.2251 14.2002 15.186 14.2324 15.1349 14.262C15.3274 14.2877 15.4946 14.3465 15.5833 14.4639Z" fill="#8A6071"/>
<path d="M13.2023 15.0068C13.3798 15.0068 13.5391 15.0041 13.6484 15.0009C14.2202 14.9841 15.2422 14.9212 15.6604 14.6878C15.8846 14.5628 15.8854 14.4155 15.8659 14.3389C15.8325 14.2076 15.7518 14.1066 15.6262 14.0388C15.4598 13.9489 15.2375 13.9307 15.0105 13.9451C15.799 13.516 16.3603 12.9603 16.4006 12.5245C16.4176 12.3419 16.3361 12.1895 16.1713 12.0954C15.8003 11.8835 15.1239 12.313 14.4699 12.7285C14.1821 12.9115 13.8844 13.1005 13.7536 13.129C13.6863 13.1436 13.6453 13.2033 13.662 13.2623C13.6787 13.3212 13.7465 13.3573 13.8139 13.3426C13.992 13.3039 14.2678 13.1286 14.617 12.9068C15.0623 12.6239 15.8079 12.1504 16.0345 12.2798C16.1222 12.3299 16.1602 12.4041 16.1507 12.5066C16.1133 12.9099 15.3696 13.6171 14.2331 14.0563C14.1671 14.0818 14.135 14.1462 14.1583 14.206C14.1817 14.2657 14.252 14.2992 14.3219 14.2837L14.3556 14.2763C14.6393 14.2135 15.2293 14.0829 15.4947 14.2261C15.5624 14.2627 15.6025 14.3137 15.6211 14.3868C15.6247 14.4009 15.6321 14.4303 15.5647 14.4779C15.3472 14.6315 14.6691 14.7434 13.751 14.7773C12.9421 14.8071 12.254 14.766 12.1451 14.7254C12.0907 14.6934 12.0168 14.7036 11.9762 14.7496C11.9339 14.7977 11.944 14.8668 11.9988 14.904C12.1215 14.9872 12.7271 15.0068 13.2023 15.0068Z" fill="#000072"/>
<path d="M4.02418 8.34322C4.02418 8.34322 2.71345 8.772 2.53985 10.6601C2.49449 11.1529 2.58911 12.3673 2.75351 12.8403C2.93657 13.3665 3.24951 14.041 4.05518 14.3604L4.02418 8.34322Z" fill="#7F7F7F"/>
<path d="M4.02418 8.34322C4.02418 8.34322 2.71345 8.772 2.53985 10.6601C2.49449 11.1529 2.58911 12.3673 2.75351 12.8403C2.93657 13.3665 3.24951 14.041 4.05518 14.3604L4.02418 8.34322Z" fill="#AD5832"/>
<path d="M2.91825 9.78711C3.23016 9.2076 3.4984 8.98925 3.8878 8.77793C3.9258 8.71654 3.96442 8.65603 4.00391 8.59649C3.9337 8.57592 3.86288 8.55405 3.79193 8.53077C3.78428 8.54062 3.77466 8.5495 3.76306 8.55708C3.75603 8.56173 3.2441 8.90654 2.91825 9.78711Z" fill="#C68A70"/>
<path d="M4.05527 14.4697C4.10294 14.4697 4.14858 14.4457 4.1695 14.405C4.19803 14.3496 4.17001 14.2844 4.10687 14.2594C3.35039 13.9596 3.12219 13.6465 2.94533 13.1379C2.71104 12.4637 2.61698 11.7508 2.66604 11.0191C2.78699 9.21364 3.75316 8.56268 3.76292 8.55634C3.81845 8.52019 3.83024 8.45134 3.78917 8.40262C3.74796 8.35389 3.66987 8.34333 3.61434 8.37903C3.5706 8.40718 2.54408 9.08861 2.41565 11.0061C2.36494 11.764 2.46243 12.5029 2.70547 13.2021C2.89994 13.7613 3.16428 14.1273 4.00355 14.4599C4.02028 14.4666 4.0379 14.4697 4.05527 14.4697Z" fill="#000072"/>
<path d="M2.91674 12.9153C2.91674 13.3959 3.16722 13.8322 3.6065 14.203C3.60798 14.2044 3.60983 14.206 3.6118 14.2074C4.5212 14.9718 6.23388 15.4578 8.21025 15.4823C8.26256 15.4831 8.31525 15.4834 8.36794 15.4834C10.4107 15.4834 12.1908 14.9234 13.1244 14.0951C13.1884 14.0385 13.2492 13.9826 13.3065 13.9273C13.6458 13.6005 13.8599 13.2903 13.8599 12.8776C13.8599 11.891 13.6931 10.9657 13.394 10.1363C13.2849 9.83405 13.1583 9.54433 13.0156 9.26902C12.0391 7.38564 10.3141 6.17698 8.36794 6.17698C6.51484 6.17698 4.87768 7.2973 3.89265 9.00604C3.88327 9.02228 3.87389 9.03852 3.86476 9.05476C3.79048 9.18587 3.72027 9.32293 3.65376 9.46487C3.1898 10.456 2.92229 11.685 2.91699 12.8785V12.8837C2.91674 12.8942 2.91674 12.9049 2.91674 12.9153Z" fill="#AD5832"/>
<path d="M2.91706 12.8785V12.8837C2.92865 13.3772 3.17815 13.8242 3.60643 14.2029C3.60804 14.2043 3.60989 14.206 3.61174 14.2073C4.50434 14.9929 6.16751 15.4834 8.07203 15.4834C8.11805 15.4834 8.16408 15.4831 8.21022 15.4823C8.5852 15.4771 8.95007 15.4498 9.30099 15.4036C11.5077 15.1118 12.8341 12.9137 11.9958 10.9483C11.9923 10.9406 11.9892 10.9329 11.9858 10.9252C11.7042 10.27 11.2308 9.76084 10.6521 9.48964L10.3035 9.32627C9.75296 9.06849 8.91971 9.03547 8.34941 9.24615L7.48605 9.56531C7.1735 9.68083 6.84776 9.72511 6.52707 9.69923C6.22982 9.67509 5.94022 9.58448 5.66901 9.44341L4.91412 9.05096C4.76457 8.98654 4.61687 8.93923 4.47053 8.9087C4.2657 8.86604 4.05915 8.90513 3.8927 9.00603C3.88332 9.02227 3.87382 9.03851 3.86481 9.05475C3.27192 10.1033 2.92298 11.5141 2.91706 12.8785Z" fill="#FCD2AC"/>
<path d="M10.5205 15.0107C11.6307 14.7745 12.5516 14.36 13.1383 13.8396C13.2022 13.7829 13.263 13.7271 13.3204 13.6717C13.4259 13.5701 13.5193 13.47 13.5979 13.368C13.6345 13.2882 13.6653 13.2062 13.6904 13.1221C13.6458 13.1836 13.5973 13.2437 13.545 13.3017C13.545 13.3018 13.5449 13.3019 13.5449 13.302C13.5448 13.302 13.5448 13.302 13.5448 13.302C13.4642 13.3914 13.3745 13.4757 13.2761 13.5516C13.2761 13.5516 13.2761 13.5515 13.2761 13.5514C13.2761 13.5515 13.276 13.5515 13.2759 13.5516C13.2759 13.5516 13.3533 13.1541 13.3787 12.7973C13.364 12.8119 13.3491 12.8264 13.334 12.841C13.2765 12.8964 13.2158 12.9522 13.1518 13.0089C13.1022 13.0529 13.0502 13.0961 12.9959 13.1385C12.7684 13.389 12.4247 13.6253 11.9067 13.7906C11.9067 13.7906 11.904 13.7802 11.8994 13.7616C11.8628 13.777 11.8258 13.792 11.7884 13.8069C11.489 14.3009 11.055 14.7209 10.5205 15.0107Z" fill="#793D45"/>
<path d="M8.80567 15.2197C9.41015 15.1965 9.98693 15.1242 10.5202 15.0108C11.0547 14.721 11.4887 14.301 11.7881 13.8069C11.1339 14.0665 10.3575 14.2527 9.50847 14.3405C9.45159 14.3928 9.3925 14.4416 9.33501 14.4857C9.36528 14.4628 9.38171 14.4528 9.386 14.4528C9.39887 14.4528 9.31012 14.5376 9.16363 14.6371C9.02792 14.7766 8.92323 14.9383 8.8552 15.113C8.84122 15.1487 8.82492 15.1847 8.80567 15.2197ZM7.80891 15.2147C7.79236 15.1466 7.7866 15.074 7.78733 15.0034C7.78733 14.9892 7.78733 14.9725 7.78697 14.9539C7.78096 14.7523 7.72702 14.5539 7.62625 14.3735C6.41791 14.2984 5.33693 14.0471 4.5189 13.6658C4.50713 13.7149 4.49487 13.7599 4.48347 13.7984C4.46888 13.8473 4.45883 13.8924 4.45246 13.9351C4.45246 13.9357 4.45233 13.9362 4.45221 13.9367V13.9367C4.43554 14.0483 4.44265 14.1437 4.45344 14.2468C4.45993 14.3076 4.46766 14.3709 4.47268 14.442C4.47354 14.4551 4.4744 14.4686 4.47538 14.4824C5.34048 14.8923 6.50654 15.1549 7.80891 15.2147ZM3.81929 13.6116C3.81929 13.6116 3.81917 13.6106 3.81892 13.6087L3.81537 13.6096L3.81929 13.6116ZM3.04772 12.6126C3.06648 12.6011 3.08732 12.5912 3.11036 12.5831C3.12103 12.5794 3.13206 12.5761 3.14383 12.5731C3.148 12.5724 3.15229 12.5717 3.15658 12.5711C3.11956 12.5092 3.08732 12.4461 3.05961 12.382C3.05459 12.4589 3.05066 12.5358 3.04772 12.6126Z" fill="#B0939A"/>
<path d="M8.21045 15.4823C6.23411 15.4578 4.52141 14.9718 3.61199 14.2074C4.5045 14.9929 6.16764 15.4834 8.07226 15.4834C8.11836 15.4834 8.16435 15.4831 8.21045 15.4823Z" fill="#F8DEC3"/>
<path d="M8.36818 6.28632C9.56535 6.28632 10.867 6.92526 11.9396 8.03939C13.3271 9.48035 14.0323 11.4018 13.7363 12.9344C13.5748 13.7704 12.8865 14.4144 11.6907 14.8483C10.7722 15.1815 9.56125 15.3727 8.36818 15.3727C6.91213 15.3727 5.56385 15.121 4.57167 14.6639C3.58532 14.2095 3.04224 13.5883 3.04224 12.9148C3.04224 11.5634 3.39175 10.1385 3.9773 9.10309C4.97457 7.33934 6.61612 6.28632 8.36818 6.28632ZM8.36818 15.5928C9.59279 15.5928 10.8388 15.3955 11.7865 15.0516C13.0494 14.5934 13.8092 13.874 13.9836 12.9711C14.1412 12.1552 14.0374 11.2357 13.6835 10.3118C13.3496 9.44026 12.8128 8.60534 12.1312 7.89733C11.0109 6.73374 9.63935 6.06626 8.36818 6.06626C6.51878 6.06626 4.7933 7.16493 3.75269 9.00526C3.15063 10.0696 2.79131 11.5311 2.79131 12.9148C2.79131 14.4414 5.18888 15.5928 8.36818 15.5928Z" fill="#000072"/>
<path d="M5.59033 1.95273C5.55988 1.93479 4.49932 0.883213 4.28575 0.655814C3.96797 0.317287 3.50066 0.527502 3.70565 1.45466C3.70565 1.45466 3.21804 0.996347 3.02563 1.2926C2.73973 1.73285 3.49351 1.77638 2.8854 3.90625L5.59033 1.95273Z" fill="#AD5832"/>
<path d="M3.82324 1.72559L3.61384 1.52944C3.51316 1.43525 3.31941 1.3025 3.20866 1.3025C3.2043 1.3025 3.20008 1.30274 3.19614 1.3031C3.18444 1.30429 3.16022 1.3068 3.13437 1.34667C3.06185 1.45841 3.07532 1.52682 3.12022 1.67007C3.12144 1.67294 3.12253 1.67568 3.12375 1.67843C3.17654 1.63414 3.25356 1.61778 3.33832 1.61778C3.5133 1.61778 3.72188 1.68738 3.82324 1.72559Z" fill="#C68A70"/>
<path d="M4.87979 1.70996C4.94867 1.68326 5.01897 1.65755 5.09082 1.63295C4.72806 1.274 4.25795 0.799847 4.18864 0.726178C4.12116 0.654239 4.04762 0.614437 3.98606 0.614437C3.96944 0.614437 3.95352 0.617403 3.93887 0.62346C3.87111 0.651519 3.81405 0.742616 3.79151 0.893911C3.8256 0.87846 3.86223 0.870797 3.89984 0.870797C3.9986 0.870797 4.10552 0.922959 4.19921 1.02296C4.3012 1.13148 4.59606 1.42789 4.87979 1.70996Z" fill="#C68A70"/>
<path d="M2.8849 3.90527L2.92383 3.8773C2.95893 3.71876 2.98488 3.57498 3.00342 3.4441C2.97141 3.58593 2.93223 3.73915 2.8849 3.90527Z" fill="#7F7F7F"/>
<path d="M3.65686 1.11358C3.6199 1.17349 3.59256 1.2528 3.57882 1.35152C3.65438 1.40625 3.70508 1.4541 3.70508 1.4541C3.67719 1.32729 3.66194 1.21399 3.65686 1.11358Z" fill="#7F7F7F"/>
<path d="M5.65974 1.86155C5.6616 1.86267 5.66531 1.86468 5.66987 1.86818C5.66673 1.8658 5.66331 1.86355 5.65974 1.86155ZM2.88517 4.0166C2.94126 4.0166 2.99235 3.98329 3.00662 3.93333C3.40067 2.55314 3.2324 2.02408 3.13193 1.7079C3.07798 1.53848 3.05557 1.46823 3.13421 1.34739C3.16004 1.30744 3.18431 1.30494 3.19601 1.30381C3.30405 1.29279 3.50913 1.43216 3.6136 1.53009L3.91102 1.80845L3.82839 1.43404C3.72192 0.952441 3.81112 0.676204 3.939 0.623235C4.00721 0.59506 4.10284 0.634506 4.18861 0.726042C4.3005 0.845127 5.45637 2.00693 5.5203 2.04449C5.57782 2.07818 5.65574 2.06465 5.69413 2.01419C5.72996 1.96723 5.71911 1.90487 5.67116 1.86918C5.58852 1.79756 4.58907 0.806433 4.38228 0.586044C4.21986 0.413114 4.00893 0.35113 3.8321 0.424259C3.60718 0.517173 3.50328 0.794287 3.53696 1.18698C3.42536 1.12324 3.29291 1.07228 3.16689 1.08518C3.09297 1.09281 2.98964 1.1255 2.91628 1.23845C2.78598 1.43905 2.83208 1.58381 2.89031 1.76713C2.98422 2.06228 3.14135 2.55627 2.76343 3.87986C2.74659 3.93871 2.78741 3.99844 2.85463 4.01322C2.86476 4.01547 2.87504 4.0166 2.88517 4.0166Z" fill="#000072"/>
<path d="M6.70468 9.70605C6.8401 9.70605 6.97598 9.69361 7.1107 9.66863V9.28485L7.11314 9.15155H7.15533C7.15882 9.14217 7.16312 9.13299 7.16823 9.12432C7.20392 9.06007 7.27843 9.01479 7.35933 9.00735H7.00922C6.15245 9.00735 5.1513 8.88639 4.33114 8.68374C4.30406 8.67711 4.27686 8.67018 4.24931 8.66314C4.19235 8.74769 4.13691 8.83427 4.08321 8.9226C4.15446 8.9022 4.2292 8.89139 4.30534 8.89139C4.35997 8.89139 4.4153 8.89689 4.47062 8.90842C4.61697 8.93891 4.7647 8.98623 4.91418 9.05069L5.66914 9.44313C5.94032 9.58418 6.22998 9.67474 6.52719 9.69902C6.58624 9.70371 6.6454 9.70605 6.70468 9.70605ZM12.2473 9.47761L12.2642 9.43559C12.2462 9.44966 12.2277 9.46312 12.2085 9.47597L12.2473 9.47761ZM9.05952 9.00694H9.19528L11.6186 9.00561C11.6964 8.99919 11.7706 8.96533 11.8219 8.91301C11.8476 8.887 11.8676 8.85681 11.8804 8.82448C11.8869 8.80837 11.8917 8.79164 11.8941 8.77471C11.8962 8.76635 11.8966 8.75778 11.8969 8.74912L11.8977 8.73627V8.71964V8.7022C11.855 8.71281 11.8117 8.72321 11.7679 8.73341C11.0109 8.90842 10.1002 9.00031 9.05952 9.00694Z" fill="#793D45"/>
<path d="M7.00958 9.99707H7.11084V9.66813C6.97614 9.69311 6.84038 9.70555 6.70486 9.70555C6.64567 9.70555 6.58635 9.70317 6.52739 9.6985C6.23012 9.67424 5.94052 9.58374 5.66936 9.44265L4.91435 9.05015C4.76488 8.98578 4.61719 8.9385 4.4708 8.90792C4.41562 8.89641 4.3602 8.89081 4.3055 8.89081C4.22941 8.89081 4.15462 8.9017 4.08349 8.92212C4.04733 8.98153 4.012 9.04176 3.9775 9.10292C3.90484 9.23126 3.83584 9.36572 3.77073 9.50516C4.76358 9.8426 6.07569 9.99707 7.00958 9.99707Z" fill="#B0939A"/>
<path d="M3.77028 9.50586C3.8353 9.36631 3.90437 9.23187 3.977 9.10358C4.01147 9.04236 4.04689 8.98218 4.08291 8.92273C4.13676 8.83439 4.19215 8.74783 4.24909 8.66324C4.20856 8.65281 4.16731 8.64186 4.12582 8.63049C4.04452 8.75221 3.96666 8.87747 3.89248 9.00607C3.88309 9.02223 3.8737 9.0385 3.86467 9.05477C3.79037 9.18587 3.72012 9.32292 3.65367 9.46487C3.69195 9.47885 3.73082 9.49251 3.77028 9.50586ZM12.6304 8.61787C12.6087 8.58554 12.5869 8.55362 12.5647 8.52181C12.5672 8.53558 12.5695 8.54935 12.57 8.56332C12.5878 8.57907 12.608 8.59722 12.6304 8.61787Z" fill="#000072"/>
<path d="M13.5223 3.90593C12.9142 1.77607 13.5644 1.73245 13.2785 1.29224C13.0862 0.996048 12.5985 1.45443 12.5985 1.45443C12.8034 0.527256 12.3538 0.33034 12.0183 0.655485C11.4303 1.22518 10.5398 1.66125 10.5093 1.67918C10.5093 1.67918 8.66505 1.39552 8.43548 1.39126C8.25519 1.388 4.07672 0.938012 2.92385 3.63581L2.84156 3.86532C2.42513 5.04244 2.20784 5.99769 2.22598 6.59697C2.22427 6.62479 2.22355 6.65287 2.22355 6.68132C2.22355 6.9547 2.29213 7.24851 2.45684 7.55936C2.98942 8.49147 5.49602 8.89746 7.00946 8.89746H8.93834C9.69519 8.89746 13.9385 8.89746 14.0493 6.73485C14.0799 6.13733 13.8686 5.0754 13.5588 4.02789L13.5223 3.90593Z" fill="#AD5832"/>
<path d="M3.11793 3.50781C3.12244 3.50299 3.12695 3.49817 3.13145 3.49335C3.90929 2.05882 6.2214 1.80254 7.61738 1.80254C7.92088 1.80254 8.181 1.81465 8.37282 1.82935C8.59901 1.84678 10.4226 2.11381 10.4226 2.11381C10.4526 2.09627 11.3329 1.66513 11.9142 1.10214C12.0241 0.995497 12.134 0.934823 12.2244 0.934823C12.4066 0.934823 12.5096 1.1811 12.3743 1.79364C12.3743 1.79364 12.3829 1.78882 12.3984 1.78066L12.4753 1.43281C12.5961 0.886013 12.4692 0.670383 12.3751 0.62911C12.3597 0.622314 12.3426 0.618977 12.3242 0.618977C12.2613 0.618977 12.1841 0.657902 12.1111 0.728708C11.6306 1.19445 10.9563 1.57504 10.5972 1.76052C10.5871 1.76584 10.5802 1.7693 10.5789 1.76992L10.5371 1.7945L10.4875 1.78684C9.75003 1.67353 8.59422 1.50362 8.43268 1.50065C8.42169 1.50053 8.39761 1.49892 8.3617 1.49645C8.16143 1.48249 7.91736 1.47161 7.64413 1.47161C6.21267 1.47161 3.98535 1.77115 3.11793 3.50781ZM13.1822 1.80167C13.1876 1.77572 13.1929 1.75113 13.1981 1.72778C13.2371 1.54922 13.2533 1.47532 13.1694 1.34619C13.1436 1.30628 13.1193 1.30381 13.1077 1.30257C13.1036 1.3022 13.0994 1.30195 13.0949 1.30195C12.9842 1.30195 12.7906 1.43479 12.69 1.52883L12.4501 1.75434C12.5648 1.69787 12.7872 1.6005 12.9545 1.6005C13.0535 1.6005 13.1331 1.6346 13.1597 1.73148C13.1669 1.75768 13.1744 1.78104 13.1822 1.80167Z" fill="#C68A70"/>
<path d="M2.09918 6.61914C2.09944 6.61114 2.09983 6.60336 2.10022 6.5957C2.08523 6.06549 2.24579 5.27378 2.56689 4.28791C2.18832 4.35732 1.90578 4.46903 1.86838 4.60693C1.81573 4.8004 1.79084 5.06499 1.78758 5.33918C1.79097 5.67775 1.82616 6.01792 1.88259 6.24604C1.90357 6.33042 1.97016 6.47038 2.09918 6.61914Z" fill="#4BA7C3"/>
<path d="M2.5249 6.65137C2.45426 6.45073 2.40784 6.2423 2.38831 6.0292C2.37334 6.13692 2.36269 6.23841 2.35647 6.33344C2.38476 6.4041 2.41799 6.47566 2.45642 6.54821C2.47645 6.58338 2.49941 6.61765 2.5249 6.65137Z" fill="#793D45"/>
<path d="M2.46456 5.14142C2.04263 6.73476 3.20826 8.32517 5.03775 8.64025C5.64329 8.74464 6.3302 8.80078 7.10222 8.80078C11.1164 8.80078 12.3038 6.8152 12.3552 6.71488C12.3564 6.7124 12.3569 6.71127 12.3569 6.71127C12.5579 6.36298 12.6704 5.97029 12.6704 5.55512C12.6704 4.11462 10.8836 2.87352 9.21304 2.94695C8.55703 2.97587 7.86793 3.2478 7.32123 3.59756C6.79655 3.93308 6.06883 3.89862 5.60543 3.49961C5.39221 3.31581 5.16406 3.17742 4.94324 3.11641C4.31775 2.9439 3.54637 3.06727 3.17826 3.44516C2.35448 4.29109 2.51053 4.96846 2.46984 5.12142C2.46804 5.12809 2.46637 5.13475 2.46456 5.14142Z" fill="#FCD2AC"/>
<path d="M8.68564 8.68555H8.93802C9.32279 8.68555 10.6074 8.68555 11.7927 8.40192C11.766 8.38127 11.7354 8.36461 11.7025 8.35317C11.666 8.34051 11.6278 8.33418 11.5877 8.33396H11.4357H11.1317H10.5237H10.0974C9.69401 8.47899 9.22609 8.60215 8.68564 8.68555ZM3.88291 8.23068C3.45144 7.98481 3.09553 7.65477 2.83835 7.27253C2.67951 7.21712 2.53155 7.14982 2.39929 7.07586C2.43472 7.21579 2.4889 7.35627 2.56155 7.49608C2.82139 7.80325 3.30475 8.04634 3.88291 8.23068ZM12.4273 8.21591C12.962 8.02568 13.4317 7.75838 13.7267 7.3827C13.8459 7.18491 13.9118 6.96714 13.9239 6.73005C13.9309 6.59268 13.9248 6.42699 13.9065 6.23831C13.5734 6.84754 12.6454 7.34916 11.4535 7.63411C11.3205 7.72995 11.1702 7.82745 11.0017 7.92263H11.0831H11.6911H11.7672C11.7685 7.92263 11.7699 7.92263 11.7714 7.92263C11.7953 7.92263 11.8248 7.92462 11.8509 7.92562C11.8794 7.92729 11.9076 7.93251 11.9359 7.93595C11.9639 7.94117 11.9916 7.94795 12.0193 7.95439C12.1286 7.98481 12.2299 8.03645 12.3143 8.10408C12.3563 8.13773 12.3943 8.17527 12.4273 8.21591Z" fill="#793D45"/>
<path d="M2.70361 7.05078C2.63332 6.92209 2.57344 6.7885 2.52522 6.65146C2.49959 6.61784 2.47676 6.58356 2.45671 6.54838C2.41826 6.4758 2.38502 6.40422 2.35673 6.33353C2.35064 6.42659 2.34874 6.51331 2.35127 6.59358V6.59803L2.35102 6.60237C2.34962 6.62586 2.34899 6.65146 2.34899 6.68085C2.34899 6.73885 2.35229 6.79708 2.35889 6.85541C2.45633 6.92621 2.57052 6.99312 2.70361 7.05078Z" fill="#542B53"/>
<path d="M7.00952 8.68555H8.68574C9.22615 8.60222 9.69411 8.47893 10.0975 8.33401H8.09173H7.48376H7.40778H7.38879H7.37885C7.37369 8.3339 7.36866 8.3339 7.3635 8.33346C7.34287 8.33224 7.32237 8.3286 7.30262 8.32264C7.22375 8.29913 7.16286 8.23666 7.1489 8.16436C7.14135 8.12916 7.14563 8.08964 7.16135 8.05543C7.17657 8.02099 7.20286 7.99207 7.23394 7.96967C7.26564 7.94792 7.303 7.93225 7.34313 7.92618C7.35948 7.9232 7.38187 7.92265 7.39319 7.92265C7.3947 7.92265 7.39609 7.92265 7.39709 7.92265H7.43508H8.65114H11.0018C11.1703 7.82739 11.3206 7.72994 11.4536 7.63413C10.7684 7.79793 9.99614 7.8902 9.19961 7.8902C9.11281 7.8902 9.02551 7.8892 8.93821 7.88689H7.00952C6.10518 7.88689 4.84647 7.74197 3.8659 7.42652C3.82276 7.42895 3.77948 7.43005 3.73646 7.43005C3.4226 7.43005 3.11428 7.36901 2.83841 7.27255C3.09566 7.65477 3.45166 7.9849 3.88301 8.2307C4.86107 8.54239 6.11034 8.68555 7.00952 8.68555ZM3.31417 7.21571C2.96861 7.05787 2.6911 6.87057 2.52531 6.65203C2.57361 6.78911 2.63349 6.92267 2.70381 7.05136C2.87489 7.12542 3.07692 7.18403 3.31417 7.21571Z" fill="#B0939A"/>
<path d="M2.89408 13.1528C2.89408 13.1528 2.60448 13.0611 2.45865 13.3136C2.32516 13.5447 2.66684 13.9917 3.01653 14.2204C3.24631 14.3706 3.26003 14.5814 3.40954 14.8286C3.58864 15.1248 3.87964 15.2559 4.20888 15.1153C4.5178 14.9834 4.48744 14.658 4.47258 14.4414C4.45619 14.2037 4.40843 14.0503 4.4835 13.7978C4.57331 13.4964 4.70782 12.8106 4.33285 12.7002C3.68466 12.5092 3.81943 13.611 3.81943 13.611L2.89408 13.1528Z" fill="#FF8E06"/>
<path d="M4.45237 13.9365C4.45867 13.8933 4.46875 13.8477 4.48341 13.7981C4.55739 13.5506 4.66116 13.0437 4.4881 12.8093C4.47711 12.8519 4.46611 12.8913 4.45581 12.9265C4.36143 13.2431 4.42168 13.4356 4.44206 13.7338C4.44642 13.7957 4.45145 13.865 4.45237 13.9365Z" fill="#EF8B01"/>
<path d="M3.9745 15.1719C4.04966 15.1686 4.12822 15.1505 4.20912 15.1159C4.34461 15.058 4.41475 14.9629 4.44971 14.8561H4.44959C4.41475 14.9629 4.34449 15.058 4.209 15.1159C4.12811 15.1504 4.04966 15.1686 3.9745 15.1719Z" fill="#3C85B3"/>
<path d="M4.48096 14.6211C4.48096 14.5727 4.47823 14.5256 4.47527 14.4818C4.47527 14.4817 4.47527 14.4817 4.47515 14.4817C4.47811 14.5256 4.48084 14.5727 4.48096 14.6211Z" fill="#B0939A"/>
<path d="M4.47559 14.4824C4.47467 14.4686 4.47376 14.4551 4.47285 14.442C4.46795 14.371 4.4602 14.3076 4.4537 14.2468C4.46009 14.3076 4.46772 14.3711 4.47274 14.442C4.47353 14.4551 4.47456 14.4686 4.47547 14.4824C4.47559 14.4824 4.47559 14.4824 4.47559 14.4824Z" fill="#7B678E"/>
<path d="M4.44987 14.8555C4.47438 14.7802 4.48145 14.699 4.48145 14.621H4.48133C4.48133 14.699 4.47438 14.7801 4.44976 14.8555H4.44987Z" fill="#000072"/>
<path d="M3.2168 14.4395C3.1787 14.372 3.13253 14.3104 3.06405 14.2558C3.13253 14.3104 3.1787 14.372 3.2168 14.4395Z" fill="#4BA7C3"/>
<path d="M3.94893 15.1719C3.95736 15.1719 3.9658 15.1717 3.97435 15.1713C4.04949 15.168 4.12797 15.1498 4.20881 15.1153C4.34432 15.0574 4.4145 14.9624 4.44947 14.8555C4.47401 14.7802 4.48096 14.699 4.48096 14.6211C4.48096 14.5727 4.47823 14.5256 4.47525 14.4817C4.47426 14.4679 4.47339 14.4545 4.47253 14.4414C4.46757 14.3704 4.45988 14.307 4.45343 14.2462C4.44884 14.2022 4.44488 14.1597 4.44314 14.1166C4.41834 14.3031 4.33713 14.4819 4.11148 14.5784C3.9984 14.6267 3.88905 14.6494 3.78515 14.6494C3.50915 14.6494 3.27185 14.4889 3.10856 14.2189C3.02288 14.0768 2.92493 14.0186 2.8767 14.0186C2.81979 14.0186 2.83231 14.0999 3.01643 14.2203C3.03342 14.2314 3.04929 14.2429 3.06417 14.2547C3.13261 14.3094 3.17886 14.3709 3.2168 14.4384C3.23403 14.4688 3.2494 14.5005 3.26453 14.5332C3.30644 14.6238 3.34562 14.7228 3.40947 14.8284C3.53965 15.0438 3.72886 15.1719 3.94893 15.1719Z" fill="#B26327"/>
<path d="M4.4433 14.1162C4.45151 14.0562 4.45334 13.9951 4.45242 13.936C4.44307 13.9998 4.44113 14.0584 4.4433 14.1162Z" fill="#EF8B01"/>
<path d="M3.25736 13.7539C3.00606 13.4829 2.67096 12.692 3.14383 12.5724C3.78756 12.4628 3.89272 13.2993 3.85925 13.5975L3.25736 13.7539Z" fill="#FF8E06"/>
<path d="M3.91435 13.92L3.91846 13.9219C3.91846 13.9219 3.91846 13.9208 3.91811 13.9189L3.91435 13.92Z" fill="#EF8B01"/>
<path d="M3.82371 13.1396C3.84727 12.9741 3.90171 12.8094 4.01906 12.7289C3.90183 12.8094 3.84727 12.9738 3.82359 13.1393C3.82371 13.1394 3.82371 13.1395 3.82371 13.1396ZM4.56543 12.9988C4.53998 12.8705 4.48272 12.7658 4.37537 12.7163C4.4826 12.7659 4.53998 12.8706 4.56543 12.9988Z" fill="#FDE0C5"/>
<path d="M3.86278 13.4082C3.92181 13.1995 4.07251 12.9922 4.30522 12.9922C4.34516 12.9922 4.38723 12.9983 4.43188 13.0114C4.43247 13.0115 4.43306 13.0117 4.43353 13.0119C4.43978 12.9843 4.4472 12.9559 4.45604 12.9264C4.46641 12.8912 4.47736 12.8519 4.48832 12.8093C4.53121 12.8673 4.55713 12.9422 4.57068 13.0257C4.56915 13.0167 4.56762 13.0078 4.56585 12.999C4.54028 12.8708 4.48302 12.7662 4.3758 12.7165C4.37556 12.7165 4.37544 12.7164 4.37533 12.7164C4.37533 12.7163 4.37521 12.7163 4.37521 12.7163C4.36189 12.7101 4.34799 12.7049 4.33314 12.7006C4.28142 12.6853 4.23464 12.6783 4.19234 12.6783C4.124 12.6783 4.06745 12.6967 4.02079 12.7284C4.02055 12.7285 4.02043 12.7286 4.0202 12.7287C4.02008 12.7289 4.01984 12.7289 4.01973 12.7291C4.01961 12.7291 4.01961 12.7291 4.01949 12.7292C3.90213 12.8097 3.8477 12.9744 3.82413 13.1399C3.82437 13.1411 3.8246 13.1423 3.82496 13.1436C3.83014 13.1653 3.83462 13.1871 3.83874 13.2087C3.84652 13.2508 3.85241 13.2925 3.85665 13.3325C3.85936 13.3585 3.86137 13.3839 3.86278 13.4082ZM3.83874 13.2087C3.85006 13.2317 3.85288 13.2609 3.85194 13.2926C3.8484 13.2651 3.84405 13.237 3.83874 13.2087Z" fill="#FFB051"/>
<path d="M4.58008 13.1113C4.57814 13.0824 4.57506 13.0541 4.57061 13.0267C4.57061 13.0267 4.57061 13.0267 4.57061 13.0266C4.57061 13.0264 4.57061 13.026 4.5705 13.0258C4.55692 12.9423 4.53113 12.8674 4.48824 12.8093C4.47717 12.8519 4.46622 12.8913 4.45584 12.9265C4.44705 12.9559 4.43964 12.9844 4.43336 13.0119C4.49554 13.0305 4.54368 13.0652 4.58008 13.1113Z" fill="#F4AE4E"/>
<path d="M3.86475 13.4883C3.86475 13.4634 3.86404 13.4369 3.86251 13.4093C3.86262 13.4092 3.86263 13.4092 3.86263 13.4091C3.86121 13.3848 3.85921 13.3594 3.8565 13.3335C3.86227 13.3888 3.86475 13.4413 3.86475 13.4883ZM3.8248 13.1445C3.82457 13.1433 3.82433 13.142 3.82398 13.1408C3.82398 13.1407 3.82398 13.1406 3.82386 13.1404V13.1405C3.82421 13.1418 3.82457 13.1432 3.8248 13.1445Z" fill="#FFB051"/>
<path d="M2.73239 13.1396C2.74633 13.1384 2.75978 13.1379 2.77261 13.1379C2.78531 13.1379 2.79726 13.1384 2.80859 13.1393V13.1392C2.79739 13.1384 2.78543 13.1379 2.77286 13.1379C2.75991 13.1379 2.74633 13.1384 2.73239 13.1396Z" fill="#4D4D9D"/>
<path d="M2.94824 13.1807C2.94824 13.1807 2.94824 13.1806 2.94824 13.1805L2.89428 13.1539C2.89428 13.1539 2.85979 13.143 2.80868 13.1391V13.1391C2.85979 13.143 2.89415 13.154 2.89415 13.154L2.94824 13.1807Z" fill="#4D4D9D"/>
<path d="M2.52868 13.7246C2.53121 13.6886 2.5402 13.6553 2.55754 13.6253C2.64197 13.4792 2.77474 13.4485 2.87145 13.4485C2.9417 13.4485 2.99296 13.4647 2.99296 13.4647L3.04726 13.4916L3.08789 13.5116C3.08485 13.5062 3.08194 13.5007 3.0789 13.4952C3.05751 13.4555 3.03713 13.4139 3.0184 13.3714C2.99182 13.3118 2.96853 13.2499 2.95043 13.1883C2.94967 13.1858 2.94891 13.1832 2.94815 13.1806L2.89411 13.1539C2.89411 13.1539 2.85968 13.143 2.80854 13.1391C2.79728 13.1382 2.78525 13.1377 2.77259 13.1377C2.75981 13.1377 2.74627 13.1382 2.73234 13.1395C2.64146 13.1479 2.53197 13.1879 2.45869 13.3147C2.39793 13.4201 2.4359 13.5706 2.52868 13.7246Z" fill="#FFB051"/>
<path d="M3.08789 13.5117C3.08493 13.5062 3.08185 13.5007 3.0789 13.4952C3.08185 13.5007 3.08481 13.5062 3.08777 13.5117L3.08789 13.5117ZM2.9504 13.1883C2.94954 13.1857 2.9488 13.1831 2.94806 13.1806V13.1805C2.94806 13.1806 2.94806 13.1806 2.94806 13.1806C2.9488 13.1832 2.94954 13.1858 2.9504 13.1883Z" fill="#FFB051"/>
<path d="M2.92188 13.0713V13.0712C2.92188 13.0713 2.92188 13.0713 2.92188 13.0713ZM2.92163 13.0701C2.92163 13.0698 2.92163 13.0695 2.92151 13.0692C2.92163 13.0695 2.92163 13.0698 2.92163 13.0701Z" fill="#4D4D9D"/>
<path d="M3.04771 12.6133C3.06647 12.6018 3.08731 12.5919 3.11035 12.5838C3.08731 12.5918 3.06647 12.6017 3.04771 12.6132V12.6133Z" fill="#C8B4B8"/>
<path d="M2.92129 13.0703C2.88446 12.8765 2.90795 12.6993 3.04785 12.6133V12.6133C2.90795 12.6992 2.88434 12.8765 2.92129 13.0703Z" fill="#4D4D9D"/>
<path d="M3.78467 13.0049C3.78455 13.0047 3.78455 13.0047 3.78443 13.0046C3.78455 13.0046 3.78455 13.0048 3.78467 13.0049ZM3.78431 13.004C3.7364 12.8697 3.66376 12.7453 3.55767 12.663C3.66376 12.7453 3.7364 12.8696 3.78431 13.004Z" fill="#FDE0C5"/>
<path d="M3.00482 13.2074C3.00989 13.0506 3.07638 12.9254 3.24285 12.8833C3.28203 12.8767 3.31923 12.8735 3.35458 12.8735C3.57902 12.8735 3.72622 13.0017 3.81965 13.1719C3.82101 13.1609 3.82249 13.1501 3.82373 13.1391C3.8131 13.0941 3.8 13.0489 3.78443 13.0048C3.78431 13.0048 3.78431 13.0046 3.78431 13.0045C3.78418 13.0043 3.78418 13.0041 3.78406 13.004C3.73623 12.8696 3.66356 12.7452 3.55739 12.663C3.55739 12.6629 3.55739 12.6629 3.55739 12.6629C3.55702 12.6627 3.55678 12.6625 3.55653 12.6622C3.55628 12.6622 3.55628 12.662 3.55616 12.6619C3.55591 12.6618 3.55579 12.6617 3.55566 12.6616C3.4757 12.6002 3.37683 12.5627 3.25534 12.5627C3.22011 12.5627 3.18291 12.5658 3.14374 12.5725C3.13224 12.5754 3.12112 12.5787 3.11049 12.5824C3.08738 12.5905 3.06661 12.6004 3.04783 12.6119C2.90792 12.6979 2.88432 12.8751 2.92127 13.0689C2.92127 13.069 2.92127 13.069 2.92127 13.0692C2.9214 13.0694 2.9214 13.0697 2.92152 13.07C2.92152 13.0704 2.92164 13.0708 2.92164 13.0711V13.0712C2.92856 13.1069 2.93746 13.143 2.94809 13.1793L3.00482 13.2074Z" fill="#FFB051"/>
<path d="M3.8193 13.6094L3.85938 13.599C3.85938 13.5989 3.85938 13.5989 3.85938 13.5988L3.81919 13.6093C3.8193 13.6093 3.8193 13.6094 3.8193 13.6094ZM3.85655 13.3333C3.85242 13.2933 3.84653 13.2516 3.83875 13.2095C3.83451 13.1879 3.83015 13.1661 3.82484 13.1443C3.83993 13.2087 3.85018 13.2727 3.85655 13.3333Z" fill="#FFC886"/>
<path d="M3.81899 13.6094L3.8592 13.5989C3.86274 13.5675 3.86475 13.53 3.86475 13.4882C3.86475 13.4412 3.86215 13.3888 3.85637 13.3334C3.85012 13.2728 3.83975 13.2088 3.82477 13.1444C3.82442 13.1431 3.82418 13.1418 3.82383 13.1405C3.82253 13.1514 3.821 13.1622 3.8197 13.1732C3.81085 13.2483 3.80791 13.3226 3.80791 13.3879C3.80791 13.5043 3.81722 13.5929 3.81899 13.6094Z" fill="#FFC886"/>
<path d="M3.01855 13.3711C3.01843 13.3711 3.01843 13.371 3.01843 13.371C2.99219 13.3113 2.96891 13.2496 2.95056 13.188C2.96866 13.2496 2.99195 13.3115 3.01855 13.3711Z" fill="#FFC886"/>
<path d="M3.01855 13.3701C3.00968 13.3204 3.00476 13.2717 3.00488 13.2256C3.00488 13.2195 3.00488 13.2135 3.005 13.2074L2.94833 13.1794C2.94907 13.1819 2.94981 13.1846 2.95067 13.1872C2.96903 13.2488 2.99219 13.3105 3.01855 13.3701Z" fill="#FFC886"/>
<path d="M3.81912 13.6094L3.85924 13.599C3.86963 13.5062 3.86668 13.3615 3.83859 13.2094C3.83257 13.1971 3.82632 13.1849 3.81971 13.1731C3.79493 13.3822 3.81629 13.5841 3.81912 13.6094Z" fill="#EF8B01"/>
<path d="M3.81556 13.6094L3.81934 13.6113C3.81934 13.6113 3.81934 13.6105 3.8191 13.6086L3.81556 13.6094Z" fill="#EF8B01"/>
<path d="M3.0184 13.3714C3.02565 13.411 3.03535 13.4512 3.04725 13.4917L3.08789 13.5117C3.06321 13.4671 3.03964 13.4198 3.0184 13.3714Z" fill="#EF8B01"/>
<path d="M2.93671 13.0503C2.91673 13.0443 2.90656 13.0421 2.89231 13.0389C2.8792 13.0362 2.86597 13.0337 2.85273 13.032C2.82652 13.0281 2.7998 13.0262 2.7727 13.0258C2.71862 13.0251 2.66226 13.0322 2.6078 13.0486C2.5527 13.0641 2.50219 13.0925 2.45867 13.1248C2.43793 13.1419 2.41681 13.159 2.40078 13.1784C2.39225 13.1878 2.38347 13.1973 2.37546 13.207L2.35484 13.2368C2.3481 13.2474 2.34136 13.2554 2.33474 13.2683C2.32838 13.2809 2.32113 13.2936 2.3168 13.3064C2.30662 13.3321 2.29988 13.3582 2.2967 13.3832C2.28957 13.4337 2.29313 13.4811 2.3014 13.5254C2.3182 13.614 2.35306 13.691 2.39289 13.7635C2.47483 13.9072 2.5812 14.0313 2.7017 14.1448C2.76227 14.2013 2.82729 14.2546 2.89765 14.3041L2.9245 14.3224L2.94396 14.3365C2.95669 14.3449 2.96776 14.3545 2.97883 14.364C2.99053 14.373 2.99957 14.3843 3.01038 14.3941C3.01954 14.4055 3.02985 14.4156 3.03838 14.4279C3.11052 14.5203 3.15404 14.6611 3.22745 14.8028C3.29934 14.9427 3.40101 15.0942 3.57075 15.198C3.65473 15.2498 3.7569 15.2876 3.86404 15.2998C3.9713 15.3125 4.07958 15.2996 4.17501 15.2708C4.19969 15.2645 4.22209 15.2554 4.24499 15.2467C4.25644 15.2422 4.26751 15.2385 4.27922 15.2331L4.31459 15.2157C4.32617 15.2097 4.33813 15.2042 4.34933 15.1975L4.38254 15.1757C4.40519 15.1618 4.42491 15.1444 4.4445 15.1269C4.52275 15.0564 4.57238 14.9668 4.59719 14.8818C4.64656 14.7098 4.62824 14.5521 4.6178 14.4084C4.61157 14.3331 4.60164 14.2603 4.59477 14.1916C4.58803 14.1232 4.5851 14.0592 4.59083 13.9964C4.59337 13.9649 4.59808 13.9336 4.6047 13.9022C4.60813 13.8865 4.61119 13.8708 4.61577 13.8551L4.62989 13.8041C4.65012 13.7308 4.66755 13.6575 4.68117 13.5833C4.70827 13.4349 4.72557 13.284 4.71705 13.1266C4.71196 13.0478 4.70089 12.9672 4.67124 12.8842C4.65597 12.8427 4.63676 12.8008 4.60813 12.7597C4.57938 12.7188 4.54108 12.6791 4.49285 12.6475C4.46919 12.6313 4.44234 12.6185 4.41536 12.6074L4.37388 12.593L4.33686 12.5842L4.2997 12.5758L4.25988 12.5707C4.23392 12.5665 4.20504 12.5669 4.17666 12.5671C4.06126 12.5675 3.93593 12.6276 3.8718 12.704C3.80296 12.7797 3.76988 12.8611 3.74837 12.9392C3.72763 13.0179 3.71885 13.0952 3.71809 13.1714C3.71771 13.3236 3.74163 13.4715 3.79749 13.6141C3.80156 13.6245 3.81428 13.6299 3.82612 13.6264C3.83426 13.6239 3.83986 13.6178 3.84113 13.6108L3.84126 13.61C3.86772 13.4655 3.88885 13.3239 3.91951 13.1891C3.93554 13.1219 3.9531 13.0563 3.97702 12.9962C3.9998 12.936 4.02983 12.8808 4.06584 12.8446C4.07398 12.8341 4.08416 12.8287 4.09268 12.8206C4.10261 12.8155 4.11113 12.8081 4.12131 12.8052C4.13035 12.8 4.14129 12.7988 4.15121 12.7955C4.15643 12.794 4.16254 12.7944 4.16814 12.7935C4.17374 12.7929 4.17921 12.7914 4.18582 12.7923C4.19868 12.7929 4.21089 12.7919 4.2254 12.7951L4.24652 12.798L4.26878 12.8038L4.29118 12.8093C4.29639 12.8115 4.30148 12.8135 4.3067 12.8153C4.3165 12.8199 4.32617 12.8243 4.33457 12.8307C4.35187 12.8428 4.36752 12.8589 4.38152 12.8795C4.39526 12.9003 4.40646 12.9257 4.41587 12.953C4.4342 13.008 4.44247 13.0717 4.44488 13.1368C4.44896 13.2678 4.43076 13.4053 4.40226 13.5407C4.38775 13.6086 4.37134 13.6764 4.35187 13.743L4.33622 13.797C4.3305 13.8161 4.32617 13.8359 4.32159 13.8555C4.31281 13.895 4.30619 13.9352 4.30238 13.9755C4.29398 14.0565 4.29703 14.1371 4.30339 14.2122C4.31001 14.2872 4.31866 14.3577 4.32337 14.4263C4.33368 14.5689 4.34106 14.7044 4.30696 14.8131C4.2908 14.8675 4.26408 14.911 4.22743 14.9439C4.21802 14.952 4.20924 14.9607 4.19766 14.9671L4.18175 14.9779C4.17615 14.9813 4.16941 14.9839 4.16343 14.987L4.14511 14.9963C4.13875 14.9994 4.13048 15.0019 4.12335 15.0048C4.10834 15.0103 4.09358 15.0168 4.07856 15.0201C3.9587 15.0561 3.8452 15.0427 3.74418 14.9807C3.69379 14.95 3.64785 14.9075 3.60739 14.8587C3.56718 14.8099 3.53296 14.7546 3.50102 14.6937C3.46908 14.6335 3.44134 14.5688 3.40941 14.4994C3.37785 14.4305 3.34044 14.3549 3.28408 14.2821C3.27084 14.2638 3.25417 14.2465 3.23891 14.2289C3.2216 14.2124 3.2057 14.1947 3.18687 14.1796C3.16854 14.164 3.14984 14.1488 3.12986 14.1354L3.10136 14.1155L3.07922 14.1009C3.02069 14.0612 2.9642 14.0168 2.91139 13.969C2.80591 13.8736 2.71162 13.7655 2.64406 13.6521C2.57624 13.5403 2.53947 13.4147 2.58757 13.3545C2.61607 13.3091 2.65068 13.2785 2.6961 13.263C2.71888 13.2553 2.74471 13.2505 2.7727 13.2498C2.7867 13.2496 2.8012 13.2499 2.81545 13.2516C2.8227 13.2522 2.82958 13.2534 2.83657 13.2545C2.84217 13.2554 2.85197 13.2577 2.85159 13.2574C2.91674 13.2779 2.98863 13.2484 3.01204 13.1912C3.03558 13.134 3.00173 13.0709 2.93671 13.0503Z" fill="#000072"/>
<path d="M3.93761 13.082C3.91849 13.0038 3.89216 12.9259 3.85442 12.8496C3.81667 12.7735 3.76737 12.6983 3.69883 12.6309C3.6309 12.5638 3.53827 12.5063 3.43297 12.4789C3.3278 12.4508 3.21852 12.4535 3.12117 12.4711L3.11496 12.4723L3.11099 12.4733C3.03115 12.4938 2.95019 12.5397 2.89816 12.6024C2.84452 12.6646 2.82005 12.7354 2.80962 12.8008C2.78926 12.933 2.81533 13.0535 2.84961 13.1676C2.88624 13.2813 2.93317 13.3907 2.99923 13.4914C3.03152 13.542 3.06827 13.5905 3.10938 13.636C3.15011 13.6816 3.19617 13.7246 3.24932 13.7598C3.25404 13.763 3.26074 13.7621 3.26434 13.758C3.2667 13.7551 3.26708 13.7515 3.26559 13.7485L3.26546 13.7482C3.21269 13.6447 3.16898 13.543 3.12862 13.4401C3.08988 13.3371 3.05201 13.2346 3.02941 13.1307C3.00718 13.0278 2.99948 12.9219 3.01997 12.8325C3.03028 12.7881 3.04915 12.7499 3.07548 12.7244C3.10168 12.6987 3.13347 12.6817 3.17618 12.6718L3.166 12.674C3.23529 12.6645 3.30073 12.6675 3.35797 12.6849C3.41534 12.7015 3.46625 12.7335 3.50971 12.7787C3.55392 12.8229 3.5903 12.8787 3.62035 12.9388C3.65027 12.9992 3.67399 13.0643 3.69324 13.1313L3.69336 13.1319C3.71025 13.1908 3.77842 13.2266 3.8456 13.2118C3.91129 13.1974 3.95177 13.1396 3.93761 13.082Z" fill="#000072"/>
<path d="M9.85857 12.9109V12.9111C9.99181 12.896 10.1365 12.8721 10.293 12.8375L9.85857 12.9109Z" fill="#000072"/>
<path d="M9.85857 12.9109V12.9111C9.99181 12.896 10.1365 12.8721 10.293 12.8375L9.85857 12.9109Z" fill="#000072"/>
<path d="M9.78809 5.86629C9.78809 6.42658 9.42641 6.88086 8.98008 6.88086C8.53374 6.88086 8.17196 6.42658 8.17196 5.86629C8.17196 5.3059 8.53374 4.85161 8.98008 4.85161C9.42641 4.85161 9.78809 5.3059 9.78809 5.86629Z" fill="#000072"/>
<path d="M9.04053 6.07057C9.04053 6.26994 8.94412 6.43164 8.82508 6.43164C8.70615 6.43164 8.60974 6.26994 8.60974 6.07057C8.60974 5.8711 8.70615 5.7094 8.82508 5.7094C8.94412 5.7094 9.04053 5.8711 9.04053 6.07057Z" fill="white"/>
<path d="M3.40678 5.86621C3.40678 6.42656 3.76854 6.88086 4.21493 6.88086C4.66119 6.88086 5.02295 6.42656 5.02295 5.86621C5.02295 5.30586 4.66119 4.85156 4.21493 4.85156C3.76854 4.85156 3.40678 5.30586 3.40678 5.86621Z" fill="#000072"/>
<path d="M13.0947 1.30199C13.0992 1.30199 13.1034 1.30224 13.1075 1.30262C13.1191 1.30387 13.1434 1.30638 13.1692 1.34619C13.2531 1.47538 13.2369 1.54924 13.1979 1.72776C13.1287 2.04437 13.0127 2.57442 13.4004 3.93211L13.4372 4.05529C13.7699 5.18037 13.9518 6.18014 13.9237 6.72935C13.8797 7.58727 13.1329 8.18981 11.7038 8.52009C10.9384 8.69708 10.0079 8.78685 8.93802 8.78685H7.00915C5.51342 8.78685 3.06913 8.38125 2.56946 7.51091C2.42293 7.23411 2.34873 6.95481 2.34873 6.68065C2.34873 6.65135 2.34945 6.62569 2.35087 6.60228L2.35116 6.5979L2.35102 6.59352C2.33332 6.00788 2.54421 5.07559 2.96098 3.89743L3.04217 3.67121C3.99756 1.44146 7.08006 1.4074 8.36163 1.49641C8.39744 1.49892 8.42155 1.50054 8.43254 1.50067C8.59406 1.50367 9.74985 1.67356 10.4873 1.78698L10.5369 1.79462L10.5787 1.76995C10.58 1.76933 10.5869 1.76582 10.5971 1.76056C10.9562 1.57516 11.6304 1.19446 12.1109 0.72875C12.2053 0.637236 12.3066 0.599054 12.375 0.629099C12.469 0.670412 12.5959 0.886114 12.4751 1.43282L12.392 1.80889L12.6898 1.52884C12.7904 1.43482 12.984 1.30199 13.0947 1.30199ZM7.00915 9.00684H8.93802C10.0293 9.00684 10.9814 8.91471 11.7678 8.73292C12.4486 8.57548 12.9942 8.35243 13.3893 8.06975C13.883 7.71672 14.1471 7.26891 14.1743 6.73911C14.2034 6.16925 14.0186 5.14519 13.6798 3.99971L13.6434 3.87815C13.2694 2.56791 13.3789 2.06803 13.4442 1.7692C13.4864 1.57641 13.5169 1.43695 13.3871 1.23727C13.3139 1.12435 13.2104 1.09167 13.1366 1.08404C13.0111 1.07127 12.8788 1.12172 12.7675 1.18519C12.8029 0.796477 12.7056 0.528071 12.4872 0.432301C12.311 0.355059 12.1008 0.410643 11.925 0.581026C11.4734 1.01869 10.8351 1.38136 10.4848 1.56314C10.1568 1.51294 8.65726 1.28472 8.43782 1.28071C8.42897 1.28046 8.40971 1.27908 8.38132 1.27708C7.2323 1.19734 6.35181 1.31777 5.81576 1.43282C4.29249 1.75994 3.27987 2.48792 2.80603 3.59672L2.80389 3.60236L2.72156 3.8317C2.29765 5.03027 2.08292 5.98534 2.10018 6.59489C2.09876 6.62106 2.0979 6.64922 2.0979 6.68065C2.0979 6.98761 2.18037 7.29871 2.34288 7.60517L2.34445 7.60818C2.66577 8.17041 3.60205 8.50316 4.33101 8.68328C5.15115 8.88589 6.15234 9.00684 7.00915 9.00684Z" fill="#000072"/>
<path d="M1.88249 6.2453C1.94059 6.47859 2.34874 7.13792 3.45322 7.23014C4.85263 7.34667 5.82295 5.70369 5.64961 4.98769C5.48249 4.29861 4.39341 4.17604 4.11158 4.13467C3.24381 4.00736 1.95153 4.18422 1.86844 4.49065C1.74401 4.94893 1.77373 5.80551 1.88249 6.2453ZM7.39517 5.67784C7.39854 5.70535 7.40273 5.73368 7.40746 5.7626C7.5685 6.75859 8.48397 7.42515 9.44078 7.52437C10.1508 7.59786 11.571 7.35058 12.0012 6.01071C12.156 5.52848 12.1651 5.03084 12.0106 4.76413C11.7413 4.29921 10.944 4.16004 10.591 4.10646C10.5543 4.10089 10.5149 4.09567 10.4728 4.09152C9.74521 4.01755 8.33657 4.15731 7.85479 4.52977C7.85479 4.52977 7.28168 4.75974 7.39517 5.67784ZM1.55149 4.07291C1.65052 4.06923 1.77752 4.06698 2.02489 4.03154C2.71433 3.93232 3.72843 3.68445 4.90978 4.02858C5.47114 4.19216 5.93077 4.69786 6.41012 4.77373C6.93567 4.85659 7.18278 4.58667 7.642 4.31675C8.04367 4.0805 8.60786 3.84436 9.66277 3.8446C10.6108 3.84484 11.3206 4.00439 11.8924 4.09069C12.2196 4.14036 12.3425 4.13313 12.4758 4.1259C12.5439 4.12222 12.6148 4.11843 12.7172 4.12234C13.0542 4.13503 13.2978 4.28664 13.2721 4.61097C13.2429 4.97999 12.7338 5.02053 12.4871 5.51532C12.24 6.00988 12.1143 7.6512 9.83515 7.82487C9.83515 7.82487 8.51694 7.9587 7.6447 6.86978C7.09956 6.18923 6.83678 5.56428 6.4139 5.5401C6.02102 5.51758 5.86686 5.90118 5.46344 6.50443C4.40841 8.08198 2.34901 7.30388 1.87277 6.64277C1.39625 5.98214 1.7967 5.11264 1.41044 4.77159C1.00756 4.41585 1.24737 4.08382 1.55149 4.07291Z" fill="#000072"/>
<path d="M6.47658 7.22266C6.69702 7.22266 7.00505 7.18202 7.10552 7.14139C7.38904 7.02657 7.54072 6.90745 7.52971 6.72149C7.47948 6.65505 7.43165 6.58956 7.38599 6.5255C7.38588 6.52799 7.38577 6.53038 7.38566 6.53277C7.38555 6.53277 7.38556 6.53277 7.38556 6.53267C7.37695 6.67732 7.24543 6.77417 7.01246 6.86758C6.92431 6.90295 6.65419 6.93813 6.46035 6.93813C6.4428 6.93813 6.42591 6.93785 6.40979 6.93718C5.90006 6.91825 5.64138 6.83173 5.51313 6.72943C5.49297 6.71337 5.47608 6.69692 5.46191 6.68029C5.43489 6.64874 5.41789 6.61642 5.40743 6.58478C5.36276 6.64616 5.31645 6.70362 5.26872 6.75735C5.29171 6.94731 5.47826 7.187 6.42057 7.2217C6.43844 7.22227 6.45719 7.22266 6.47658 7.22266Z" fill="#B0939A"/>
<path d="M5.26884 6.75879C5.31657 6.70495 5.36289 6.64749 5.40757 6.5861C5.39558 6.54966 5.39242 6.514 5.39329 6.48139C5.3934 6.47604 5.39384 6.47049 5.39471 6.46475C5.39373 6.45299 5.39329 6.44152 5.39329 6.43023C5.31526 6.53331 5.26829 6.63037 5.26633 6.70075C5.26578 6.7193 5.26644 6.7388 5.26884 6.75879ZM7.52979 6.72284C7.52935 6.71499 7.52859 6.70696 7.52761 6.69893C7.5178 6.62272 7.45677 6.53742 7.3856 6.47766C7.38538 6.48206 7.38516 6.48655 7.38473 6.49095C7.38604 6.50329 7.38647 6.51524 7.38604 6.52691C7.43181 6.59088 7.47954 6.65638 7.52979 6.72284Z" fill="#000072"/>
<path d="M5.39301 6.48141C5.38846 6.65196 5.49269 6.90436 6.40959 6.93855C6.60375 6.94586 6.9161 6.9075 7.01221 6.86895C7.27228 6.76468 7.40616 6.65604 7.38321 6.48141C7.37077 6.38683 7.26741 6.27602 7.17682 6.23594C6.94922 6.13557 6.97725 6.13576 6.8937 6.03453C6.72724 5.83274 6.60603 5.79941 6.46468 5.77092C5.98079 5.6734 5.39929 6.24705 5.39301 6.48141Z" fill="#FF8E06"/>
<path d="M7.38533 6.47754C7.3863 6.45846 7.38554 6.43862 7.38327 6.41811C7.3797 6.38773 7.36877 6.35583 7.35308 6.32488C7.34627 6.33808 7.33848 6.35089 7.3296 6.36343C7.35633 6.39941 7.37591 6.43824 7.38219 6.47488C7.38327 6.47574 7.38424 6.47659 7.38533 6.47754ZM5.39293 6.43017C5.3979 6.42371 5.40288 6.41716 5.40807 6.4107C5.41597 6.38887 5.4269 6.36571 5.44032 6.3415C5.43285 6.32878 5.42647 6.31596 5.42095 6.30324C5.40342 6.34615 5.39368 6.38488 5.39303 6.41811C5.39303 6.4221 5.39293 6.42608 5.39293 6.43017Z" fill="#000072"/>
<path d="M7.38428 6.49023C7.38471 6.48587 7.38504 6.48141 7.38525 6.47694C7.38417 6.47599 7.3832 6.47514 7.38212 6.47429C7.38255 6.47647 7.38287 6.47856 7.3832 6.48065C7.38363 6.48387 7.38396 6.4871 7.38428 6.49023ZM5.39426 6.46403C5.39632 6.44732 5.40097 6.42929 5.408 6.41011C5.40281 6.41656 5.39783 6.42312 5.39285 6.42957C5.39285 6.44077 5.39329 6.45226 5.39426 6.46403Z" fill="#000072"/>
<path d="M6.46106 6.93945C6.65505 6.93945 6.92434 6.8993 7.01241 6.85914C7.22024 6.76441 7.34737 6.66635 7.37842 6.52927C7.34629 6.5119 7.28213 6.52728 7.26785 6.50364C7.25854 6.48826 7.24632 6.4744 7.2316 6.46168C7.17383 6.50563 7.10037 6.54636 7.01241 6.58661C6.92412 6.62676 6.65375 6.66682 6.45966 6.66682C6.44224 6.66682 6.42547 6.66644 6.40956 6.66578C6.00579 6.64869 5.75966 6.58338 5.61089 6.49918C5.55669 6.57635 5.52207 6.6485 5.51449 6.70327C5.64335 6.81918 5.90182 6.91686 6.40956 6.93831C6.4259 6.93907 6.44321 6.93945 6.46106 6.93945ZM5.3944 6.46538C5.39895 6.42969 5.41496 6.38745 5.44049 6.34169C5.44049 6.3416 5.44049 6.3416 5.44038 6.3416C5.42697 6.3658 5.41615 6.38897 5.40814 6.4108C5.40122 6.42998 5.39657 6.44801 5.3944 6.46472C5.3944 6.46491 5.3944 6.46519 5.3944 6.46538Z" fill="#B26327"/>
<path d="M7.18457 6.23828C7.18457 6.23819 7.18457 6.23819 7.18447 6.23819C7.18205 6.23699 7.17954 6.23589 7.17712 6.23469C6.94949 6.13437 6.97739 6.13437 6.894 6.0334C6.81427 5.93676 6.74493 5.87877 6.67885 5.84141C6.74483 5.87877 6.81417 5.93667 6.89379 6.03322C6.97729 6.13446 6.94938 6.13437 7.17691 6.23469C7.17943 6.23589 7.18205 6.23708 7.18457 6.23828ZM6.46485 5.76961C6.42751 5.76207 6.38964 5.75857 6.35156 5.75857C6.35104 5.75857 6.35062 5.75857 6.35009 5.75857C6.35051 5.75857 6.35103 5.75857 6.35145 5.75857C6.38953 5.75857 6.42751 5.76207 6.46485 5.76961Z" fill="#FDE2C9"/>
<path d="M7.32959 6.3623C7.29039 6.30956 7.23566 6.26296 7.18428 6.23819C7.18438 6.23828 7.18438 6.23828 7.18438 6.23828C7.23586 6.26305 7.29049 6.30965 7.32959 6.3623Z" fill="#5959A3"/>
<path d="M5.51287 6.72949C5.49283 6.71342 5.4758 6.69696 5.46168 6.68032C5.4758 6.69706 5.49283 6.71342 5.51287 6.72949ZM7.38542 6.53289C7.38553 6.53043 7.38563 6.52797 7.38574 6.52561L7.38553 6.52542C7.38553 6.52778 7.38542 6.53034 7.38531 6.5327C7.38531 6.5328 7.38531 6.5328 7.38542 6.53289Z" fill="#CCB9BD"/>
<path d="M7.38565 6.52637C7.38595 6.51472 7.38555 6.50282 7.38425 6.49047C7.38425 6.49064 7.38425 6.49082 7.38425 6.49099C7.38535 6.50308 7.38585 6.51472 7.38545 6.52619C7.38545 6.52628 7.38565 6.52637 7.38565 6.52637Z" fill="#5959A3"/>
<path d="M5.5129 6.72949V6.7199C5.51312 6.71411 5.51355 6.70813 5.51441 6.70196C5.42893 6.62496 5.40058 6.54008 5.39441 6.46412C5.39376 6.46963 5.39333 6.47485 5.39311 6.47998C5.39138 6.54084 5.40361 6.61214 5.46172 6.68031C5.47589 6.69693 5.49277 6.71345 5.5129 6.72949ZM7.38536 6.53267C7.38547 6.5303 7.38558 6.52783 7.38558 6.52536C7.38601 6.51397 7.38558 6.5022 7.38439 6.49014C7.38309 6.50315 7.38114 6.51568 7.37833 6.52802C7.38093 6.52935 7.3832 6.53096 7.38536 6.53267ZM5.61083 6.49783C5.77423 6.26503 6.1153 5.98475 6.43117 5.98475C6.48333 5.98475 6.53462 5.99244 6.58439 6.00906C6.68676 6.04352 6.7427 6.1509 6.81142 6.24404C6.8797 6.33652 7.12144 6.365 7.23159 6.46042C7.27207 6.42956 7.30496 6.39719 7.32974 6.36225C7.29057 6.30956 7.23592 6.26294 7.18452 6.23825C7.18193 6.23702 7.17944 6.23578 7.17684 6.23464C6.94928 6.13429 6.97719 6.13438 6.89366 6.03317C6.81412 5.93662 6.74476 5.8787 6.67875 5.84129C6.62335 5.81006 6.57011 5.79325 6.51503 5.78034C6.49847 5.77654 6.4817 5.77303 6.46471 5.76961C6.42738 5.76201 6.38951 5.7585 6.35131 5.7585C6.35098 5.7585 6.35044 5.7585 6.35001 5.7585C5.9756 5.75936 5.57534 6.09916 5.44051 6.34041C5.47297 6.39538 5.52599 6.44969 5.61083 6.49783Z" fill="#FFB55D"/>
<path d="M7.38232 6.47363C7.37598 6.43697 7.35645 6.39819 7.32977 6.36224C7.35645 6.39811 7.37588 6.43697 7.38222 6.47363C7.38232 6.47363 7.38232 6.47363 7.38232 6.47363Z" fill="#5959A3"/>
<path d="M7.38428 6.49023C7.38428 6.49006 7.38428 6.48988 7.38428 6.48971C7.38398 6.48655 7.38358 6.48331 7.38318 6.48007C7.38288 6.47805 7.38248 6.47595 7.38218 6.47375C7.38218 6.47375 7.38218 6.47376 7.38208 6.47367C7.38248 6.47586 7.38278 6.47805 7.38308 6.48015C7.38348 6.48357 7.38388 6.4869 7.38428 6.49023Z" fill="#5959A3"/>
<path d="M5.5144 6.70312C5.52198 6.64835 5.5566 6.57621 5.6108 6.49903C5.52598 6.4509 5.47286 6.3966 5.4404 6.34155C5.41487 6.3873 5.39885 6.42954 5.39431 6.46524C5.40048 6.54118 5.42882 6.62614 5.5144 6.70312ZM7.37833 6.52912C7.38103 6.51678 7.38309 6.50425 7.38428 6.49134C7.38395 6.48802 7.38363 6.4847 7.3832 6.48128C7.38287 6.47909 7.38255 6.47691 7.38211 6.47473C7.37584 6.43809 7.35636 6.39936 7.32964 6.36338C7.30486 6.39831 7.27208 6.43078 7.23151 6.46153C7.24622 6.47425 7.25845 6.48811 7.26775 6.50349C7.28204 6.52713 7.34619 6.51175 7.37833 6.52912Z" fill="#CD9972"/>
<path d="M6.35055 5.86913C6.37933 5.86913 6.40812 5.87171 6.43679 5.87745C6.54822 5.90003 6.64471 5.91945 6.79222 6.09843C6.80443 6.11316 6.81403 6.12569 6.82253 6.1366C6.88697 6.21983 6.91728 6.24403 7.12061 6.33366C7.18101 6.36035 7.25199 6.44253 7.25875 6.49351C7.26845 6.56803 7.25352 6.65059 6.96023 6.76825C6.89154 6.7958 6.60153 6.83483 6.41499 6.82804C5.81457 6.80566 5.51289 6.68971 5.51845 6.48337C5.52063 6.40321 5.66662 6.19381 5.8995 6.03501C5.99621 5.969 6.17218 5.86913 6.35055 5.86913ZM6.45652 7.04883C6.6519 7.04883 6.94759 7.01535 7.06457 6.96838C7.2896 6.87807 7.54342 6.73965 7.50788 6.46835C7.48956 6.32869 7.35382 6.19027 7.23324 6.13708C7.07046 6.06524 7.06664 6.06026 7.03001 6.01301C7.02031 6.00057 7.0094 5.98632 6.99534 5.96938C6.80781 5.74209 6.65692 5.69618 6.49294 5.66308C6.26551 5.61716 6.00014 5.68757 5.74556 5.86129C5.51202 6.02047 5.27292 6.28354 5.26769 6.47821C5.2582 6.83273 5.62999 7.01898 6.4043 7.04787C6.42066 7.04854 6.43821 7.04883 6.45652 7.04883Z" fill="#000072"/>
<path d="M7.46963 9.27539H12.1245L12.0785 8.1466L7.46963 8.10623L7.63067 8.86657L7.46963 9.27539Z" fill="white"/>
<path d="M7.2359 9.26147V12.8418H12.4814V8.89089L12.2473 9.47767L11.9704 9.46585L7.23842 9.26147H7.2359Z" fill="#2E65FF"/>
<path d="M7.23614 9.219V9.55859H11.6455C12.1054 9.55859 12.4814 9.22852 12.4814 8.82508V8.61558C12.4814 8.27701 12.1686 8.00237 11.7827 8.00237H7.38557C7.30465 8.00237 7.2342 8.06044 7.23624 8.13127C7.23711 8.16477 7.253 8.19504 7.27801 8.21706C7.30407 8.23993 7.34002 8.25396 7.37966 8.25396H11.5897C11.8093 8.25396 11.9889 8.4116 11.9889 8.60427V8.7364C11.9889 8.92924 11.8091 9.08687 11.5894 9.08687H7.38673C7.30349 9.08687 7.23614 9.14605 7.23614 9.219Z" fill="#2E65FF"/>
<path d="M10.129 9.5847C10.5344 9.62379 10.9397 9.63465 11.345 9.63995C11.4465 9.64149 11.5473 9.64278 11.6495 9.64286C11.7627 9.64355 11.876 9.62404 11.9813 9.58786C12.1927 9.51601 12.3707 9.37444 12.4726 9.19746C12.5237 9.10927 12.5573 9.01287 12.5686 8.91441C12.5715 8.88987 12.5719 8.86506 12.5734 8.84042C12.575 8.81502 12.5737 8.79509 12.574 8.77216L12.5734 8.63881C12.5738 8.61777 12.572 8.59151 12.5704 8.56662C12.57 8.54147 12.5637 8.51675 12.5597 8.49185C12.556 8.46696 12.5464 8.44301 12.5399 8.41855C12.5321 8.39434 12.5209 8.37107 12.5113 8.34747C12.467 8.25466 12.3988 8.17108 12.3143 8.10342C12.2299 8.03576 12.1286 7.98418 12.0192 7.95373C11.9916 7.94723 11.9639 7.94056 11.9358 7.93526C11.9076 7.93183 11.8793 7.92662 11.8508 7.92499C11.8232 7.92388 11.7917 7.92174 11.7671 7.922H11.6911H11.0831H8.6511H7.435H7.39698C7.38791 7.92191 7.36159 7.92208 7.34297 7.92542C7.3028 7.93158 7.26547 7.94714 7.23378 7.96896C7.20268 7.99128 7.17636 8.02028 7.16115 8.05475C7.14546 8.08897 7.14126 8.12849 7.14877 8.16364C7.16271 8.23601 7.22364 8.29845 7.30251 8.32189C7.32221 8.32788 7.34278 8.33155 7.36335 8.33275C7.36851 8.33318 7.37358 8.33318 7.37875 8.33327H7.3886H7.40761H7.48355H8.0916H10.5237H11.1316H11.4357H11.5877C11.6278 8.33344 11.666 8.33977 11.7024 8.35251C11.7751 8.37766 11.8364 8.42856 11.869 8.49083C11.8854 8.52196 11.8949 8.55567 11.8969 8.58988L11.8977 8.60271V8.61905V8.65241V8.71913V8.73581L11.8969 8.74864C11.8966 8.75728 11.8963 8.76583 11.8942 8.77422C11.8918 8.79124 11.8869 8.80792 11.8805 8.824C11.8677 8.85633 11.8477 8.88653 11.822 8.91253C11.7706 8.9648 11.6964 8.99876 11.6186 9.00517L9.19529 9.00645H7.97929L7.36198 9.00663C7.28009 9.01338 7.20434 9.05889 7.16836 9.12381C7.15881 9.13981 7.15257 9.15717 7.14779 9.17471C7.14604 9.18361 7.14399 9.1925 7.14331 9.2014C7.14263 9.21038 7.14214 9.22047 7.14214 9.22458L7.14126 9.29121C7.13961 9.38017 7.13883 9.46905 7.13892 9.55801L7.13902 9.64261L7.23612 9.64329C7.33527 9.64397 7.43451 9.64329 7.53376 9.64175C7.63291 9.6397 7.73215 9.63764 7.8314 9.63345C7.93054 9.62969 8.02979 9.62379 8.12903 9.61634C8.22818 9.60813 8.32733 9.59907 8.42658 9.5847C8.44334 9.58213 8.45465 9.56827 8.45192 9.55356C8.44968 9.54193 8.43925 9.5332 8.42658 9.53141C8.32733 9.51686 8.22818 9.5078 8.12903 9.49967C8.02979 9.49223 7.93054 9.48633 7.8314 9.48248C7.73215 9.47837 7.63291 9.47632 7.53376 9.47426C7.43451 9.47281 7.33527 9.47204 7.23612 9.47273L7.33322 9.55801C7.33342 9.46905 7.33254 9.38017 7.33098 9.29121L7.33 9.22458L7.3301 9.2144C7.33 9.21217 7.33069 9.21021 7.33078 9.20807C7.33205 9.20413 7.33273 9.19986 7.33527 9.19626C7.34326 9.18061 7.3613 9.16949 7.3805 9.16744C7.38401 9.16752 7.38333 9.1671 7.39025 9.16701H7.40926L7.44719 9.16675L7.52323 9.16624H7.67522H7.97929H9.19529H10.4113H11.0194H11.3233H11.4754H11.5513H11.5894L11.636 9.16419C11.7605 9.15401 11.8785 9.09978 11.9594 9.01723C12.0002 8.97609 12.032 8.9281 12.0523 8.87652C12.0627 8.85077 12.0704 8.82409 12.0745 8.79697C12.0773 8.78346 12.0782 8.76985 12.0788 8.75617L12.0798 8.73581V8.71913V8.65241V8.61905V8.60211L12.0788 8.58167C12.0756 8.52718 12.0603 8.47312 12.0341 8.42359C11.9819 8.32428 11.8856 8.24439 11.7697 8.2041C11.7121 8.18374 11.649 8.17357 11.5877 8.17357H11.4357H11.1316H10.5237H8.0916H7.48355H7.40761H7.3886H7.37933C7.37816 8.17348 7.37699 8.17357 7.37582 8.17339C7.37114 8.17314 7.36666 8.17237 7.36237 8.171C7.34482 8.16587 7.33088 8.1515 7.32796 8.13576C7.32484 8.11985 7.33117 8.10625 7.34755 8.09367C7.35574 8.08828 7.36549 8.08392 7.37524 8.08272C7.37758 8.0817 7.39659 8.0817 7.41619 8.0817C7.42262 8.0817 7.42905 8.08178 7.435 8.0817H8.6511H11.0831H11.6911H11.7671C11.7932 8.08153 11.8123 8.08358 11.8353 8.08418C11.8573 8.08529 11.8788 8.08965 11.9006 8.09205C11.9222 8.09615 11.9434 8.10137 11.9647 8.10616C12.0485 8.1296 12.1265 8.16929 12.1916 8.22147C12.2567 8.27356 12.3093 8.33789 12.3433 8.40922C12.3504 8.42744 12.3593 8.44524 12.3652 8.4638C12.3698 8.4827 12.3776 8.50092 12.3799 8.52025C12.3825 8.53941 12.3879 8.55832 12.3876 8.57774C12.3885 8.59724 12.3901 8.61529 12.3896 8.63881L12.389 8.77216C12.3885 8.79372 12.3896 8.81827 12.3879 8.83726C12.3861 8.85693 12.386 8.87678 12.3835 8.89637C12.3741 8.97498 12.3453 9.05111 12.3036 9.12082C12.2194 9.25991 12.0773 9.37153 11.9106 9.42807C11.8272 9.45613 11.7383 9.47153 11.6486 9.47281L11.345 9.47606C10.9397 9.48136 10.5344 9.49214 10.129 9.53141C10.1123 9.53294 10.1002 9.54629 10.102 9.56092C10.1036 9.57366 10.1151 9.58333 10.129 9.5847Z" fill="#000072"/>
<path d="M7.11076 12.9521H12.6069V8.84416C12.6069 8.78341 12.5508 8.73414 12.4814 8.73414C12.4122 8.73414 12.356 8.78341 12.356 8.84416V12.7321H7.36156V9.27724C7.36244 9.27227 7.36283 9.26704 7.36283 9.26181C7.36283 9.20106 7.30784 9.15179 7.2386 9.15179H7.1132L7.11076 9.28512V12.9521Z" fill="#000072"/>
<path d="M7.51019 9.16699C7.55082 9.16699 7.58781 9.14294 7.59826 9.10687C7.68144 8.8215 7.68144 8.51973 7.59826 8.23436C7.5859 8.19164 7.53645 8.16575 7.48758 8.17676C7.43889 8.18769 7.40947 8.23116 7.42193 8.27396C7.49754 8.53344 7.49754 8.80779 7.42193 9.06736C7.40947 9.11007 7.43889 9.15354 7.48758 9.16447C7.49515 9.16615 7.50272 9.16699 7.51019 9.16699Z" fill="#000072"/>
<path d="M6.77334 11.9043C6.86839 11.7175 6.98327 11.5401 7.11084 11.3731V11.0446C6.9146 11.2835 6.74303 11.5454 6.61788 11.8271C6.61788 11.8271 6.66842 11.86 6.77334 11.9043Z" fill="#B0939A"/>
<path d="M7.36144 11.0752C8.02874 10.3483 8.89107 9.86652 9.23077 9.73099C9.29661 9.70484 9.38543 9.69362 9.48963 9.69362C9.89518 9.69362 10.533 9.86399 10.952 9.99092C11.0626 10.0246 11.1777 10.0412 11.2921 10.0412C11.4912 10.0413 11.6885 9.99075 11.8579 9.89115C12.0838 9.75831 12.2441 9.6221 12.356 9.48927V9.35323C12.3545 9.35475 12.3531 9.35626 12.3516 9.35778L12.2833 9.52891L12.1332 9.52241C12.0851 9.54873 12.0342 9.57108 11.9813 9.58904C11.9395 9.60346 11.8963 9.61519 11.8525 9.62413C11.8256 9.64125 11.7976 9.65837 11.7685 9.67549C11.5991 9.7751 11.4017 9.82545 11.2026 9.82545C11.0882 9.82545 10.9732 9.80892 10.8625 9.77535C10.6665 9.7158 10.4226 9.6469 10.177 9.59039C10.1611 9.58887 10.145 9.58744 10.129 9.58592C10.1202 9.58499 10.1124 9.58086 10.1074 9.5747C10.0833 9.56939 10.0593 9.56425 10.0352 9.55927H9.03967C8.66979 9.72905 7.95405 10.1529 7.36144 10.7647V11.0752Z" fill="#2047D4"/>
<path d="M9.03963 9.55859H10.0352C9.80428 9.51047 9.57975 9.47719 9.40063 9.47719C9.29617 9.47719 9.20717 9.48848 9.14125 9.51477C9.1113 9.52674 9.07731 9.54135 9.03963 9.55859Z" fill="#2047D4"/>
<path d="M11.8525 9.62402C11.8963 9.6152 11.9395 9.60343 11.9812 9.58908C12.0342 9.57101 12.0851 9.54867 12.1332 9.5224L12.0064 9.51701C11.9595 9.5528 11.9083 9.58852 11.8525 9.62402ZM10.1771 9.59034C10.1538 9.58501 10.1306 9.57976 10.1074 9.57465C10.1124 9.58081 10.1201 9.58494 10.129 9.58585C10.145 9.5874 10.161 9.58887 10.1771 9.59034ZM12.3516 9.35775C12.3531 9.35621 12.3545 9.35474 12.356 9.3532V9.34669L12.3516 9.35775Z" fill="#000072"/>
<path d="M7.11077 11.373C7.18997 11.2694 7.27406 11.1699 7.36156 11.0746V10.7641C7.33139 10.7952 7.3016 10.8269 7.2721 10.8591C7.21683 10.9191 7.16292 10.9811 7.11077 11.0446V11.373ZM12.356 9.48864C12.4288 9.40243 12.481 9.3176 12.5176 9.23611V8.94151L12.356 9.34605V9.35256V9.48864Z" fill="#000072"/>
<path d="M8.53296 12.4576L8.47799 12.4076C8.42301 12.41 8.36944 12.4115 8.31717 12.4123L8.53296 12.4576ZM9.23073 9.79391C9.55258 9.6658 10.4249 9.89416 10.9516 10.0538C11.255 10.1458 11.5911 10.1107 11.8578 9.95399C12.9639 9.3039 12.4959 8.5713 12.4851 8.55478C12.5186 8.58123 14.3284 10.019 14.0634 12.2375C14.0162 12.6332 13.747 13.1878 13.2756 13.5511C13.2756 13.5511 13.4217 12.8001 13.3782 12.4361C13.2637 12.8758 12.9157 13.468 11.9063 13.79C11.9063 13.79 11.7376 13.1254 11.6946 12.907L11.6309 12.913C11.339 13.2119 10.7675 13.6082 9.74865 13.6929C9.74865 13.6929 9.86691 12.9843 9.8585 12.9108C9.89395 12.9067 9.9301 12.9022 9.96755 12.8968L9.95394 12.8945L9.8585 12.9105V12.9108C8.60196 13.0533 8.31687 12.4124 8.31687 12.4124C7.20252 12.4296 6.70683 12.1062 6.70683 12.1062C7.26671 10.8452 8.75698 9.98272 9.23073 9.79391Z" fill="#AD5832"/>
<path d="M11.899 13.7617H11.8991C11.8933 13.7385 11.8842 13.7026 11.873 13.6581V13.6581C11.8842 13.7026 11.8932 13.7386 11.899 13.7617ZM12.9952 13.139C12.9953 13.1389 12.9955 13.1388 12.9955 13.1387C13.1899 12.9248 13.2993 12.7006 13.3599 12.5018C13.2992 12.7007 13.1898 12.925 12.9952 13.139Z" fill="#793D45"/>
<path d="M11.873 13.6582V13.6581C11.859 13.602 11.8416 13.5322 11.8231 13.4573C11.8416 13.5323 11.859 13.602 11.873 13.6582Z" fill="#B0939A"/>
<path d="M11.9066 13.791C12.4245 13.6257 12.7683 13.3894 12.9958 13.139C12.9957 13.1391 12.9955 13.1392 12.9954 13.1393C12.768 13.3895 12.4243 13.6257 11.9066 13.7909C11.9066 13.7909 11.904 13.7805 11.8994 13.762H11.8993C11.9039 13.7806 11.9066 13.791 11.9066 13.791ZM13.276 13.552C13.3744 13.4761 13.4641 13.3918 13.5447 13.3024C13.4641 13.3917 13.3744 13.476 13.276 13.5519C13.276 13.5519 13.276 13.552 13.276 13.552ZM13.5448 13.3023C13.5448 13.3023 13.5449 13.3022 13.5449 13.3021C13.5448 13.3022 13.5448 13.3022 13.5448 13.3023Z" fill="#542B53"/>
<path d="M8.45676 12.409C8.46391 12.4087 8.47107 12.4084 8.4784 12.408H8.47831C8.47107 12.4084 8.46391 12.4087 8.45667 12.4089L8.45676 12.409Z" fill="#2047D4"/>
<path d="M11.9066 13.79C12.4242 13.6249 12.7678 13.3887 12.9953 13.1384C13.1899 12.9244 13.2993 12.7001 13.36 12.5012C13.3667 12.4792 13.3728 12.4574 13.3784 12.436C13.4217 12.7977 13.2778 13.541 13.2759 13.551C13.3743 13.4752 13.464 13.3909 13.5446 13.3016C13.5446 13.3015 13.5446 13.3015 13.5447 13.3015C13.5447 13.3014 13.5447 13.3013 13.5448 13.3012C13.85 12.9627 14.0262 12.5504 14.0634 12.2374C14.0828 12.0751 14.091 11.9169 14.0897 11.7634C13.9615 12.074 13.7361 12.4041 13.4195 12.648C13.4195 12.648 13.3972 12.1811 13.3539 11.8169C13.2392 12.2568 13.0596 12.565 12.0505 12.8871C12.0505 12.8871 12.2403 12.4123 12.1729 12.1007C12.1729 12.1007 11.2428 12.6647 10.2239 12.7494C10.2239 12.7494 9.38487 12.7262 9.6257 12.168C9.53198 12.1786 9.44015 12.1836 9.35023 12.1836C8.53931 12.1835 7.88931 11.782 7.50218 11.5327C7.32974 11.7346 7.17432 11.9536 7.04945 12.1879C6.87782 12.1334 6.77307 12.0802 6.72991 12.0559C6.7222 12.0726 6.71449 12.0894 6.70708 12.1062C6.70708 12.1062 7.17022 12.4084 8.20785 12.413C8.21526 12.3837 8.23629 12.3571 8.26843 12.3412C8.28786 12.3315 8.30909 12.3269 8.33002 12.3269C8.37368 12.3269 8.41614 12.347 8.43927 12.3828L8.44167 12.3866C8.44638 12.3939 8.45139 12.4012 8.45659 12.4085C8.4638 12.4083 8.47101 12.4079 8.47822 12.4076V12.4077H8.47832L8.52439 12.4497L8.5331 12.4576L8.5332 12.4577L8.48713 12.4481C8.51577 12.4823 8.54892 12.5155 8.58477 12.5456C8.61181 12.5711 8.64475 12.5918 8.67519 12.6144C8.69152 12.6248 8.70864 12.6344 8.72516 12.6445C8.74189 12.6545 8.75791 12.6654 8.77643 12.6733C8.81268 12.6897 8.84663 12.7097 8.88568 12.7224C8.92374 12.7365 8.96059 12.7533 9.00124 12.763C9.07975 12.788 9.16317 12.8032 9.24668 12.8187L9.37466 12.8339C9.39589 12.8372 9.41762 12.8377 9.43945 12.8385L9.50474 12.8417C9.53618 12.8444 9.56793 12.8452 9.59977 12.8452C9.65565 12.8452 9.71192 12.8425 9.7683 12.8419L9.80145 12.8411L9.83459 12.8383L9.90108 12.8336C9.94565 12.8307 9.99041 12.8291 10.0357 12.8284C10.0967 12.8241 10.158 12.8207 10.221 12.8207C10.2509 12.8207 10.281 12.8215 10.3118 12.8233L10.3126 12.8234C10.316 12.8236 10.3193 12.8253 10.3211 12.8282C10.324 12.8328 10.3222 12.8385 10.317 12.8411C10.2344 12.8814 10.1475 12.9122 10.0594 12.9402C10.0341 12.9465 10.0084 12.9526 9.9828 12.9583C9.97699 13.0258 9.96838 13.0873 9.95987 13.1503L9.93233 13.337L9.89608 13.5646C9.94715 13.5586 9.99832 13.5523 10.049 13.5448L10.2023 13.5152L10.279 13.5005C10.3045 13.4955 10.329 13.4873 10.3539 13.4809L10.5033 13.4403C10.5286 13.4344 10.5522 13.4248 10.5763 13.4164L10.6485 13.3906C10.7466 13.3596 10.8365 13.314 10.9284 13.2724C11.1054 13.178 11.2659 13.0656 11.4202 12.9469L11.4781 12.902L11.5334 12.8548C11.5728 12.8248 11.6064 12.7907 11.644 12.7587C11.7149 12.6926 11.7869 12.6229 11.8537 12.5522L11.8567 12.549C11.8646 12.5406 11.8765 12.5355 11.8893 12.5355C11.8921 12.5355 11.8949 12.5358 11.8977 12.5363C11.9207 12.5403 11.9356 12.5599 11.931 12.5801C11.9075 12.6831 11.8602 12.7741 11.8036 12.8623C11.7747 12.9042 11.7453 12.9466 11.7114 12.9856C11.739 13.111 11.7836 13.2957 11.8232 13.4566C11.8417 13.5316 11.8591 13.6014 11.8732 13.6575C11.8843 13.7021 11.8934 13.738 11.8992 13.7612C11.9038 13.7797 11.9066 13.79 11.9066 13.79Z" fill="#793D45"/>
<path d="M12.5207 8.62109C12.5025 8.58103 12.4875 8.55759 12.4856 8.55467L12.4855 8.5546C12.4873 8.55729 12.5023 8.58081 12.5207 8.62109ZM12.5376 8.59788C12.5182 8.58125 12.5037 8.56927 12.4949 8.56216C12.5037 8.56927 12.5181 8.58125 12.5376 8.59788Z" fill="#000072"/>
<path d="M12.5216 8.62305C12.5272 8.61541 12.5332 8.60807 12.5386 8.60051C12.5382 8.59961 12.538 8.59871 12.5375 8.59781C12.5181 8.58119 12.5038 8.5692 12.4949 8.56209C12.4899 8.55805 12.4869 8.55557 12.4856 8.5546C12.4874 8.55752 12.5025 8.58096 12.5207 8.62102C12.521 8.6217 12.5212 8.62237 12.5216 8.62305Z" fill="#793D45"/>
<path d="M6.7298 12.0566C6.75203 12.0091 6.77556 11.9621 6.80029 11.9157C6.79078 11.912 6.78167 11.9082 6.77296 11.9045C6.74972 11.9502 6.72769 11.9963 6.70696 12.0432C6.70696 12.0432 6.71447 12.0481 6.7298 12.0566Z" fill="#FDE0C5"/>
<path d="M13.354 9.46289C13.2493 9.30871 13.143 9.17128 13.0424 9.0518C13.08 9.11043 13.1166 9.16934 13.1524 9.22883C13.2161 9.29837 13.2841 9.37653 13.354 9.46289Z" fill="#98F4EE"/>
<path d="M13.1523 9.22754C13.1166 9.16816 13.0799 9.10916 13.0424 9.0506C12.8804 8.85801 12.7331 8.71192 12.6305 8.61737C12.6677 8.67265 12.7041 8.7289 12.7398 8.78575C12.8221 8.86732 12.9193 8.96991 13.0232 9.09172C13.0635 9.13255 13.1068 9.17785 13.1523 9.22754Z" fill="#4D4D9D"/>
<path d="M12.7397 8.78613C12.704 8.72926 12.6675 8.67306 12.6304 8.61775C12.6081 8.5971 12.5878 8.57891 12.57 8.5632C12.5701 8.56454 12.5702 8.56581 12.5702 8.56709C12.5715 8.58834 12.5731 8.61064 12.5733 8.62973C12.6162 8.66789 12.6732 8.7202 12.7397 8.78613Z" fill="#4D4D9D"/>
<path d="M12.5732 8.62988C12.5731 8.61076 12.5715 8.58848 12.5702 8.56725C12.5702 8.56597 12.5701 8.56469 12.5701 8.56334C12.5199 8.51907 12.4892 8.49468 12.4851 8.49145C12.4874 8.49506 12.5121 8.5336 12.5372 8.59849C12.5378 8.59902 12.5384 8.59947 12.539 8.60007C12.5491 8.60873 12.5605 8.61874 12.5732 8.62988Z" fill="#4D4D9D"/>
<path d="M12.5175 9.30078C12.5793 9.16309 12.5966 9.03476 12.5921 8.92467C12.5884 9.01937 12.5678 9.12489 12.5175 9.23665V9.30078Z" fill="#4D4D9D"/>
<path d="M6.80018 11.915C6.83618 11.8477 6.87468 11.7814 6.91527 11.7166C6.91547 11.7164 6.91557 11.7161 6.91577 11.716C6.91617 11.7153 6.91667 11.7145 6.91707 11.7139C6.97701 11.6184 7.04183 11.5259 7.11035 11.4363V11.3725C6.98269 11.5395 6.8679 11.717 6.77285 11.9038C6.78163 11.9074 6.7907 11.9112 6.80018 11.915Z" fill="#C8B4B8"/>
<path d="M7.36144 11.1387C8.02874 10.4119 8.89126 9.93 9.23096 9.79463C9.29681 9.76849 9.38572 9.7571 9.49002 9.7571C9.89547 9.7571 10.533 9.92747 10.9519 10.0545C11.0625 10.0881 11.1776 10.1047 11.292 10.1047C11.4912 10.1047 11.6887 10.0542 11.858 9.95471C12.0839 9.82196 12.2441 9.68583 12.356 9.55291V9.4889C12.2441 9.62173 12.0838 9.75794 11.8579 9.89078C11.6885 9.99038 11.4912 10.0409 11.2921 10.0408C11.1777 10.0408 11.0626 10.0242 10.952 9.99055C10.533 9.86362 9.89518 9.69325 9.48963 9.69325C9.38543 9.69325 9.29661 9.70447 9.23077 9.73062C8.89107 9.86615 8.02874 10.3479 7.36144 11.0748V11.1387Z" fill="#637FE1"/>
<path d="M7.11077 11.4375C7.11438 11.4327 7.11809 11.4279 7.1218 11.4231C7.19778 11.3247 7.27816 11.23 7.36156 11.1391V11.0753C7.27406 11.1706 7.18997 11.2701 7.11077 11.3737V11.4375ZM12.356 9.55335C12.4287 9.46723 12.481 9.3824 12.5176 9.30091V9.23681C12.481 9.3183 12.4288 9.40313 12.356 9.48934V9.55335Z" fill="#4D4D9D"/>
<path d="M6.73014 12.0566C6.78464 11.9401 6.84704 11.8268 6.91574 11.7174C6.87504 11.7821 6.83654 11.8484 6.80054 11.9158C6.77584 11.9622 6.75234 12.0091 6.73014 12.0566ZM6.91614 11.7167C6.91654 11.716 6.91704 11.7153 6.91754 11.7146C6.91704 11.7153 6.91654 11.7161 6.91614 11.7167ZM7.50233 11.5333C8.18132 10.7382 9.1216 10.2095 9.4802 10.0665C9.5461 10.0403 9.63479 10.0291 9.73899 10.0291C10.1444 10.0291 10.7822 10.1995 11.2013 10.3265C11.312 10.3601 11.4269 10.3767 11.5413 10.3767C11.7405 10.3767 11.9379 10.3262 12.1074 10.2266C13.2134 9.57655 12.7453 8.84384 12.7346 8.82761C12.7429 8.83401 12.8581 8.92543 13.0234 9.09249C12.9196 8.97062 12.8224 8.86805 12.74 8.78646C12.6735 8.72056 12.6166 8.66827 12.5735 8.6301C12.5609 8.61896 12.5494 8.60896 12.5393 8.60027C12.5391 8.60071 12.5388 8.60106 12.5385 8.6015C12.5678 8.67792 12.5973 8.79014 12.5922 8.92438C12.5967 9.03449 12.5794 9.16277 12.5176 9.30043C12.481 9.38194 12.4287 9.46678 12.3561 9.55294C12.2442 9.68578 12.0841 9.82195 11.8582 9.9547C11.6888 10.0542 11.4914 10.1047 11.2921 10.1047C11.1777 10.1047 11.0627 10.0881 10.9521 10.0545C10.5331 9.9275 9.89559 9.75711 9.4902 9.75711C9.3859 9.75711 9.2969 9.76843 9.2311 9.79467C8.89141 9.93005 8.02882 10.4119 7.36163 11.1387C7.27813 11.2296 7.19784 11.3243 7.12184 11.4227C7.14174 11.3969 7.16194 11.3713 7.18254 11.3461C7.24843 11.3674 7.35693 11.4396 7.50233 11.5333Z" fill="#C68A70"/>
<path d="M6.9153 11.7178C6.9155 11.7175 6.9156 11.7173 6.9157 11.7171C6.9156 11.7173 6.9154 11.7176 6.9153 11.7178ZM6.91708 11.715C6.97709 11.6196 7.04184 11.5271 7.11035 11.4374C7.04184 11.527 6.97709 11.6196 6.91708 11.715Z" fill="#A395B0"/>
<path d="M7.11055 11.4375C7.11416 11.4328 7.11787 11.4278 7.12158 11.4231C7.11787 11.4279 7.11416 11.4327 7.11055 11.4375Z" fill="#4D4D9D"/>
<path d="M7.04926 12.1885C7.17416 11.9541 7.32956 11.7351 7.50195 11.5331C7.35656 11.4394 7.24806 11.3672 7.18216 11.3459C7.16156 11.3712 7.14136 11.3967 7.12146 11.4225C7.11776 11.4272 7.11406 11.4321 7.11036 11.4369C7.04186 11.5265 6.97716 11.6189 6.91716 11.7144C6.91666 11.7151 6.91616 11.7158 6.91576 11.7165C6.91556 11.7168 6.91556 11.7169 6.91536 11.7172C6.84666 11.8266 6.78427 11.9399 6.72977 12.0565C6.77287 12.0807 6.87756 12.1339 7.04926 12.1885Z" fill="#A1787D"/>
<path d="M12.5383 8.60059C12.5386 8.60021 12.5389 8.59984 12.5391 8.59939C12.5385 8.59887 12.5379 8.59835 12.5373 8.59782C12.5376 8.59872 12.5379 8.59962 12.5383 8.60059Z" fill="#A1787D"/>
<path d="M9.57284 12.2523C9.45 12.2619 9.32848 12.274 9.20756 12.2867L8.8439 12.3113L8.66252 12.3171L8.57213 12.3211C8.54201 12.322 8.51188 12.3211 8.48165 12.3212L8.30128 12.3204C8.24133 12.3198 8.18158 12.316 8.12183 12.314C7.88313 12.3019 7.64594 12.2779 7.41634 12.2317C7.35983 12.2182 7.3024 12.2066 7.24629 12.1924C7.19099 12.1762 7.13407 12.163 7.08069 12.1437C7.02609 12.1266 6.97372 12.106 6.92196 12.0851C6.89719 12.0736 6.871 12.0631 6.84744 12.051C6.82449 12.0399 6.7975 12.0254 6.78345 12.0167L6.82652 12.148C6.93712 11.9108 7.07947 11.6847 7.24548 11.4716L7.37469 11.3144L7.5138 11.1633L7.54868 11.1256L7.58579 11.0895L7.66 11.0172C7.68487 10.9932 7.70893 10.9685 7.73451 10.945L7.81256 10.8758C8.02012 10.6905 8.24345 10.5183 8.47932 10.3605C8.53907 10.322 8.59771 10.2821 8.65848 10.245C8.71964 10.2087 8.77929 10.1697 8.84177 10.1355L8.93479 10.0828C8.96593 10.0656 8.99767 10.0495 9.02901 10.0329C9.06046 10.0161 9.092 9.99977 9.12385 9.98496C9.15569 9.97032 9.18754 9.9532 9.21908 9.94043L9.2666 9.92003L9.29026 9.90991L9.30745 9.9053C9.32736 9.89723 9.3583 9.89421 9.38641 9.88933C9.44818 9.88419 9.51521 9.88286 9.58517 9.88809C9.72449 9.89696 9.86886 9.91985 10.012 9.9477C10.2994 10.0043 10.5857 10.0818 10.8685 10.167C11.0285 10.2157 11.2038 10.2376 11.3751 10.2263C11.5467 10.215 11.7158 10.1722 11.8682 10.101L11.9245 10.0729C11.9429 10.0628 11.9608 10.0522 11.9788 10.0418C12.0134 10.0209 12.0437 9.99933 12.0763 9.97804L12.1243 9.94611L12.1484 9.93005L12.1711 9.91231L12.2621 9.8409C12.3794 9.74119 12.4888 9.63031 12.5733 9.50097C12.6563 9.37164 12.7164 9.22616 12.7342 9.07465C12.7527 8.92322 12.7349 8.76941 12.68 8.62481L12.669 8.59767L12.6635 8.58419C12.6614 8.5794 12.6675 8.59306 12.6682 8.5974C12.6697 8.60343 12.6715 8.61177 12.6717 8.61914C12.6726 8.63448 12.6697 8.65116 12.663 8.66597C12.6498 8.69587 12.6256 8.71663 12.5971 8.7286C12.5692 8.74067 12.5305 8.74404 12.496 8.73277C12.4789 8.72736 12.4643 8.71902 12.4534 8.7105C12.445 8.70341 12.4508 8.7082 12.4503 8.70784L12.4526 8.70997L12.4622 8.71849C12.4877 8.74084 12.5132 8.76391 12.5381 8.78741C12.5883 8.83407 12.6373 8.88224 12.685 8.9313C12.7806 9.0295 12.8718 9.13142 12.9581 9.23636C13.3035 9.65639 13.5738 10.1245 13.7439 10.6186C13.8274 10.866 13.8854 11.1196 13.9183 11.3757C13.9493 11.632 13.9529 11.8907 13.9289 12.148C13.9256 12.1797 13.9242 12.2136 13.9194 12.2434C13.9153 12.2735 13.9108 12.3036 13.9039 12.3339C13.8922 12.3944 13.8743 12.4548 13.855 12.5149C13.8152 12.635 13.7612 12.7525 13.6973 12.8652C13.569 13.0905 13.398 13.2983 13.1868 13.4634L13.4083 13.572C13.4258 13.477 13.4409 13.3844 13.4542 13.2902C13.4678 13.1964 13.4797 13.1022 13.4894 13.0075C13.4993 12.9129 13.5071 12.8178 13.5106 12.7214C13.5139 12.6247 13.5153 12.528 13.5028 12.4251C13.4955 12.3646 13.4336 12.3209 13.3648 12.3274C13.2965 12.3338 13.247 12.3871 13.2533 12.4469L13.2534 12.4481C13.2622 12.5314 13.2599 12.6221 13.2551 12.7121C13.2502 12.8024 13.2411 12.8937 13.2299 12.9851C13.2189 13.0765 13.2057 13.168 13.1909 13.2594C13.176 13.3505 13.1603 13.4428 13.1429 13.5322L13.0788 13.8604L13.3645 13.6409C13.6082 13.4535 13.7999 13.2234 13.9449 12.9748C14.017 12.85 14.0783 12.7205 14.1244 12.5855C14.147 12.5178 14.1679 12.4495 14.1824 12.3791C14.1906 12.3442 14.1964 12.3086 14.2016 12.2727C14.2075 12.2366 14.2091 12.204 14.2131 12.1695C14.2412 11.897 14.2402 11.6219 14.2099 11.349C14.1788 11.0762 14.1149 10.8068 14.0273 10.5443C13.8476 10.0196 13.5628 9.52608 13.1997 9.08352C13.1088 8.97281 13.0129 8.86539 12.9118 8.76124C12.8613 8.70917 12.8094 8.65808 12.7556 8.60796C12.7289 8.58286 12.7017 8.55811 12.6737 8.53345L12.6633 8.52431L12.6607 8.522L12.6524 8.51499C12.6379 8.50373 12.6192 8.49308 12.5978 8.48643C12.5544 8.47224 12.5055 8.47614 12.469 8.49184C12.432 8.50736 12.4009 8.53451 12.3841 8.57212C12.3759 8.59084 12.3721 8.61169 12.3733 8.6312C12.3739 8.6406 12.3755 8.65107 12.3779 8.65905C12.3792 8.66544 12.3858 8.68114 12.3847 8.6783L12.3886 8.68824L12.3967 8.70811C12.4375 8.81589 12.4507 8.93236 12.4367 9.04537C12.4235 9.15874 12.3782 9.26856 12.313 9.37066C12.2463 9.47259 12.1557 9.56458 12.0558 9.64956L11.9771 9.71103L11.9576 9.72638L11.9363 9.74048L11.8938 9.76869C11.8656 9.78697 11.8368 9.80746 11.8092 9.82413L11.7683 9.84746L11.7259 9.86884C11.611 9.92304 11.4832 9.95613 11.3526 9.96544C11.2215 9.97423 11.0908 9.95888 10.9642 9.92118C10.6735 9.83513 10.3794 9.75654 10.0748 9.69781C9.92225 9.66898 9.76746 9.64459 9.60448 9.63474C9.5234 9.62916 9.43827 9.63004 9.34951 9.63838C9.3032 9.64583 9.25841 9.65071 9.20796 9.66836L9.17136 9.68007L9.14407 9.69187L9.08947 9.71547C9.05247 9.7309 9.01961 9.74864 8.98453 9.76514C8.94955 9.78164 8.91598 9.79921 8.88272 9.81713C8.84936 9.83496 8.81549 9.85225 8.78273 9.8707L8.68507 9.92668C8.55535 10.0016 8.43059 10.0822 8.30775 10.1649C8.06339 10.3314 7.83227 10.5129 7.61693 10.7085L7.53605 10.7817C7.50956 10.8065 7.48448 10.8325 7.4586 10.8578L7.38156 10.9344L7.34314 10.9727L7.30675 11.0126L7.16177 11.1729L7.0268 11.3402C6.8531 11.5674 6.70337 11.8099 6.58711 12.0662L6.55 12.1483L6.63028 12.1975C6.66627 12.2197 6.69245 12.2324 6.72299 12.2473C6.75261 12.2621 6.78223 12.2738 6.81196 12.2871C6.87171 12.3109 6.93166 12.3336 6.99263 12.3523C7.05298 12.3734 7.11496 12.3875 7.17633 12.4048C7.238 12.4198 7.30018 12.4323 7.36225 12.4456C7.61167 12.4931 7.86513 12.5095 8.11627 12.5085C8.17905 12.5075 8.24194 12.5085 8.30442 12.5058L8.49156 12.4925C8.5226 12.4901 8.55384 12.4886 8.58477 12.4853L8.67748 12.4743L8.8623 12.45C8.98473 12.4308 9.10575 12.4058 9.22657 12.3825C9.34607 12.353 9.46496 12.3228 9.58254 12.29C9.59417 12.2868 9.60064 12.2759 9.5969 12.2657C9.59377 12.2568 9.58406 12.2515 9.57395 12.2522L9.57284 12.2523Z" fill="#000072"/>
<path d="M8.21839 12.4873C8.26838 12.573 8.33257 12.6441 8.40696 12.7067C8.44302 12.7392 8.48436 12.7655 8.52406 12.7936C8.54463 12.8067 8.5664 12.8182 8.58761 12.8303C8.60901 12.8421 8.62995 12.8549 8.65271 12.8642C8.74122 12.9063 8.83418 12.9399 8.92924 12.9627L9.00062 12.9795C9.01246 12.9821 9.0243 12.9853 9.03622 12.9875L9.07228 12.9928C9.12045 12.9992 9.16843 13.0073 9.21651 13.0114L9.36055 13.0193C9.40854 13.0225 9.45607 13.0183 9.5036 13.0175C9.59911 13.0174 9.69225 13.0033 9.78567 12.9943C9.80898 12.9923 9.8322 12.9891 9.85496 12.9843L9.92353 12.9711C9.96914 12.962 10.0144 12.9516 10.0592 12.9404C10.1473 12.9125 10.2342 12.8817 10.3168 12.8413C10.322 12.8388 10.3238 12.833 10.3209 12.8284C10.3191 12.8256 10.3158 12.8238 10.3123 12.8236L10.3116 12.8236C10.2162 12.8179 10.1254 12.8224 10.0355 12.8286C9.99018 12.8294 9.94538 12.831 9.90095 12.8339L9.83439 12.8385L9.80124 12.8413L9.7681 12.8422C9.67969 12.8431 9.59146 12.8493 9.50451 12.842L9.43922 12.8388C9.41746 12.838 9.3957 12.8374 9.37439 12.8342L9.24646 12.819C9.16297 12.8035 9.07957 12.7883 9.00099 12.7632C8.96038 12.7536 8.9235 12.7368 8.88544 12.7227C8.84647 12.7099 8.81242 12.69 8.77618 12.6736C8.7577 12.6656 8.74167 12.6547 8.72492 12.6448C8.70835 12.6346 8.69123 12.625 8.67502 12.6147C8.64452 12.592 8.61156 12.5714 8.58452 12.5459C8.52752 12.4981 8.47726 12.4422 8.44147 12.3869L8.43901 12.383C8.40487 12.3301 8.32839 12.3115 8.2682 12.3414C8.20947 12.3706 8.18798 12.4351 8.21839 12.4873Z" fill="#000072"/>
<path d="M13.3808 11.8865C13.3526 12.0898 13.3065 12.2883 13.237 12.4753C13.2023 12.569 13.1614 12.6602 13.1145 12.7487C13.0684 12.8376 13.0142 12.9234 12.9503 13.0038C12.8867 13.0842 12.8143 13.1598 12.7326 13.2274L12.7026 13.2534L12.6708 13.2776C12.6495 13.2937 12.6287 13.3104 12.607 13.3261C12.5619 13.3558 12.5191 13.3881 12.4714 13.4149C12.2853 13.5279 12.0794 13.6176 11.8634 13.6867L12.0288 13.7662L11.9178 13.3199L11.8644 13.0968C11.8472 13.0228 11.8299 12.9478 11.8158 12.8762L11.8155 12.875C11.8037 12.8151 11.7389 12.7749 11.6706 12.7853C11.6024 12.7956 11.5566 12.8525 11.5684 12.9124C11.5839 12.9912 11.6012 13.0656 11.6188 13.1411L11.6726 13.3659L11.7839 13.814L11.8144 13.9365L11.9492 13.8935C12.1819 13.8191 12.4075 13.7213 12.6145 13.5956C12.6673 13.5658 12.7155 13.5298 12.7658 13.4965C12.7901 13.4788 12.8136 13.4603 12.8374 13.4421L12.8731 13.4147L12.9071 13.3855C12.999 13.3092 13.0811 13.2236 13.1576 13.1346C13.2338 13.0453 13.3023 12.9501 13.3568 12.8489C13.4114 12.7478 13.4528 12.6414 13.4804 12.5328C13.5082 12.4243 13.5216 12.3134 13.5199 12.2031C13.518 12.0925 13.5041 11.9838 13.4635 11.8761C13.4561 11.8566 13.4322 11.846 13.41 11.8525C13.3939 11.8571 13.3831 11.8694 13.3812 11.8832L13.3808 11.8865Z" fill="#000072"/>
<path d="M11.854 12.5533C11.7871 12.6241 11.7152 12.6938 11.6443 12.7598C11.6067 12.7919 11.573 12.8259 11.5337 12.856L11.4783 12.9031L11.4206 12.948C11.2662 13.0667 11.1058 13.1791 10.9287 13.2735C10.8368 13.3151 10.7469 13.3607 10.6488 13.3918L10.5766 13.4175C10.5525 13.4259 10.5289 13.4355 10.5036 13.4414L10.3542 13.4821C10.3293 13.4884 10.3048 13.4966 10.2793 13.5016L10.2026 13.5163L10.0493 13.5459C9.94603 13.5613 9.84132 13.5713 9.73736 13.5845L9.87329 13.71L9.93268 13.3381L9.96012 13.1514C9.96877 13.0884 9.97725 13.0269 9.9831 12.9595C9.98829 12.8989 9.93664 12.8461 9.8676 12.8414C9.79849 12.8368 9.73827 12.8822 9.73299 12.9428V12.9428L9.73283 12.9447C9.72789 13.0015 9.71957 13.0638 9.71116 13.1247L9.68414 13.3089L9.62516 13.6781L9.60193 13.8232L9.761 13.8036C9.87222 13.7898 9.98392 13.7789 10.0948 13.7624L10.26 13.7305L10.3426 13.7145C10.3701 13.7091 10.3968 13.7004 10.4239 13.6935L10.586 13.6493C10.6134 13.6427 10.6393 13.6323 10.6657 13.6232L10.7445 13.5951C10.8514 13.561 10.9504 13.5108 11.0534 13.468L11.201 13.3916L11.238 13.3726L11.2733 13.351L11.3434 13.3073C11.3908 13.279 11.4346 13.2463 11.4771 13.2122L11.5408 13.1615L11.5995 13.106C11.619 13.0874 11.6385 13.069 11.6569 13.0497L11.7093 12.9895C11.7443 12.9497 11.7743 12.9063 11.804 12.8634C11.8606 12.7752 11.9078 12.6842 11.9313 12.5813C11.9358 12.5611 11.921 12.5415 11.898 12.5374C11.8822 12.5346 11.8667 12.54 11.857 12.5501L11.854 12.5533Z" fill="#000072"/>
<path d="M11.5415 8.48507C11.2357 8.47838 10.9299 8.47536 10.6241 8.47274L9.70674 8.46907L8.78917 8.47274L8.33053 8.47723L7.87179 8.48507L8.33053 8.49282L8.78917 8.4973L9.70674 8.50098L10.6241 8.49722C10.9299 8.49469 11.2357 8.49167 11.5415 8.48507Z" fill="#000072"/>
<path d="M11.5415 8.84346C11.2357 8.83694 10.9299 8.83375 10.6241 8.83123L9.70674 8.82755L8.78917 8.83123L8.33053 8.83563L7.87179 8.84346L8.33053 8.8513L8.78917 8.85579L9.70674 8.85938L10.6241 8.8557C10.9299 8.85317 11.2357 8.85007 11.5415 8.84346Z" fill="#000072"/>
<path d="M11.5415 8.66475C11.2357 8.65814 10.9299 8.65504 10.6241 8.65251L9.70674 8.64876L8.78917 8.65243L8.33053 8.65692L7.87179 8.66475L8.33053 8.67259L8.78917 8.67707L9.70674 8.68066L10.6241 8.67699C10.9299 8.67446 11.2357 8.67128 11.5415 8.66475Z" fill="#000072"/>
<path d="M8.80093 14.001C9.03263 13.7409 9.40959 12.908 8.69589 12.7267C8.15667 12.5898 7.95862 13.506 8.02852 13.8658L8.80093 14.001Z" fill="#FF8E06"/>
<path d="M8.07103 13.2954C8.07103 13.2954 7.75165 12.8734 7.35377 13.1372C7.05546 13.3351 7.25822 13.8468 7.54683 14.2488C7.70863 14.4743 7.78977 14.7371 7.78732 15.0035C7.78497 15.2503 7.86082 15.5218 8.2002 15.5388C8.59475 15.5586 8.76968 15.3323 8.85503 15.1132C8.94872 14.8727 9.11179 14.6568 9.33004 14.4897C9.63041 14.2597 9.97704 13.904 9.83307 13.5628C9.6016 13.0145 9.09366 13.3925 9.09366 13.3925L8.07103 13.2954Z" fill="#FF8E06"/>
<path d="M7.86947 15.364C7.84136 15.3193 7.82185 15.2688 7.80896 15.2154H7.80887C7.82175 15.2688 7.84127 15.3193 7.86938 15.364H7.86947Z" fill="#B0939A"/>
<path d="M7.80908 15.2148C7.79262 15.1467 7.78692 15.0741 7.78757 15.0035C7.78767 14.987 7.78757 14.9705 7.78701 14.9541C7.78739 14.9726 7.78748 14.9894 7.78739 15.0036C7.78673 15.0741 7.79253 15.1468 7.80899 15.2148H7.80908Z" fill="#7B678E"/>
<path d="M8.2479 15.54C8.45484 15.54 8.59705 15.4689 8.69629 15.3685H8.6962C8.59705 15.4689 8.45475 15.54 8.24781 15.54C8.23237 15.54 8.21647 15.5395 8.20028 15.5388C8.03399 15.5304 7.93103 15.461 7.86946 15.3634H7.86937C7.93094 15.4611 8.03408 15.5305 8.20038 15.5388C8.21656 15.5397 8.23247 15.54 8.2479 15.54Z" fill="#000072"/>
<path d="M9.16361 14.6377C9.3101 14.5381 9.39882 14.4534 9.38598 14.4534C9.38164 14.4534 9.36522 14.4634 9.33502 14.4863C9.33341 14.4875 9.33179 14.4888 9.33017 14.49C9.27046 14.5358 9.21482 14.5851 9.16361 14.6377Z" fill="#7B678E"/>
<path d="M8.24786 15.54C8.45484 15.54 8.5971 15.4689 8.69622 15.3686C8.70476 15.3601 8.71292 15.3513 8.7207 15.3423C8.78138 15.273 8.82405 15.1926 8.855 15.1131C8.92308 14.9385 9.02764 14.7769 9.16344 14.6375C9.13258 14.6585 9.0991 14.6801 9.06337 14.7018C8.85884 14.8263 8.58303 14.9507 8.31398 14.9507C8.30873 14.9507 8.30347 14.9506 8.29822 14.9505C7.93623 14.9439 7.8267 14.6623 7.74333 14.4994C7.76996 14.5971 7.7844 14.8222 7.78684 14.9541C7.7874 14.9705 7.7875 14.987 7.7874 15.0035C7.78675 15.0741 7.79247 15.1468 7.80897 15.2149C7.82182 15.2682 7.84133 15.3188 7.86946 15.3634C7.93107 15.4611 8.03404 15.5305 8.20032 15.5388C8.21654 15.5396 8.23239 15.54 8.24786 15.54ZM9.16344 14.6375C9.16353 14.6374 9.16362 14.6374 9.16362 14.6373C9.21473 14.5847 9.27044 14.5354 9.33008 14.4897C9.33177 14.4884 9.33337 14.4872 9.33496 14.4859C9.33346 14.4871 9.33187 14.4883 9.33027 14.4895C9.27044 14.5354 9.21473 14.5848 9.16344 14.6375Z" fill="#B26327"/>
<path d="M7.74365 14.6621C7.72887 14.6068 7.71043 14.5523 7.68746 14.4993C7.69941 14.5565 7.7172 14.6113 7.74365 14.6621Z" fill="#EF8B01"/>
<path d="M9.09478 13.3867C9.10155 13.3497 9.1063 13.3128 9.1084 13.2762C9.1063 13.3127 9.10155 13.3497 9.09478 13.3865C9.09478 13.3866 9.09478 13.3866 9.09478 13.3867ZM8.13564 13.1062C8.15903 13.0513 8.18589 12.9993 8.21632 12.9522H8.21623C8.1858 12.9993 8.15894 13.0513 8.13564 13.1062Z" fill="#FDE0C5"/>
<path d="M8.2167 12.9521H8.21679C8.27922 12.8557 8.35656 12.7798 8.44971 12.7413C8.44962 12.7413 8.44962 12.7412 8.44962 12.7412C8.35637 12.7797 8.27904 12.8557 8.2167 12.9521Z" fill="#4D4D9D"/>
<path d="M8.97803 12.877C8.91336 12.8113 8.82149 12.7592 8.6959 12.7273C8.65887 12.7179 8.62345 12.7135 8.58973 12.7135C8.53945 12.7135 8.49267 12.7233 8.44929 12.7412C8.44938 12.7412 8.44938 12.7413 8.44947 12.7413C8.49276 12.7234 8.53954 12.7136 8.58973 12.7136C8.62354 12.7136 8.65896 12.718 8.6959 12.7274C8.82149 12.7593 8.91336 12.8113 8.97803 12.877Z" fill="#4D4D9D"/>
<path d="M9.09492 13.3857C9.10171 13.3489 9.10639 13.3119 9.1085 13.2755C9.11741 13.1258 9.08354 12.9831 8.97801 12.8762C8.91331 12.8106 8.82145 12.7586 8.69591 12.7267C8.65893 12.7173 8.62351 12.7128 8.58974 12.7128C8.53954 12.7128 8.49274 12.7226 8.44942 12.7405C8.35619 12.7791 8.27892 12.855 8.21651 12.9514C8.18605 12.9985 8.15916 13.0506 8.13576 13.1054C8.11006 13.1659 8.08868 13.2298 8.07134 13.2946L8.07904 13.2953L8.16925 13.3039C8.26332 13.1232 8.40088 12.9903 8.58588 12.9903C8.61965 12.9903 8.65508 12.9947 8.69206 13.0041C8.94406 13.0682 9.06005 13.2131 9.09492 13.3857Z" fill="#FFB051"/>
<path d="M8.16934 13.3047C8.16943 13.3046 8.16943 13.3046 8.16943 13.3046L8.07927 13.2961L8.16934 13.3047Z" fill="#FFB051"/>
<path d="M9.09386 13.3916C9.09412 13.3915 9.09455 13.3911 9.09523 13.3906C9.09463 13.391 9.09412 13.3914 9.09386 13.3916ZM9.67822 13.3421V13.3421C9.66258 13.3297 9.64676 13.319 9.6306 13.3099C9.64676 13.319 9.66258 13.3297 9.67822 13.3421Z" fill="#FDE0C5"/>
<path d="M9.8667 13.7227C9.86613 13.6693 9.85564 13.6158 9.83312 13.5626C9.78954 13.4593 9.73622 13.3889 9.67814 13.3426V13.3427C9.73613 13.3889 9.78946 13.4594 9.83312 13.5626C9.85556 13.6158 9.86604 13.6693 9.8667 13.7227Z" fill="#4D4D9D"/>
<path d="M9.84299 13.876C9.85908 13.8253 9.86768 13.7739 9.86717 13.7224C9.86648 13.6691 9.85598 13.6155 9.83353 13.5624C9.78992 13.4591 9.73659 13.3887 9.67861 13.3425C9.66304 13.33 9.64713 13.3193 9.63096 13.3102C9.57315 13.2775 9.51242 13.2652 9.45341 13.2652C9.27656 13.2652 9.11536 13.3768 9.09592 13.3908C9.09583 13.3908 9.09574 13.3909 9.09566 13.3909C9.09497 13.3914 9.09445 13.3918 9.09428 13.3919C9.09411 13.392 9.09402 13.3921 9.09402 13.3921C9.07648 13.4846 9.04602 13.5764 9.00878 13.6619L9.09024 13.6697C9.09024 13.6697 9.26099 13.5426 9.44954 13.5426C9.58623 13.5426 9.73229 13.6094 9.82949 13.8399C9.83448 13.852 9.83895 13.8638 9.84299 13.876Z" fill="#FFB051"/>
<path d="M8.02138 13.8154C8.03052 13.7368 8.04588 13.654 8.06756 13.5728C8.09264 13.4788 8.12647 13.3869 8.16943 13.3046L8.07932 13.296L8.07144 13.2953C8.07008 13.2935 7.96121 13.1506 7.79206 13.0839C7.74044 13.0636 7.68338 13.0504 7.62194 13.0504C7.53931 13.0504 7.449 13.0743 7.35432 13.1371C7.21355 13.2303 7.18439 13.3938 7.22328 13.5825C7.24495 13.5148 7.28598 13.4573 7.35023 13.4147C7.44492 13.3519 7.53532 13.328 7.61786 13.328C7.80878 13.328 7.95849 13.4558 8.02673 13.5266C8.01914 13.5887 8.01545 13.6483 8.01545 13.7034C8.01545 13.7435 8.01749 13.7812 8.02138 13.8154Z" fill="#FFB051"/>
<path d="M8.0712 13.2959C8.0712 13.2959 8.07129 13.2958 8.07129 13.2958C8.06736 13.2907 7.95902 13.1504 7.79177 13.0845C7.96098 13.1512 8.06979 13.2941 8.0712 13.2959Z" fill="#FDE0C5"/>
<path d="M8.0791 13.2959L8.07139 13.2951C8.07139 13.2951 8.07139 13.2951 8.0713 13.295C8.0713 13.2951 8.07121 13.2951 8.07121 13.2951L8.0791 13.2959Z" fill="#FFB051"/>
<path d="M9.00869 13.6622L9.09015 13.6699C9.10838 13.5747 9.11277 13.4793 9.09582 13.391C9.09548 13.3896 9.09522 13.388 9.09522 13.3866C9.09488 13.3885 9.09453 13.3904 9.09393 13.3924C9.07638 13.4848 9.04593 13.5766 9.00869 13.6622Z" fill="#EF8B01"/>
<path d="M8.02132 13.8154C8.03044 13.7368 8.04582 13.654 8.06738 13.5728C8.06738 13.5728 8.05329 13.5538 8.02666 13.5266C8.01348 13.6339 8.01192 13.7343 8.02132 13.8154Z" fill="#EF8B01"/>
<path d="M8.81752 14.0122C8.87965 13.9739 8.93278 13.9261 8.97896 13.8749C9.02625 13.8238 9.0665 13.7684 9.10183 13.7105C9.17138 13.5941 9.22052 13.4664 9.23935 13.3291C9.24834 13.2605 9.24918 13.1892 9.23675 13.1169C9.2246 13.0447 9.19845 12.9712 9.15543 12.9033C9.11268 12.8353 9.05166 12.7749 8.98174 12.7287C8.91183 12.6823 8.83412 12.6494 8.7565 12.6276C8.67722 12.6037 8.57429 12.5908 8.47822 12.6114C8.3816 12.6319 8.29907 12.6794 8.23629 12.7327C8.11027 12.8412 8.04351 12.9695 7.99455 13.0959C7.9709 13.1597 7.95254 13.224 7.93984 13.2888C7.92658 13.3534 7.9174 13.4183 7.91601 13.4838C7.91471 13.5492 7.91962 13.6148 7.93335 13.6799C7.94763 13.7446 7.96914 13.8097 8.00799 13.8687C8.01421 13.8781 8.02784 13.8813 8.03841 13.8759C8.04407 13.8731 8.04768 13.8685 8.04898 13.8634L8.04917 13.8626C8.08162 13.7378 8.1138 13.6236 8.14496 13.5085C8.16091 13.4514 8.17528 13.3944 8.19271 13.3384C8.21107 13.2827 8.23036 13.2277 8.25299 13.1748C8.2974 13.0696 8.3535 12.9678 8.42611 12.8993C8.46237 12.8654 8.50141 12.8423 8.54156 12.8315C8.58282 12.8223 8.6252 12.8229 8.67889 12.8384C8.79369 12.8671 8.88011 12.9279 8.92527 13.0103C8.97127 13.0931 8.97878 13.1982 8.96997 13.3064C8.96088 13.4152 8.93454 13.528 8.90209 13.6417C8.86945 13.7561 8.83124 13.8705 8.7846 13.9896L8.78432 13.9903C8.78043 14.0002 8.78646 14.0112 8.79786 14.0146C8.80463 14.0167 8.81205 14.0155 8.81752 14.0122Z" fill="#000072"/>
<path d="M8.24726 15.6504C8.50154 15.6504 8.81536 15.5569 8.9741 15.1491C9.06133 14.9252 9.21305 14.726 9.41293 14.5729C9.89765 14.2018 10.0838 13.8394 9.95106 13.525C9.86778 13.3276 9.7398 13.2078 9.57058 13.1688C9.29148 13.1046 9.02424 13.3005 9.01306 13.3089C8.96015 13.3482 8.95372 13.4176 8.99843 13.464C9.04333 13.5104 9.12245 13.516 9.17517 13.4767C9.22462 13.4405 9.38148 13.3523 9.50768 13.3819C9.59273 13.4017 9.66285 13.4756 9.71587 13.6014C9.84009 13.8957 9.47613 14.2326 9.24806 14.4071C9.01494 14.5856 8.83821 14.8176 8.73693 15.078C8.63832 15.3309 8.46999 15.4427 8.2079 15.4294C8.13402 15.4256 7.90932 15.4144 7.91317 15.0048C7.91584 14.7127 7.82614 14.4311 7.65336 14.1906C7.39255 13.8273 7.21136 13.3703 7.42984 13.2254C7.50935 13.1727 7.5861 13.1525 7.66424 13.164C7.83652 13.1892 7.96609 13.3554 7.96727 13.357C8.00584 13.4073 8.08378 13.4208 8.14114 13.3871C8.19851 13.3534 8.21423 13.2854 8.17596 13.235C8.16844 13.2249 7.98705 12.989 7.70726 12.9472C7.5589 12.9251 7.4147 12.9596 7.27871 13.0499C6.90882 13.2952 7.12007 13.8606 7.44111 14.3079C7.58828 14.5127 7.66473 14.7531 7.66236 15.003C7.65731 15.5416 7.99299 15.639 8.19356 15.649C8.21107 15.6499 8.22897 15.6504 8.24726 15.6504Z" fill="#000072"/>
<path d="M4.57422 6.07054C4.57422 6.27 4.4777 6.43164 4.35882 6.43164C4.23983 6.43164 4.14343 6.27 4.14343 6.07054C4.14343 5.87108 4.23983 5.70944 4.35882 5.70944C4.4777 5.70944 4.57422 5.87108 4.57422 6.07054Z" fill="white"/>
</svg>
