<svg width="59" height="66" viewBox="0 0 59 66" fill="none" xmlns="http://www.w3.org/2000/svg">
<path d="M45.3198 0H36.6528V3.901H45.3198V0Z" fill="#E7AD42"/>
<path d="M57.9851 51.1469C57.9851 56.6549 53.4791 61.1609 47.9711 61.1609H10.2581C4.75015 61.1609 0.244141 56.6549 0.244141 51.1469V13.4339C0.244141 7.92593 4.75015 3.41992 10.2581 3.41992H47.9711C53.4791 3.41992 57.9851 7.92593 57.9851 13.4339V51.1469Z" fill="#7DBAE8"/>
<path d="M29.0938 25.2982C29.0938 25.2982 27.3108 18.4742 18.3438 17.3042C9.37284 16.1332 0.796832 12.9642 0.777832 9.11719C0.777832 9.11719 6.34185 9.14819 14.4438 10.3492C24.9728 11.9092 28.5368 18.8652 29.0938 25.2982Z" fill="#BBDEEC"/>
<path d="M29.0938 25.2982C29.0938 25.2982 30.8787 18.4742 39.8477 17.3042C48.8147 16.1332 57.3927 12.9642 57.4117 9.11719C57.4117 9.11719 51.8478 9.14819 43.7458 10.3492C33.2168 11.9092 29.6507 18.8652 29.0938 25.2982Z" fill="#BBDEEC"/>
<path d="M13.3911 56.6621H11.3911V65.6611H13.3911V56.6621Z" fill="#4880C1"/>
<path d="M17.3911 56.6621H15.3911V65.6611H17.3911V56.6621Z" fill="#4880C1"/>
<path d="M21.3911 56.6621H19.3911V65.6611H21.3911V56.6621Z" fill="#4880C1"/>
<path d="M38.8013 56.6621H36.8013V65.6611H38.8013V56.6621Z" fill="#4880C1"/>
<path d="M42.8013 56.6621H40.8013V65.6611H42.8013V56.6621Z" fill="#4880C1"/>
<path d="M46.8013 56.6621H44.8013V65.6611H46.8013V56.6621Z" fill="#4880C1"/>
<path d="M29.0978 54.4323V30.9873L21.1528 38.9233L29.0978 54.4323Z" fill="#E7AD42"/>
<path d="M29.0977 54.4323V30.9873L37.0387 38.9233L29.0977 54.4323Z" fill="#F2D031"/>
<path d="M58.1921 29.3108C58.1921 37.3738 51.6551 43.9078 43.5961 43.9078C35.5331 43.9078 28.9961 37.3728 28.9961 29.3108C28.9961 21.2498 35.5331 14.7148 43.5961 14.7148C51.6551 14.7148 58.1921 21.2498 58.1921 29.3108Z" fill="white"/>
<path d="M48.295 30.2793C45.865 30.2793 43.893 28.3073 43.893 25.8773C43.893 24.3853 44.639 23.0713 45.772 22.2763C45.086 22.0633 44.3539 21.9473 43.5959 21.9473C39.5319 21.9473 36.231 25.2453 36.231 29.3113C36.231 33.3783 39.5319 36.6763 43.5959 36.6763C47.6469 36.6763 50.93 33.4053 50.957 29.3623C50.215 29.9283 49.303 30.2793 48.295 30.2793Z" fill="#272425"/>
<path d="M29.196 29.3108C29.196 37.3738 22.659 43.9078 14.6 43.9078C6.53701 43.9078 0 37.3728 0 29.3108C0 21.2498 6.53701 14.7148 14.6 14.7148C22.658 14.7148 29.196 21.2498 29.196 29.3108Z" fill="white"/>
<path d="M19.2989 30.2793C16.8689 30.2793 14.8969 28.3073 14.8969 25.8773C14.8969 24.3853 15.6429 23.0713 16.7759 22.2763C16.0909 22.0633 15.3579 21.9473 14.5999 21.9473C10.5349 21.9473 7.23486 25.2453 7.23486 29.3113C7.23486 33.3783 10.5359 36.6763 14.5999 36.6763C18.6509 36.6763 21.9339 33.4053 21.9609 29.3623C21.2189 29.9283 20.3069 30.2793 19.2989 30.2793Z" fill="#272425"/>
</svg>
