<svg xmlns="http://www.w3.org/2000/svg" xmlns:xlink="http://www.w3.org/1999/xlink" width="149.303" height="50.508" viewBox="0 0 149.303 50.508">
  <defs>
    <clipPath id="clip-path">
      <rect id="Rectangle_3761" data-name="Rectangle 3761" width="6.353" height="19.059" transform="translate(0 0)" fill="#fff" stroke="#707070" stroke-width="1"/>
    </clipPath>
  </defs>
  <g id="Group_7558" data-name="Group 7558" transform="translate(0.183)">
    <g id="reviewsio-logo" transform="translate(-0.054 0)">
      <rect id="reviewsio-logo-2" data-name="reviewsio-logo" width="149.174" height="23.901" fill="none"/>
      <g id="reviewsio-logo1" transform="translate(0.423 0.341)">
        <g id="Group_6811" data-name="Group 6811" transform="translate(25.126 2.777)">
          <g id="Group_6809" data-name="Group 6809">
            <path id="Path_22642" data-name="Path 22642" d="M142.037,31.733l-3.817-4.914c2.451-.574,4.164-2.174,4.164-4.826v-.045a4.677,4.677,0,0,0-1.308-3.336h0a6.582,6.582,0,0,0-4.745-1.678h-6.056a1.131,1.131,0,0,0-1.108,1.131V32.512a1.119,1.119,0,1,0,2.238,0V27.239h4.338l4.492,5.836a1.261,1.261,0,0,0,1.018.567,1.105,1.105,0,0,0,.783-1.909Zm-1.913-9.716v.046h0c0,1.967-1.66,3.123-3.955,3.123H131.4V19.033h4.787C138.659,19.033,140.123,20.139,140.123,22.017Z" transform="translate(-129.167 -16.703)"/>
            <path id="Path_22643" data-name="Path 22643" d="M212.475,32.4a1.131,1.131,0,0,0,1.108,1.13h10.17a1.038,1.038,0,0,0,0-2.076h-9.04V26.2H222.6a1.034,1.034,0,0,0,1.038-1.038,1.053,1.053,0,0,0-1.038-1.038h-7.885V19.011h8.925a1.038,1.038,0,1,0,0-2.077H213.583a1.131,1.131,0,0,0-1.108,1.131Z" transform="translate(-195.997 -16.703)"/>
            <path id="Path_22644" data-name="Path 22644" d="M291.465,33.243h.121a1.309,1.309,0,0,0,1.222-.885l6.268-14.478a1.153,1.153,0,0,0,.084-.446,1.106,1.106,0,0,0-1.108-1.085,1.288,1.288,0,0,0-1.086.761l-.006.013-5.426,13-5.4-12.95a1.22,1.22,0,0,0-1.137-.82,1.151,1.151,0,0,0-1.132,1.107,1.035,1.035,0,0,0,.114.506l6.236,14.391A1.289,1.289,0,0,0,291.465,33.243Zm-1.063-.969Z" transform="translate(-253.263 -16.234)"/>
            <path id="Path_22645" data-name="Path 22645" d="M376.172,17.481V32.043a1.119,1.119,0,1,0,2.238,0V17.481a1.119,1.119,0,1,0-2.238,0Z" transform="translate(-327.314 -16.234)"/>
            <path id="Path_22646" data-name="Path 22646" d="M419.376,16.934H409.294a1.131,1.131,0,0,0-1.107,1.131V32.4a1.131,1.131,0,0,0,1.107,1.13h10.171a1.038,1.038,0,0,0,0-2.076h-9.04V26.2h7.884a1.033,1.033,0,0,0,1.038-1.038,1.052,1.052,0,0,0-1.038-1.038h-7.884V19.011h8.925a1.038,1.038,0,0,0,.027-2.076Z" transform="translate(-352.997 -16.703)"/>
            <path id="Path_22647" data-name="Path 22647" d="M496.751,33.268h.19a1.225,1.225,0,0,0,1.117-.924l5.178-14.375,0-.006a1.8,1.8,0,0,0,.126-.5,1.17,1.17,0,0,0-1.131-1.107,1.129,1.129,0,0,0-1.074.857l-4.283,12.32-4.04-12.319a1.133,1.133,0,0,0-1.1-.857v0l-.116,0a1.109,1.109,0,0,0-1.1.857l-4.04,12.319-4.261-12.276a1.238,1.238,0,0,0-1.143-.9,1.174,1.174,0,0,0-1.153,1.13,1.546,1.546,0,0,0,.1.481l5.179,14.38a1.194,1.194,0,0,0,1.117.924h.19a1.224,1.224,0,0,0,1.116-.925l3.99-11.858,4.012,11.858a1.226,1.226,0,0,0,1.116.924Z" transform="translate(-410.548 -16.237)"/>
            <path id="Path_22648" data-name="Path 22648" d="M616.263,28.176v.046c0,1.493-1.365,2.545-3.4,2.545a7.161,7.161,0,0,1-4.966-1.862l0,0a1.023,1.023,0,0,0-.693-.262,1.089,1.089,0,0,0-1.086,1.108,1.032,1.032,0,0,0,.43.859,9.656,9.656,0,0,0,6.249,2.213c3.342,0,5.729-1.9,5.729-4.783v-.047c0-2.563-1.695-3.962-5.432-4.777h0c-3.4-.728-4.229-1.487-4.229-2.943v-.046c0-1.359,1.275-2.406,3.238-2.406a6.575,6.575,0,0,1,4.063,1.371h0a1.044,1.044,0,0,0,.652.2,1.083,1.083,0,0,0,1.084-1.085,1.148,1.148,0,0,0-.475-.9l0,0a8.443,8.443,0,0,0-5.275-1.633c-3.2,0-5.523,1.972-5.523,4.621l.206.206-.206-.2v.043l.206.207-.206-.206c0,2.753,1.741,4.034,5.6,4.871h0C615.454,25.986,616.263,26.746,616.263,28.176Z" transform="translate(-511.775 -15.766)"/>
          </g>
          <g id="Group_6810" data-name="Group 6810" transform="translate(108.532 6.778)">
            <path id="Path_22649" data-name="Path 22649" d="M678.629,89.906h-.02a.714.714,0,0,0-.744.731l.124.124-.124-.124V90.9a.738.738,0,1,0,1.475,0,.124.124,0,0,1-.124.124s.124-.014.124-.129v-.253A.71.71,0,0,0,678.629,89.906ZM678,91.018l-.011,0H678Z" transform="translate(-677.865 -82.02)"/>
            <path id="Path_22650" data-name="Path 22650" d="M694.694,53.223v5.8a.619.619,0,0,0,.627.628.607.607,0,0,0,.616-.628v-5.8a.618.618,0,0,0-.628-.628A.628.628,0,0,0,694.694,53.223Zm-.091-2.366h0a.714.714,0,0,0,1.423,0V50.69a.714.714,0,0,0-1.423,0Z" transform="translate(-691.292 -50.035)"/>
            <path id="Path_22651" data-name="Path 22651" d="M716.92,66.2v-.028a3.608,3.608,0,0,0-7.216.026l.026.026L709.7,66.2v.025a3.547,3.547,0,0,0,3.589,3.588A3.592,3.592,0,0,0,716.92,66.2Zm-1.268.023V66.2a2.408,2.408,0,0,0-2.359-2.489,2.347,2.347,0,0,0-2.32,2.463V66.2a2.385,2.385,0,0,0,2.346,2.474A2.345,2.345,0,0,0,715.652,66.226Z" transform="translate(-703.407 -60.103)" fill-rule="evenodd"/>
          </g>
        </g>
        <g id="Group_6813" data-name="Group 6813">
          <g id="Group_6812" data-name="Group 6812">
            <path id="Path_22652" data-name="Path 22652" d="M37.422,23.4l-.994.5a8.11,8.11,0,0,1,3.06,6.03c-.147,4.72-2.374,7.753-6.2,9.054-4.419,1.332-7.22.254-9.93-2.507l-.171,1.061,1.1,1.148A10.029,10.029,0,1,0,38.763,24.8l-1.341-1.4Z" transform="translate(-19.026 -19.112)" fill="#feef7c" fill-rule="evenodd"/>
            <path id="Path_22653" data-name="Path 22653" d="M5.759,19.558l.666-.582c-2.766-3.92-2.882-9.659.9-12.818a9.923,9.923,0,0,1,12.829.366l.333-.585L19.4,4.808A10.029,10.029,0,0,0,4.932,18.7l.827.862Z" transform="translate(-2.141 -1.725)" fill="#5cd3cb" fill-rule="evenodd"/>
          </g>
          <path id="Path_22654" data-name="Path 22654" d="M8.333,18.382A10.049,10.049,0,1,0,18.381,8.333,10.049,10.049,0,0,0,8.333,18.382ZM15.327,20.2a.824.824,0,0,0-.293-.908l-3.2-2.386a.412.412,0,0,1,.247-.742H15.9a.824.824,0,0,0,.782-.565l1.3-3.914a.412.412,0,0,1,.782,0l1.31,3.918a.824.824,0,0,0,.782.563h3.828a.412.412,0,0,1,.248.741l-3.191,2.4a.824.824,0,0,0-.29.907L22.7,24.166a.412.412,0,0,1-.644.451l-3.184-2.444a.824.824,0,0,0-1.006,0L14.722,24.61a.412.412,0,0,1-.645-.45l1.25-3.961Z" transform="translate(-7.108 -7.026)"/>
        </g>
      </g>
    </g>
    <text id="_4.2" data-name="4.2" transform="translate(114.877 45.331)" fill="#2c2c2c" font-size="15" font-family="Poppins-Medium, Poppins" font-weight="500" letter-spacing="0.002em"><tspan x="0" y="0">4.2</tspan></text>
    <g id="Group_6817" data-name="Group 6817" transform="translate(-0.183 31.448)">
      <rect id="Rectangle_3759" data-name="Rectangle 3759" width="19.059" height="19.059" rx="4" transform="translate(0 0)" fill="#11b1a7"/>
      <path id="Path_22659" data-name="Path 22659" d="M14.345,18.057a.636.636,0,0,0-.226-.7l-2.467-1.842a.318.318,0,0,1,.19-.573h2.948a.636.636,0,0,0,.6-.436l1-3.022a.318.318,0,0,1,.6,0l1.012,3.025a.637.637,0,0,0,.6.434H21.57a.318.318,0,0,1,.191.572L19.3,17.368a.636.636,0,0,0-.224.7l.966,3.051a.318.318,0,0,1-.5.348l-2.458-1.887a.636.636,0,0,0-.777,0l-2.431,1.879a.318.318,0,0,1-.5-.347Z" transform="translate(-7.207 -7.122)" fill="#fff"/>
    </g>
    <g id="Group_6818" data-name="Group 6818" transform="translate(21.699 31.448)">
      <rect id="Rectangle_3759-2" data-name="Rectangle 3759" width="19.059" height="19.059" rx="4" transform="translate(0 0)" fill="#11b1a7"/>
      <path id="Path_22659-2" data-name="Path 22659" d="M14.345,18.057a.636.636,0,0,0-.226-.7l-2.467-1.842a.318.318,0,0,1,.19-.573h2.948a.636.636,0,0,0,.6-.436l1-3.022a.318.318,0,0,1,.6,0l1.012,3.025a.637.637,0,0,0,.6.434H21.57a.318.318,0,0,1,.191.572L19.3,17.368a.636.636,0,0,0-.224.7l.966,3.051a.318.318,0,0,1-.5.348l-2.458-1.887a.636.636,0,0,0-.777,0l-2.431,1.879a.318.318,0,0,1-.5-.347Z" transform="translate(-7.108 -7.122)" fill="#fff"/>
    </g>
    <g id="Group_6819" data-name="Group 6819" transform="translate(43.582 31.448)">
      <rect id="Rectangle_3759-3" data-name="Rectangle 3759" width="19.059" height="19.059" rx="4" transform="translate(0 0)" fill="#11b1a7"/>
      <path id="Path_22659-3" data-name="Path 22659" d="M14.345,18.057a.636.636,0,0,0-.226-.7l-2.467-1.842a.318.318,0,0,1,.19-.573h2.948a.636.636,0,0,0,.6-.436l1-3.022a.318.318,0,0,1,.6,0l1.012,3.025a.637.637,0,0,0,.6.434H21.57a.318.318,0,0,1,.191.572L19.3,17.368a.636.636,0,0,0-.224.7l.966,3.051a.318.318,0,0,1-.5.348l-2.458-1.887a.636.636,0,0,0-.777,0l-2.431,1.879a.318.318,0,0,1-.5-.347Z" transform="translate(-7.008 -7.122)" fill="#fff"/>
    </g>
    <g id="Group_6820" data-name="Group 6820" transform="translate(66.171 31.448)">
      <rect id="Rectangle_3759-4" data-name="Rectangle 3759" width="18.353" height="19.059" rx="4" transform="translate(0 0)" fill="#11b1a7"/>
      <path id="Path_22659-4" data-name="Path 22659" d="M14.345,18.057a.636.636,0,0,0-.226-.7l-2.467-1.842a.318.318,0,0,1,.19-.573h2.948a.636.636,0,0,0,.6-.436l1-3.022a.318.318,0,0,1,.6,0l1.012,3.025a.637.637,0,0,0,.6.434H21.57a.318.318,0,0,1,.191.572L19.3,17.368a.636.636,0,0,0-.224.7l.966,3.051a.318.318,0,0,1-.5.348l-2.458-1.887a.636.636,0,0,0-.777,0l-2.431,1.879a.318.318,0,0,1-.5-.347Z" transform="translate(-7.615 -7.122)" fill="#fff"/>
    </g>
    <rect id="Rectangle_3759-5" data-name="Rectangle 3759" width="18.353" height="19.059" rx="4" transform="translate(88.053 31.448)" fill="#c8c8c8"/>
    <g id="Mask_Group_534" data-name="Mask Group 534" transform="translate(88.053 31.448)" clip-path="url(#clip-path)">
      <rect id="Rectangle_3760" data-name="Rectangle 3760" width="18.353" height="19.059" rx="4" transform="translate(0 0)" fill="#11b1a7"/>
    </g>
    <path id="Path_22659-5" data-name="Path 22659" d="M14.345,18.057a.636.636,0,0,0-.226-.7l-2.467-1.842a.318.318,0,0,1,.19-.573h2.948a.636.636,0,0,0,.6-.436l1-3.022a.318.318,0,0,1,.6,0l1.012,3.025a.637.637,0,0,0,.6.434H21.57a.318.318,0,0,1,.191.572L19.3,17.368a.636.636,0,0,0-.224.7l.966,3.051a.318.318,0,0,1-.5.348l-2.458-1.887a.636.636,0,0,0-.777,0l-2.431,1.879a.318.318,0,0,1-.5-.347Z" transform="translate(80.538 24.326)" fill="#fff"/>
  </g>
</svg>
