<svg xmlns="http://www.w3.org/2000/svg" width="190" height="26" viewBox="0 0 190 26">
  <g id="payment-methods" transform="translate(-1092 -46)">
    <rect id="bg" width="40" height="26" rx="4" transform="translate(1242 46)" fill="#eaeaea"/>
    <g id="discover" transform="translate(-4419.69 -4749.08)">
      <circle id="Ellipse_226" data-name="Ellipse 226" cx="2.648" cy="2.648" r="2.648" transform="translate(5679.913 4803.08)" fill="#f26e21"/>
      <g id="Group_297" data-name="Group 297" transform="translate(5665.691 4803.107)">
        <path id="Path_3487" data-name="Path 3487" d="M56.3,196.509a1.884,1.884,0,0,1-1.354.4H54.68v-3.324h.265a1.845,1.845,0,0,1,1.354.407,1.682,1.682,0,0,1,.546,1.251,1.715,1.715,0,0,1-.546,1.267Zm-1.156-3.775H53.691v5.026h1.446a2.654,2.654,0,0,0,1.808-.58,2.512,2.512,0,0,0-1.8-4.446" transform="translate(-53.691 -192.62)" fill="#0b161f"/>
        <path id="Path_3488" data-name="Path 3488" d="M108.2,197.76h.988v-5.026H108.2v5.026" transform="translate(-103.571 -192.62)" fill="#0b161f"/>
        <path id="Path_3489" data-name="Path 3489" d="M126.271,193.761c-.594-.218-.768-.362-.768-.632,0-.317.311-.558.737-.558a1.032,1.032,0,0,1,.8.406l.516-.67a2.225,2.225,0,0,0-1.49-.558,1.484,1.484,0,0,0-1.581,1.439c0,.694.319,1.048,1.247,1.381a3.85,3.85,0,0,1,.684.286.6.6,0,0,1,.3.52.72.72,0,0,1-.768.709,1.17,1.17,0,0,1-1.079-.67l-.637.611a1.975,1.975,0,0,0,1.755.957,1.63,1.63,0,0,0,1.747-1.651c0-.8-.333-1.161-1.458-1.569" transform="translate(-118.236 -191.719)" fill="#0b161f"/>
        <path id="Path_3490" data-name="Path 3490" d="M169.143,194.024a2.615,2.615,0,0,0,2.676,2.624,2.751,2.751,0,0,0,1.239-.293V195.2a1.587,1.587,0,0,1-1.194.55,1.65,1.65,0,0,1-1.7-1.734,1.678,1.678,0,0,1,1.658-1.726,1.659,1.659,0,0,1,1.239.565V191.7a2.541,2.541,0,0,0-1.217-.308,2.655,2.655,0,0,0-2.7,2.629" transform="translate(-159.338 -191.395)" fill="#0b161f"/>
        <path id="Path_3491" data-name="Path 3491" d="M283.348,196.11,282,192.734h-1.079l2.152,5.155h.531l2.189-5.155h-1.072l-1.368,3.376" transform="translate(-261.619 -192.62)" fill="#0b161f"/>
        <path id="Path_3492" data-name="Path 3492" d="M343.576,197.76h2.8v-.851h-1.816v-1.358h1.746V194.7h-1.746v-1.116h1.816v-.851h-2.8v5.026" transform="translate(-318.957 -192.62)" fill="#0b161f"/>
        <path id="Path_3493" data-name="Path 3493" d="M385.556,195.048h-.288v-1.523h.3c.617,0,.951.257.951.746,0,.5-.335.777-.967.777Zm1.984-.83c0-.942-.653-1.483-1.794-1.483h-1.466v5.026h.989v-2.02h.13l1.367,2.02h1.216l-1.6-2.118a1.34,1.34,0,0,0,1.156-1.425" transform="translate(-356.204 -192.62)" fill="#0b161f"/>
      </g>
      <path id="Path_3494" data-name="Path 3494" d="M138.61,276.463v-2.828l1.931,2.02v-1.84h.4v2.809l-1.931-2.015v1.854h-.4Z" transform="translate(5534.292 4536.456)" fill="#2c2c2c"/>
      <path id="Path_3495" data-name="Path 3495" d="M174.985,276.132h-1.062v.636h1.031v.376h-1.031v.885h1.062v.376h-1.461v-2.648h1.461Z" transform="translate(5502.344 4534.514)" fill="#2c2c2c"/>
      <path id="Path_3496" data-name="Path 3496" d="M194.645,276.129V278.4h-.4v-2.272h-.608v-.376h1.616v.376Z" transform="translate(5483.939 4534.518)" fill="#2c2c2c"/>
      <path id="Path_3497" data-name="Path 3497" d="M215.577,274.371l.69,1.77.721-1.9.689,1.9.732-1.77h.434l-1.183,2.816-.681-1.876-.71,1.878-1.125-2.818Z" transform="translate(5464.259 4535.901)" fill="#2c2c2c"/>
      <path id="Path_3498" data-name="Path 3498" d="M259.607,276.534a1.3,1.3,0,0,1,.41-.96,1.349,1.349,0,0,1,.981-.4,1.384,1.384,0,0,1,1.377,1.377,1.3,1.3,0,0,1-.408.969,1.4,1.4,0,0,1-1.91.045A1.3,1.3,0,0,1,259.607,276.534Zm.4,0a.957.957,0,0,0,.295.721.978.978,0,0,0,1.381,0,1.026,1.026,0,0,0,0-1.419.987.987,0,0,0-1.394,0A.951.951,0,0,0,260.01,276.538Z" transform="translate(5423.571 4535.05)" fill="#2c2c2c"/>
      <path id="Path_3499" data-name="Path 3499" d="M299.012,277.276l.82,1.128h-.489l-.756-1.084h-.072V278.4h-.4v-2.648h.468a1.17,1.17,0,0,1,.758.2.724.724,0,0,1,.257.58.75.75,0,0,1-.161.483A.718.718,0,0,1,299.012,277.276Zm-.5-.3h.126q.568,0,.568-.434,0-.407-.552-.406h-.142v.84Z" transform="translate(5388.334 4534.514)" fill="#2c2c2c"/>
      <path id="Path_3500" data-name="Path 3500" d="M323.416,276.812l1.031-1.056h.534l-1.2,1.2,1.2,1.449h-.535l-.954-1.178-.082.083v1.1h-.4v-2.648h.4v1.056Z" transform="translate(5365.547 4534.515)" fill="#2c2c2c"/>
    </g>
    <rect id="bg-2" data-name="bg" width="40" height="26" rx="4" transform="translate(1192 46)" fill="#eaeaea"/>
    <g id="american_express" data-name="american express" transform="translate(1159.082 -129.952)">
      <path id="Path_3478" data-name="Path 3478" d="M74.59,202.741h1.149l-.575-1.463Z" transform="translate(-34.999 -16.722)" fill="#306fc5"/>
      <path id="Path_3479" data-name="Path 3479" d="M155.946,286.107v.679h1.933v.732h-1.933v.784h2.142l.993-1.1-.94-1.1Z" transform="translate(-110.242 -95.177)" fill="#306fc5"/>
      <path id="Path_3480" data-name="Path 3480" d="M349.18,201.278l-.627,1.463h1.2Z" transform="translate(-288.378 -16.722)" fill="#306fc5"/>
      <path id="Path_3481" data-name="Path 3481" d="M213.626,284.219v-2.978l-1.358,1.463Z" transform="translate(-162.333 -90.677)" fill="#306fc5"/>
      <path id="Path_3482" data-name="Path 3482" d="M243.839,286.577a.527.527,0,0,0-.575-.47h-1.1v.94h1.149C243.63,287.047,243.839,286.891,243.839,286.577Z" transform="translate(-189.985 -95.177)" fill="#306fc5"/>
      <path id="Path_3483" data-name="Path 3483" d="M295.084,287.589a.407.407,0,0,0,.157-.366.291.291,0,0,0-.157-.366,1.016,1.016,0,0,0-.418-.052h-1.045v.836h1.045A1.016,1.016,0,0,0,295.084,287.589Z" transform="translate(-237.573 -95.823)" fill="#306fc5"/>
      <path id="Path_3484" data-name="Path 3484" d="M65.033,183.2v.627l-.313-.627H62.265v.627l-.314-.627H58.608a3.18,3.18,0,0,0-1.463.314V183.2H54.794v.314a1.507,1.507,0,0,0-.993-.314H45.39l-.575,1.306-.575-1.306H41.577v.627l-.261-.627h-2.3l-1.045,2.455-1.2,2.664-.022.052h2.72l.019-.052.314-.783h.679l.313.836h3.03v-.627l.261.627H45.6l.261-.627v.627h7.262v-1.358h.1c.1,0,.1,0,.1.157v1.149h3.762V188a3.125,3.125,0,0,0,1.41.313h1.568l.313-.836h.731l.313.836h3.03v-.783l.47.783h2.455V183.2H65.033Zm-17.71,4.389h-.836v-2.873l-.052.12h0l-1.215,2.755h-.77L43.2,184.713v2.873H41.42l-.366-.784H39.278l-.366.784h-.918l1.545-3.657h1.306l1.463,3.5v-3.5h1.384l.025.052h0l.659,1.435.473,1.075.017-.054,1.045-2.508h1.411v3.657h0Zm3.6-2.873H48.891v.679h1.985v.731H48.891v.732h2.038v.783H48V183.93h2.926v.784Zm3.726,1.347,0,0a.6.6,0,0,1,.051.062,1,1,0,0,1,.185.612v.015s0,.005,0,.008,0,0,0,0c0,.029,0,.058,0,.09v.731h-.783v-.418a1.243,1.243,0,0,0-.157-.731.476.476,0,0,0-.154-.105,1.043,1.043,0,0,0-.473-.052h-.941v1.306H51.5V183.93h1.985a2,2,0,0,1,1.045.157.883.883,0,0,1,.416.812,1.038,1.038,0,0,1-.626.964A.7.7,0,0,1,54.654,186.06Zm1.759,1.526h-.888v-3.657h.888Zm10.187,0h-1.15l-1.672-2.769v2.3l-.005-.005v.478h-.883v0H62l-.313-.784H59.861l-.313.836h-.993a1.57,1.57,0,0,1-1.724-1.828,2.142,2.142,0,0,1,.47-1.463,1.646,1.646,0,0,1,1.306-.418h.836v.784h-.836a.963.963,0,0,0-.679.209,1.228,1.228,0,0,0-.261.836,1.137,1.137,0,0,0,.261.888.833.833,0,0,0,.627.209h.366l1.2-2.873h1.306l1.463,3.5v-3.5H64.2l1.515,2.56v-2.56H66.6v3.6h0Z" fill="#306fc5"/>
      <path id="Path_3485" data-name="Path 3485" d="M246.464,204.1a.279.279,0,0,0,.041-.056.565.565,0,0,0,.072-.394.294.294,0,0,0-.008-.048s0-.008,0-.012h0a.293.293,0,0,0-.159-.178,1.024,1.024,0,0,0-.418-.052h-1.045v.836h1.045a1.018,1.018,0,0,0,.418-.052.2.2,0,0,0,.043-.031h0Z" transform="translate(-192.555 -18.651)" fill="#306fc5"/>
      <path id="Path_3486" data-name="Path 3486" d="M159.346,268.053a2,2,0,0,0-.261-.993v-2.351h0v-.157h-2.516a1.487,1.487,0,0,0-.721.313v-.313h-2.4a1.66,1.66,0,0,0-1.045.313v-.313h-4.284v.313a2.021,2.021,0,0,0-1.149-.313h-2.821v.313a1.985,1.985,0,0,0-1.2-.313h-3.134l-.732.784-.679-.784h-4.7v5.277h4.6l.755-.756.655.756h2.926v-1.2h.261a3.175,3.175,0,0,0,1.2-.157v1.411h2.351v-1.358h.1c.157,0,.157,0,.157.157v1.2h7.1a2.048,2.048,0,0,0,1.2-.314v.314h2.247a2.347,2.347,0,0,0,1.254-.261,1.755,1.755,0,0,0,.829-1.409c0-.018,0-.036.006-.054l0,0C159.345,268.12,159.346,268.087,159.346,268.053Zm-16.456-.313h-1.045V269.1h-1.717l-1-1.149,0,0-.049-.056-1.149,1.2h-3.343V265.44h3.4l.928,1.016.2.213.026-.027,1.1-1.2h2.769a1.356,1.356,0,0,1,1.367.679,1.477,1.477,0,0,1,.043.365C144.4,267.53,143.673,267.739,142.89,267.739Zm5.224-.052a1.186,1.186,0,0,1,.157.679v.731h-.888v-.47a1.166,1.166,0,0,0-.157-.732c-.1-.156-.313-.156-.627-.156h-.94V269.1h-.888v-3.709h1.985a2.107,2.107,0,0,1,1.045.157.925.925,0,0,1,.47.836,1.04,1.04,0,0,1-.627.993A.89.89,0,0,1,148.114,267.687Zm3.6-1.515h-2.038v.679h1.985v.732h-1.985v.732h2.038v.784h-2.926v-3.709h2.926Zm2.194,2.926h-1.672v-.784h1.672a.442.442,0,0,0,.366-.1.379.379,0,0,0,0-.522.443.443,0,0,0-.314-.1c-.836-.052-1.829,0-1.829-1.149,0-.522.313-1.1,1.254-1.1h1.724v.888H153.5a.775.775,0,0,0-.366.052c-.1.052-.1.157-.1.261,0,.157.1.209.209.261a.662.662,0,0,0,.313.052h.47a1.33,1.33,0,0,1,.993.314,1.081,1.081,0,0,1,.261.784C155.271,268.731,154.8,269.1,153.913,269.1Zm4.493-.366a1.522,1.522,0,0,1-1.1.366h-1.671v-.784h1.671a.441.441,0,0,0,.366-.1.379.379,0,0,0,0-.522.442.442,0,0,0-.313-.1c-.836-.052-1.829,0-1.829-1.149a1.068,1.068,0,0,1,.985-1.078,1.948,1.948,0,0,1,.269-.019h1.724v.888h-1.62a.773.773,0,0,0-.366.052.4.4,0,0,0-.1.261c0,.157.052.209.209.261a.661.661,0,0,0,.313.052h.47a1.632,1.632,0,0,1,.559.084,1.125,1.125,0,0,1,.731.826,1.172,1.172,0,0,1,.016.187A1.063,1.063,0,0,1,158.406,268.731Z" transform="translate(-89.663 -75.242)" fill="#306fc5"/>
    </g>
    <rect id="bg-3" data-name="bg" width="40" height="26" rx="4" transform="translate(1142 46)" fill="#eaeaea"/>
    <g id="visa" transform="translate(-4626.813 -4134.647)">
      <g id="Group_300" data-name="Group 300" transform="translate(5777.31 4189.647)">
        <path id="Path_3528" data-name="Path 3528" d="M175.483,183.749l1.418-8.376h2.3l-1.418,8.376Z" transform="translate(-167.915 -175.238)" fill="#293688"/>
        <path id="Path_3529" data-name="Path 3529" d="M228.133,174a5.965,5.965,0,0,0-2.059-.352c-2.27,0-3.868,1.136-3.882,2.764-.013,1.2,1.141,1.874,2.013,2.275.894.41,1.194.673,1.19,1.039-.006.561-.714.818-1.374.818a4.846,4.846,0,0,1-2.162-.44l-.3-.133-.323,1.875a7.3,7.3,0,0,0,2.559.447c2.414,0,3.982-1.123,4-2.862.009-.953-.6-1.678-1.928-2.276-.8-.387-1.295-.645-1.289-1.038,0-.348.416-.72,1.315-.72a4.258,4.258,0,0,1,1.719.321l.205.1.312-1.815Z" transform="translate(-210.094 -173.647)" fill="#293688"/>
        <path id="Path_3530" data-name="Path 3530" d="M305.282,175.373a1.141,1.141,0,0,0-1.19.713l-3.4,7.663h2.431l.473-1.284h2.9l.27,1.284h2.162l-1.891-8.376h-1.757Zm-1.044,5.417c.19-.482.915-2.341.915-2.341-.013.022.189-.485.3-.8l.155.722.532,2.419h-1.906Z" transform="translate(-283.327 -175.238)" fill="#293688"/>
        <path id="Path_3531" data-name="Path 3531" d="M82.119,181.115l-.2-1.148a6.543,6.543,0,0,0-3.178-3.512l2.029,7.295H83.2l3.647-8.376H84.416Z" transform="translate(-78.739 -175.238)" fill="#293688"/>
      </g>
      <path id="Path_3532" data-name="Path 3532" d="M46.823,175.373v.135a7.841,7.841,0,0,1,5.674,4.458l-.833-3.879a.987.987,0,0,0-1.059-.715Z" transform="translate(5727.99 4014.409)" fill="#f7981d"/>
    </g>
    <rect id="bg-4" data-name="bg" width="40" height="26" rx="4" transform="translate(1092 46)" fill="#eaeaea"/>
    <g id="mastercard" transform="translate(-4675 -4065)">
      <path id="Path_3502" data-name="Path 3502" d="M216.122,108a7.261,7.261,0,0,1-14.522,0h0a7.261,7.261,0,0,1,14.522,0Z" transform="translate(5582.878 4016.2)" fill="#ffb600"/>
      <path id="Path_3503" data-name="Path 3503" d="M208.861,100.8a7.249,7.249,0,0,1,7.261,7.2h0a7.261,7.261,0,0,1-14.522,0" transform="translate(5582.878 4016.2)" fill="#f7981d"/>
      <path id="Path_3504" data-name="Path 3504" d="M352.8,100.8a7.249,7.249,0,0,1,7.261,7.2h0a7.225,7.225,0,0,1-7.261,7.2" transform="translate(5438.939 4016.2)" fill="#ff8500"/>
      <path id="Path_3505" data-name="Path 3505" d="M7.184,100.8a7.2,7.2,0,1,0,.077,14.4,7.38,7.38,0,0,0,4.879-1.867h0a6.87,6.87,0,0,0,.73-.762h-1.5a8.792,8.792,0,0,1-.538-.724h2.574a4.868,4.868,0,0,0,.423-.762H10.411a4.518,4.518,0,0,1-.307-.762h4a7.507,7.507,0,0,0,.384-2.286,9.754,9.754,0,0,0-.154-1.524H9.873a5.531,5.531,0,0,1,.192-.762h4a4.518,4.518,0,0,0-.307-.762H10.373a7.535,7.535,0,0,1,.423-.762h2.574a3.625,3.625,0,0,0-.576-.762H11.372a6.52,6.52,0,0,1,.73-.724,7.122,7.122,0,0,0-4.879-1.867C7.222,100.8,7.222,100.8,7.184,100.8Z" transform="translate(5775 4016.2)" fill="#ff5050"/>
      <path id="Path_3506" data-name="Path 3506" d="M0,109.523a7.225,7.225,0,0,0,7.261,7.2,7.38,7.38,0,0,0,4.879-1.867h0a6.871,6.871,0,0,0,.73-.762h-1.5a8.792,8.792,0,0,1-.538-.724h2.574a4.868,4.868,0,0,0,.423-.762H10.411a4.518,4.518,0,0,1-.307-.762h4a7.506,7.506,0,0,0,.384-2.286,9.752,9.752,0,0,0-.154-1.524H9.873a5.53,5.53,0,0,1,.192-.762h4a4.518,4.518,0,0,0-.307-.762H10.373a7.535,7.535,0,0,1,.423-.762h2.574a3.625,3.625,0,0,0-.576-.762H11.372a6.52,6.52,0,0,1,.73-.724A7.123,7.123,0,0,0,7.222,102.4H7.184" transform="translate(5775 4014.677)" fill="#e52836"/>
      <path id="Path_3507" data-name="Path 3507" d="M149.677,116.723a7.38,7.38,0,0,0,4.879-1.867h0a6.869,6.869,0,0,0,.73-.762h-1.5a8.8,8.8,0,0,1-.538-.724h2.574a4.869,4.869,0,0,0,.423-.762h-3.419a4.517,4.517,0,0,1-.307-.762h4a7.506,7.506,0,0,0,.384-2.286,9.753,9.753,0,0,0-.154-1.524h-4.456a5.534,5.534,0,0,1,.192-.762h4a4.519,4.519,0,0,0-.307-.762h-3.381a7.535,7.535,0,0,1,.423-.762h2.574a3.625,3.625,0,0,0-.576-.762h-1.421a6.52,6.52,0,0,1,.73-.724,7.123,7.123,0,0,0-4.879-1.867H149.6" transform="translate(5632.498 4014.677)" fill="#cb2026"/>
      <g id="Group_298" data-name="Group 298" transform="translate(5775.691 4122.317)">
        <path id="Path_3508" data-name="Path 3508" d="M182.714,223.381l.115-.653a1.663,1.663,0,0,1-.192.038c-.269,0-.307-.154-.269-.23l.23-1.345h.423l.115-.73h-.384l.077-.461h-.768s-.461,2.536-.461,2.843a.577.577,0,0,0,.615.653A1.179,1.179,0,0,0,182.714,223.381Z" transform="translate(-173.647 -219.654)" fill="#fff"/>
        <path id="Path_3509" data-name="Path 3509" d="M210.4,230.432a1.222,1.222,0,0,0,1.345,1.345,1.994,1.994,0,0,0,.807-.115l.154-.73a2.3,2.3,0,0,1-.807.192c-.845,0-.691-.615-.691-.615h1.575a4.98,4.98,0,0,0,.115-.691,1.041,1.041,0,0,0-1.114-1.114C210.976,228.627,210.4,229.472,210.4,230.432Zm1.345-1.114c.423,0,.346.5.346.538h-.845C211.245,229.818,211.322,229.318,211.745,229.318Z" transform="translate(-201.082 -227.935)" fill="#fff"/>
        <path id="Path_3510" data-name="Path 3510" d="M298.113,216.526l.154-.845a1.888,1.888,0,0,1-.653.192c-.538,0-.768-.423-.768-.884,0-.922.461-1.421,1-1.421a1.283,1.283,0,0,1,.691.23l.115-.807a2.7,2.7,0,0,0-.884-.192c-.884,0-1.767.768-1.767,2.228,0,.96.461,1.614,1.383,1.614A3.447,3.447,0,0,0,298.113,216.526Z" transform="translate(-282.613 -212.8)" fill="#fff"/>
        <path id="Path_3511" data-name="Path 3511" d="M87.86,227.2a2.721,2.721,0,0,0-.922.154l-.115.653a2.271,2.271,0,0,1,.845-.154c.269,0,.5.038.5.269,0,.154-.038.192-.038.192h-.346c-.653,0-1.383.269-1.383,1.153,0,.692.461.845.73.845a1.154,1.154,0,0,0,.807-.346l-.038.307h.692l.307-2.113A.91.91,0,0,0,87.86,227.2Zm.154,1.729c0,.115-.077.73-.538.73a.3.3,0,0,1-.307-.307c0-.192.115-.461.692-.461A.606.606,0,0,0,88.014,228.929Z" transform="translate(-82.977 -226.508)" fill="#fff"/>
        <path id="Path_3512" data-name="Path 3512" d="M136.084,229.55a.985.985,0,0,0,1.153-1c0-.96-.922-.768-.922-1.153,0-.192.154-.269.423-.269.115,0,.538.038.538.038l.115-.692a2.919,2.919,0,0,0-.73-.077c-.576,0-1.153.23-1.153,1,0,.884.96.807.96,1.153,0,.23-.269.269-.461.269a2.512,2.512,0,0,1-.692-.115l-.115.692C135.238,229.473,135.431,229.55,136.084,229.55Z" transform="translate(-129.456 -225.747)" fill="#fff"/>
        <path id="Path_3513" data-name="Path 3513" d="M429.39,214.4l-.154,1.037a1.065,1.065,0,0,0-.73-.384c-.691,0-1.306.845-1.306,1.844,0,.615.307,1.268.96,1.268a1.025,1.025,0,0,0,.73-.307l-.038.269h.768l.576-3.688Zm-.346,2.036c0,.423-.192.96-.615.96-.269,0-.423-.231-.423-.615,0-.615.269-1,.615-1C428.89,215.783,429.044,215.975,429.044,216.436Z" transform="translate(-407.58 -214.323)" fill="#fff"/>
        <path id="Path_3514" data-name="Path 3514" d="M15.13,218.088l.461-2.766.077,2.766h.538l1-2.766-.423,2.766h.807L18.2,214.4H16.936l-.768,2.267-.038-2.267H15.015l-.615,3.688Z" transform="translate(-14.4 -214.323)" fill="#fff"/>
        <path id="Path_3515" data-name="Path 3515" d="M260.845,231.8c.23-1.268.269-2.305.807-2.113a3.015,3.015,0,0,1,.269-.884h-.154c-.346,0-.615.461-.615.461l.077-.423h-.73l-.5,3h.845Z" transform="translate(-248.321 -228.032)" fill="#fff"/>
        <path id="Path_3516" data-name="Path 3516" d="M347.86,227.2a2.721,2.721,0,0,0-.922.154l-.115.653a2.271,2.271,0,0,1,.845-.154c.269,0,.5.038.5.269,0,.154-.038.192-.038.192h-.346c-.653,0-1.383.269-1.383,1.153,0,.692.461.845.73.845a1.154,1.154,0,0,0,.807-.346l-.038.307h.692l.307-2.113A.9.9,0,0,0,347.86,227.2Zm.192,1.729c0,.115-.077.73-.538.73a.3.3,0,0,1-.307-.307c0-.192.115-.461.692-.461C348.014,228.929,348.014,228.929,348.052,228.929Z" transform="translate(-330.616 -226.508)" fill="#fff"/>
        <path id="Path_3517" data-name="Path 3517" d="M395.245,231.8c.231-1.268.269-2.305.807-2.113a3.016,3.016,0,0,1,.269-.884h-.154c-.346,0-.615.461-.615.461l.077-.423h-.73l-.5,3h.845Z" transform="translate(-376.355 -228.032)" fill="#fff"/>
      </g>
      <g id="Group_299" data-name="Group 299" transform="translate(5775.691 4122.317)">
        <path id="Path_3518" data-name="Path 3518" d="M180,222.843a.577.577,0,0,0,.615.653,1.462,1.462,0,0,0,.576-.115l.115-.653a1.664,1.664,0,0,1-.192.038c-.269,0-.307-.154-.269-.23l.23-1.345h.423l.115-.73h-.384l.077-.461" transform="translate(-172.124 -219.654)" fill="#dce5e5"/>
        <path id="Path_3519" data-name="Path 3519" d="M218.4,230.432c0,1.076.346,1.345.96,1.345a1.994,1.994,0,0,0,.807-.115l.154-.73a2.3,2.3,0,0,1-.807.192c-.845,0-.691-.615-.691-.615H220.4a4.98,4.98,0,0,0,.115-.691A1.041,1.041,0,0,0,219.4,228.7C218.592,228.627,218.4,229.472,218.4,230.432Zm.96-1.114c.423,0,.5.5.5.538h-1C218.861,229.818,218.938,229.318,219.36,229.318Z" transform="translate(-208.7 -227.935)" fill="#dce5e5"/>
        <path id="Path_3520" data-name="Path 3520" d="M305.729,216.526l.154-.845a1.888,1.888,0,0,1-.653.192c-.538,0-.768-.423-.768-.884,0-.922.461-1.421,1-1.421a1.283,1.283,0,0,1,.691.23l.115-.807a2.7,2.7,0,0,0-.884-.192c-.884,0-1.383.768-1.383,2.228,0,.96.077,1.614,1,1.614A3.447,3.447,0,0,0,305.729,216.526Z" transform="translate(-290.23 -212.8)" fill="#dce5e5"/>
        <path id="Path_3521" data-name="Path 3521" d="M86.823,229.568a2.271,2.271,0,0,1,.845-.154c.269,0,.5.038.5.269,0,.154-.038.192-.038.192h-.346c-.653,0-1.383.269-1.383,1.153,0,.692.461.845.73.845a1.154,1.154,0,0,0,.807-.346l-.038.307h.692l.307-2.113c0-.884-.768-.922-1.076-.922m.576,1.652a1.258,1.258,0,0,1-.922.73.3.3,0,0,1-.307-.307c0-.192.115-.461.692-.461A3.138,3.138,0,0,0,88.4,230.452Z" transform="translate(-82.977 -228.032)" fill="#dce5e5"/>
        <path id="Path_3522" data-name="Path 3522" d="M136,229.473a3.251,3.251,0,0,0,.884.077.985.985,0,0,0,1.153-1c0-.96-.922-.768-.922-1.153,0-.192.154-.269.423-.269.115,0,.538.038.538.038l.115-.692a2.919,2.919,0,0,0-.73-.077c-.576,0-.768.23-.768,1,0,.884.576.807.576,1.153,0,.23-.269.269-.461.269" transform="translate(-130.218 -225.747)" fill="#dce5e5"/>
        <path id="Path_3523" data-name="Path 3523" d="M436.8,216.2a1.065,1.065,0,0,0-.73-.384c-.692,0-.922.845-.922,1.844,0,.615-.077,1.268.576,1.268a1.026,1.026,0,0,0,.73-.307l-.038.269h.768l.576-3.688m-1,2c0,.423-.346.96-.768.96-.269,0-.423-.23-.423-.615,0-.615.269-1,.615-1A.587.587,0,0,1,436.758,217.2Z" transform="translate(-415.14 -215.085)" fill="#dce5e5"/>
        <path id="Path_3524" data-name="Path 3524" d="M15.13,218.088l.461-2.766.077,2.766h.538l1-2.766-.423,2.766h.807L18.2,214.4h-.96l-1.076,2.267-.038-2.267h-.423L14.4,218.088Z" transform="translate(-14.4 -214.323)" fill="#dce5e5"/>
        <path id="Path_3525" data-name="Path 3525" d="M260.8,231.8h.807c.23-1.268.269-2.305.807-2.113a3.016,3.016,0,0,1,.269-.884h-.154c-.346,0-.615.461-.615.461l.077-.423" transform="translate(-249.082 -228.032)" fill="#dce5e5"/>
        <path id="Path_3526" data-name="Path 3526" d="M346.823,229.568a2.271,2.271,0,0,1,.845-.154c.269,0,.5.038.5.269,0,.154-.038.192-.038.192h-.346c-.653,0-1.383.269-1.383,1.153,0,.692.461.845.73.845a1.154,1.154,0,0,0,.807-.346l-.038.307h.692l.307-2.113c0-.884-.768-.922-1.076-.922m.576,1.652a1.258,1.258,0,0,1-.922.73.3.3,0,0,1-.307-.307c0-.192.115-.461.691-.461A3.379,3.379,0,0,0,348.4,230.452Z" transform="translate(-330.616 -228.032)" fill="#dce5e5"/>
        <path id="Path_3527" data-name="Path 3527" d="M395.2,231.8h.807c.231-1.268.269-2.305.807-2.113a3.016,3.016,0,0,1,.269-.884h-.154c-.346,0-.615.461-.615.461l.077-.423" transform="translate(-377.117 -228.032)" fill="#dce5e5"/>
      </g>
    </g>
  </g>
</svg>
