<svg xmlns="http://www.w3.org/2000/svg" xmlns:xlink="http://www.w3.org/1999/xlink" width="129.254" height="50.508" viewBox="0 0 129.254 50.508">
  <defs>
    <clipPath id="clip-path">
      <rect id="Rectangle_3762" data-name="Rectangle 3762" width="12.676" height="19.501" fill="#818181"/>
    </clipPath>
    <linearGradient id="linear-gradient" x1="-0.085" y1="1.131" x2="0.738" y2="0.357" gradientUnits="objectBoundingBox">
      <stop offset="0.188" stop-color="#25e2ea"/>
      <stop offset="1" stop-color="#19a6d1"/>
    </linearGradient>
    <linearGradient id="linear-gradient-2" x1="-0.141" y1="1.181" x2="0.906" y2="0.166" gradientUnits="objectBoundingBox">
      <stop offset="0.396" stop-color="#e55ec4"/>
      <stop offset="1" stop-color="#8225d0"/>
    </linearGradient>
    <linearGradient id="linear-gradient-3" x1="-0.03" y1="1.123" x2="2.421" y2="-1.776" gradientUnits="objectBoundingBox">
      <stop offset="0.102" stop-color="#fff" stop-opacity="0.702"/>
      <stop offset="0.481" stop-color="#fff" stop-opacity="0"/>
    </linearGradient>
    <linearGradient id="linear-gradient-4" x1="0.971" y1="0.06" x2="0.224" y2="0.663" gradientUnits="objectBoundingBox">
      <stop offset="0.174" stop-color="#52bfca"/>
      <stop offset="0.916" stop-color="#7238df"/>
    </linearGradient>
  </defs>
  <g id="Group_7559" data-name="Group 7559" transform="translate(0 0)">
    <g id="Group_6814" data-name="Group 6814" transform="translate(0 31.982)">
      <circle id="Ellipse_500" data-name="Ellipse 500" cx="8.775" cy="8.775" r="8.775" fill="#ef6a23"/>
      <path id="Path_22658" data-name="Path 22658" d="M49.12,285.817l-.515.495c-.554.554-1.108,1.069-1.682,1.623.02.059.02.119.04.178l.475,2.869a.389.389,0,0,1-.178.336.405.405,0,0,1-.336.02c-.139-.079-.3-.158-.435-.237l-1.405-.752c-.3-.158-.574-.317-.871-.475-.277.158-.574.317-.851.455l-1.405.752c-.139.079-.3.158-.435.237a.238.238,0,0,1-.158.04.578.578,0,0,1-.178-.04.347.347,0,0,1-.178-.336v-.04l.475-2.85c.02-.059.02-.119.04-.178-.554-.554-1.108-1.069-1.682-1.623l-.515-.495a.348.348,0,0,1-.1-.376.372.372,0,0,1,.3-.237c.218-.04.416-.059.633-.1l2.117-.317a1.363,1.363,0,0,1,.257-.04c.04-.059.059-.119.1-.178.04-.079.079-.139.119-.218l.3-.613c.119-.218.218-.435.317-.653L43.9,282a.361.361,0,0,1,.336-.2.376.376,0,0,1,.317.2l.534,1.069c.119.218.218.435.317.653l.3.613c.04.079.079.138.119.218.04.059.059.119.1.178a1.361,1.361,0,0,0,.257.04l2.117.317c.218.04.416.059.633.1a.372.372,0,0,1,.3.237A.412.412,0,0,1,49.12,285.817Z" transform="translate(-35.307 -277.9)" fill="#fff"/>
    </g>
    <g id="Group_6814-2" data-name="Group 6814" transform="translate(20.476 31.982)">
      <circle id="Ellipse_500-2" data-name="Ellipse 500" cx="8.775" cy="8.775" r="8.775" transform="translate(0)" fill="#ef6a23"/>
      <path id="Path_22658-2" data-name="Path 22658" d="M49.12,285.817l-.515.495c-.554.554-1.108,1.069-1.682,1.623.02.059.02.119.04.178l.475,2.869a.389.389,0,0,1-.178.336.405.405,0,0,1-.336.02c-.139-.079-.3-.158-.435-.237l-1.405-.752c-.3-.158-.574-.317-.871-.475-.277.158-.574.317-.851.455l-1.405.752c-.139.079-.3.158-.435.237a.238.238,0,0,1-.158.04.578.578,0,0,1-.178-.04.347.347,0,0,1-.178-.336v-.04l.475-2.85c.02-.059.02-.119.04-.178-.554-.554-1.108-1.069-1.682-1.623l-.515-.495a.348.348,0,0,1-.1-.376.372.372,0,0,1,.3-.237c.218-.04.416-.059.633-.1l2.117-.317a1.363,1.363,0,0,1,.257-.04c.04-.059.059-.119.1-.178.04-.079.079-.139.119-.218l.3-.613c.119-.218.218-.435.317-.653L43.9,282a.361.361,0,0,1,.336-.2.376.376,0,0,1,.317.2l.534,1.069c.119.218.218.435.317.653l.3.613c.04.079.079.138.119.218.04.059.059.119.1.178a1.361,1.361,0,0,0,.257.04l2.117.317c.218.04.416.059.633.1a.372.372,0,0,1,.3.237A.412.412,0,0,1,49.12,285.817Z" transform="translate(-35.307 -277.9)" fill="#fff"/>
    </g>
    <g id="Group_6814-3" data-name="Group 6814" transform="translate(40.952 31.982)">
      <circle id="Ellipse_500-3" data-name="Ellipse 500" cx="8.775" cy="8.775" r="8.775" transform="translate(0)" fill="#ef6a23"/>
      <path id="Path_22658-3" data-name="Path 22658" d="M49.12,285.817l-.515.495c-.554.554-1.108,1.069-1.682,1.623.02.059.02.119.04.178l.475,2.869a.389.389,0,0,1-.178.336.405.405,0,0,1-.336.02c-.139-.079-.3-.158-.435-.237l-1.405-.752c-.3-.158-.574-.317-.871-.475-.277.158-.574.317-.851.455l-1.405.752c-.139.079-.3.158-.435.237a.238.238,0,0,1-.158.04.578.578,0,0,1-.178-.04.347.347,0,0,1-.178-.336v-.04l.475-2.85c.02-.059.02-.119.04-.178-.554-.554-1.108-1.069-1.682-1.623l-.515-.495a.348.348,0,0,1-.1-.376.372.372,0,0,1,.3-.237c.218-.04.416-.059.633-.1l2.117-.317a1.363,1.363,0,0,1,.257-.04c.04-.059.059-.119.1-.178.04-.079.079-.139.119-.218l.3-.613c.119-.218.218-.435.317-.653L43.9,282a.361.361,0,0,1,.336-.2.376.376,0,0,1,.317.2l.534,1.069c.119.218.218.435.317.653l.3.613c.04.079.079.138.119.218.04.059.059.119.1.178a1.361,1.361,0,0,0,.257.04l2.117.317c.218.04.416.059.633.1a.372.372,0,0,1,.3.237A.412.412,0,0,1,49.12,285.817Z" transform="translate(-35.307 -277.9)" fill="#fff"/>
    </g>
    <g id="Group_6815" data-name="Group 6815" transform="translate(61.427 31.982)">
      <circle id="Ellipse_500-4" data-name="Ellipse 500" cx="8.775" cy="8.775" r="8.775" transform="translate(0)" fill="#ef6a23"/>
      <path id="Path_22658-4" data-name="Path 22658" d="M49.12,285.817l-.515.495c-.554.554-1.108,1.069-1.682,1.623.02.059.02.119.04.178l.475,2.869a.389.389,0,0,1-.178.336.405.405,0,0,1-.336.02c-.139-.079-.3-.158-.435-.237l-1.405-.752c-.3-.158-.574-.317-.871-.475-.277.158-.574.317-.851.455l-1.405.752c-.139.079-.3.158-.435.237a.238.238,0,0,1-.158.04.578.578,0,0,1-.178-.04.347.347,0,0,1-.178-.336v-.04l.475-2.85c.02-.059.02-.119.04-.178-.554-.554-1.108-1.069-1.682-1.623l-.515-.495a.348.348,0,0,1-.1-.376.372.372,0,0,1,.3-.237c.218-.04.416-.059.633-.1l2.117-.317a1.363,1.363,0,0,1,.257-.04c.04-.059.059-.119.1-.178.04-.079.079-.139.119-.218l.3-.613c.119-.218.218-.435.317-.653L43.9,282a.361.361,0,0,1,.336-.2.376.376,0,0,1,.317.2l.534,1.069c.119.218.218.435.317.653l.3.613c.04.079.079.138.119.218.04.059.059.119.1.178a1.361,1.361,0,0,0,.257.04l2.117.317c.218.04.416.059.633.1a.372.372,0,0,1,.3.237A.412.412,0,0,1,49.12,285.817Z" transform="translate(-35.307 -277.9)" fill="#fff"/>
    </g>
    <circle id="Ellipse_500-5" data-name="Ellipse 500" cx="8.775" cy="8.775" r="8.775" transform="translate(81.903 31.982)" fill="#c8c8c8"/>
    <g id="Mask_Group_535" data-name="Mask Group 535" transform="translate(81.903 31.006)" clip-path="url(#clip-path)">
      <circle id="Ellipse_501" data-name="Ellipse 501" cx="8.775" cy="8.775" r="8.775" transform="translate(0 0.975)" fill="#ef6a23"/>
    </g>
    <path id="Path_22658-5" data-name="Path 22658" d="M49.12,285.817l-.515.495c-.554.554-1.108,1.069-1.682,1.623.02.059.02.119.04.178l.475,2.869a.389.389,0,0,1-.178.336.405.405,0,0,1-.336.02c-.139-.079-.3-.158-.435-.237l-1.405-.752c-.3-.158-.574-.317-.871-.475-.277.158-.574.317-.851.455l-1.405.752c-.139.079-.3.158-.435.237a.238.238,0,0,1-.158.04.578.578,0,0,1-.178-.04.347.347,0,0,1-.178-.336v-.04l.475-2.85c.02-.059.02-.119.04-.178-.554-.554-1.108-1.069-1.682-1.623l-.515-.495a.348.348,0,0,1-.1-.376.372.372,0,0,1,.3-.237c.218-.04.416-.059.633-.1l2.117-.317a1.363,1.363,0,0,1,.257-.04c.04-.059.059-.119.1-.178.04-.079.079-.139.119-.218l.3-.613c.119-.218.218-.435.317-.653L43.9,282a.361.361,0,0,1,.336-.2.376.376,0,0,1,.317.2l.534,1.069c.119.218.218.435.317.653l.3.613c.04.079.079.138.119.218.04.059.059.119.1.178a1.361,1.361,0,0,0,.257.04l2.117.317c.218.04.416.059.633.1a.372.372,0,0,1,.3.237A.412.412,0,0,1,49.12,285.817Z" transform="translate(46.596 -245.918)" fill="#fff"/>
    <text id="_4.8" data-name="4.8" transform="translate(107.254 45.031)" fill="#2c2c2c" font-size="14" font-family="Poppins-Medium, Poppins" font-weight="500" letter-spacing="0.002em"><tspan x="0" y="0">4.8</tspan></text>
    <g id="Group_5868" data-name="Group 5868" transform="translate(0 0)">
      <path id="Path_4494" data-name="Path 4494" d="M9.451,35.425a.92.92,0,0,1-.675-.27.95.95,0,0,1-.305-.721,1.085,1.085,0,0,1,.262-.722l3.658-3.966a.973.973,0,0,1,.719-.315.92.92,0,0,1,.675.27.987.987,0,0,1,.305.721,1.086,1.086,0,0,1-.262.722l-3.659,3.966a.97.97,0,0,1-.719.315Z" transform="translate(-2.414 -7.7)" fill="url(#linear-gradient)"/>
      <path id="Path_4495" data-name="Path 4495" d="M1.519,27.755a1.032,1.032,0,0,1-.7-.292.971.971,0,0,1-.283-.722,1.1,1.1,0,0,1,.283-.721l3.441-3.584a.905.905,0,0,1,.7-.292,1.03,1.03,0,0,1,.7.292.968.968,0,0,1,.283.722,1.106,1.106,0,0,1-.283.721L2.215,27.463a.989.989,0,0,1-.7.292Z" transform="translate(-0.539 -5.978)" fill="url(#linear-gradient-2)"/>
      <path id="Path_4496" data-name="Path 4496" d="M1.967,34.331a1.036,1.036,0,0,1-.7-.294.971.971,0,0,1-.285-.723,1.007,1.007,0,0,1,.285-.723l6.917-7.255a.943.943,0,0,1,.7-.293,1.037,1.037,0,0,1,.7.293,1.054,1.054,0,0,1,.022,1.446L2.689,34.037a1.026,1.026,0,0,1-.722.294Z" transform="translate(-0.644 -6.663)" fill="#a750f7"/>
      <path id="Path_4497" data-name="Path 4497" d="M7.682,15.2c2.232-2.011,9.127-7.684,16.656-8.475a.325.325,0,0,1,.351.384,31.334,31.334,0,0,1-8.23,16.43.606.606,0,0,1-1.007-.2l-1.489-3.525-1.859.5a.5.5,0,0,1-.591-.632l.5-1.785L7.857,16.261A.641.641,0,0,1,7.681,15.2Z" transform="translate(-2.178 -2.333)" fill="url(#linear-gradient-3)"/>
      <path id="Path_4498" data-name="Path 4498" d="M26.846,20.506l-7.442.136a.764.764,0,0,0-.657.384c-.745,1.242-3.239,5.31-5.188,7.1a.954.954,0,0,1-1.488-.226q-.079-.134-.153-.271a25.766,25.766,0,0,0-1.423-2.78,30.882,30.882,0,0,0-2.189-3.028,21.185,21.185,0,0,0-3.13-2.961A15.176,15.176,0,0,0,1.259,16.71a1.084,1.084,0,0,1-.351-1.785C2.551,13.32,5.352,10.676,7.1,9.772a.813.813,0,0,0,.415-.723L7.387,1.794a.778.778,0,0,1,1.1-.745A19.13,19.13,0,0,1,14.7,5.185a.745.745,0,0,0,.788.226A38.929,38.929,0,0,1,23.87,3.784a.774.774,0,0,1,.809.881,44.61,44.61,0,0,1-1.423,7.865.778.778,0,0,0,.131.745,53.716,53.716,0,0,1,4.093,6.056.768.768,0,0,1-.634,1.176Z" transform="translate(-0.548 -0.974)" fill="url(#linear-gradient-4)"/>
      <path id="Path_4499" data-name="Path 4499" d="M13.06,20.05,12.1,20.3a.5.5,0,0,1-.591-.633l.5-1.785L7.851,16.254a.656.656,0,0,1-.2-1.084C9.885,13.157,16.78,7.485,24.31,6.694a.325.325,0,0,1,.35.384,31.327,31.327,0,0,1-8.23,16.429.606.606,0,0,1-1.007-.2l-1.488-3.526-.875.272Z" transform="translate(-2.172 -2.326)" fill="#fffffc"/>
      <path id="Path_4500" data-name="Path 4500" d="M21.616,15.773a2.306,2.306,0,1,0-2.232-2.3,2.269,2.269,0,0,0,2.232,2.3Z" transform="translate(-4.993 -3.383)" fill="#627cd4"/>
      <path id="Path_4501" data-name="Path 4501" d="M50.205,13.7a3.406,3.406,0,0,0-2.53-.932c-1.239-.025-2.049.388-2.049,1.19.025.828.86,1.138,2.1,1.268,1.771.155,4.1.569,4.072,3.1-.025,1.837-1.594,3.1-4.1,3.1a5.454,5.454,0,0,1-4.4-1.81l1.062-1.449a4.643,4.643,0,0,0,3.391,1.449c.961,0,2.024-.362,2.049-1.268.025-.879-.809-1.216-2.226-1.371-1.822-.181-3.9-.776-3.921-2.948,0-2.173,2.2-3,4-3a5.084,5.084,0,0,1,3.719,1.32L50.205,13.7Zm5.844-5.328a1.253,1.253,0,1,1-2.5,0A1.253,1.253,0,0,1,56.049,8.374ZM53.8,11.245v9.879h2.024v-9.88H53.8Zm7.843-2.793V11.3h2.808v1.785H61.616v4.681c0,1.035.455,1.63,1.391,1.63a2.887,2.887,0,0,0,1.239-.336l.582,1.759a4.267,4.267,0,0,1-1.923.44c-2.1.051-3.288-1.164-3.288-3.466V13.107H57.77V11.322h1.847V8.658l2.024-.206Zm6.35,8.508a2.879,2.879,0,0,0,3.137,2.483,3.966,3.966,0,0,0,2.783-1.061l1.316,1.293a5.7,5.7,0,0,1-4.15,1.682,4.875,4.875,0,0,1-5.186-5.2,4.861,4.861,0,0,1,5.06-5.121c3.112,0,5.212,1.94,4.832,5.949l-7.792-.026Zm5.869-1.733A2.549,2.549,0,0,0,71,12.848a2.87,2.87,0,0,0-2.986,2.379Zm6-3.983V22.288c0,2.483-.886,3.776-3.035,3.776a3.568,3.568,0,0,1-2.024-.621l.733-1.629a2.758,2.758,0,0,0,1.239.31c.962-.026,1.113-.7,1.113-1.837V11.244ZM77.6,8.348a1.253,1.253,0,1,0,2.5,0A1.253,1.253,0,1,0,77.6,8.348ZM90.33,11.27h1.948v9.855H90.355l-.1-1.6a3.754,3.754,0,0,1-3.314,1.863c-2.809.025-4.933-1.837-4.933-5.2a4.771,4.771,0,0,1,4.983-5.121,3.68,3.68,0,0,1,3.289,1.785l.05-1.578Zm-6.3,4.914a3.084,3.084,0,0,0,3.138,3.285c4.149,0,4.149-6.518,0-6.518a3.041,3.041,0,0,0-3.137,3.232Zm13-9.026V12.8a4.014,4.014,0,0,1,3.391-1.759c2.783,0,4.883,1.785,4.883,5.121a4.733,4.733,0,0,1-4.933,5.121,3.724,3.724,0,0,1-3.34-1.759l-.126,1.552h-1.9V7.106l2.024.052Zm.1,9.026a3.052,3.052,0,0,0,3.087,3.207,3.012,3.012,0,0,0,3.035-3.207,2.983,2.983,0,0,0-3.035-3.207A3.114,3.114,0,0,0,97.135,16.184Zm12.32-9.026V12.8a4.012,4.012,0,0,1,3.39-1.759c2.783,0,4.883,1.785,4.883,5.121a4.733,4.733,0,0,1-4.934,5.121,3.724,3.724,0,0,1-3.339-1.759l-.127,1.552h-1.9V7.106Zm.1,9.026a3.052,3.052,0,0,0,3.086,3.207,3.013,3.013,0,0,0,3.036-3.207,2.983,2.983,0,0,0-3.036-3.207A3.114,3.114,0,0,0,109.557,16.184Zm11.814.776a2.88,2.88,0,0,0,3.137,2.483,3.966,3.966,0,0,0,2.783-1.061l1.315,1.293a5.7,5.7,0,0,1-4.149,1.682,4.874,4.874,0,0,1-5.186-5.2,4.861,4.861,0,0,1,5.06-5.121c3.112,0,5.211,1.94,4.831,5.949l-7.792-.026Zm5.869-1.733a2.548,2.548,0,0,0-2.858-2.379,2.868,2.868,0,0,0-2.985,2.379Zm5.87-3.957.126,1.294a2.941,2.941,0,0,1,2.834-1.527,3.635,3.635,0,0,1,2.378.828l-.911,1.785a2.634,2.634,0,0,0-4.3,2.095v5.328h-2.024V11.218Z" transform="translate(-10.646 -2.419)" fill="#3155c4"/>
    </g>
  </g>
</svg>
