<svg id="Group_7560" data-name="Group 7560" xmlns="http://www.w3.org/2000/svg" width="133.426" height="51" viewBox="0 0 133.426 51">
  <text id="_4.5" data-name="4.5" transform="translate(111.426 44.197)" font-size="14" font-family="Poppins-Medium, Poppins" font-weight="500" letter-spacing="0.002em"><tspan x="0" y="0">4.5</tspan></text>
  <g id="trustpilot-seeklogo.com">
    <path id="Path_4502" data-name="Path 4502" d="M178.117,300.7h10.531v1.96H184.5v11.052h-2.273V302.66H178.1Zm10.08,3.591h1.943v1.822h.035a2.287,2.287,0,0,1,.364-.746,2.885,2.885,0,0,1,.642-.659,2.841,2.841,0,0,1,.833-.486,2.423,2.423,0,0,1,.92-.191c.243,0,.416.017.5.017a1.521,1.521,0,0,0,.278.035v2a3.5,3.5,0,0,0-.451-.069,3.946,3.946,0,0,0-.451-.035,2.408,2.408,0,0,0-.989.208,2.506,2.506,0,0,0-.815.607,3.29,3.29,0,0,0-.555,1.006,4.245,4.245,0,0,0-.208,1.388v4.476h-2.082Zm15.06,9.421H201.21v-1.319h-.035a2.907,2.907,0,0,1-1.145,1.145,3.023,3.023,0,0,1-1.544.434,3.435,3.435,0,0,1-2.689-.92,4.022,4.022,0,0,1-.833-2.776v-5.986h2.082v5.778a2.462,2.462,0,0,0,.486,1.752,1.713,1.713,0,0,0,1.336.521,2.56,2.56,0,0,0,1.093-.208,1.886,1.886,0,0,0,.711-.538,2.109,2.109,0,0,0,.4-.815,3.851,3.851,0,0,0,.121-1.024v-5.465h2.082v9.421Zm3.539-3.019a1.638,1.638,0,0,0,.694,1.284,2.732,2.732,0,0,0,1.44.364,4.782,4.782,0,0,0,.659-.052,2.906,2.906,0,0,0,.694-.174,1.221,1.221,0,0,0,.538-.382.888.888,0,0,0,.191-.642.933.933,0,0,0-.295-.659,2.46,2.46,0,0,0-.694-.416,6.014,6.014,0,0,0-.972-.26c-.364-.069-.729-.156-1.11-.243s-.763-.191-1.128-.312a3.233,3.233,0,0,1-.972-.5,2.164,2.164,0,0,1-.677-.8,2.494,2.494,0,0,1-.26-1.2,2.052,2.052,0,0,1,.382-1.284,2.767,2.767,0,0,1,.954-.833,4.331,4.331,0,0,1,1.284-.451,7.353,7.353,0,0,1,1.336-.122,5.971,5.971,0,0,1,1.388.156,3.509,3.509,0,0,1,1.2.5,2.75,2.75,0,0,1,.885.9,3.125,3.125,0,0,1,.451,1.336h-2.169a1.336,1.336,0,0,0-.677-1.006,2.794,2.794,0,0,0-1.232-.26c-.139,0-.33.017-.52.035a3.066,3.066,0,0,0-.573.139,1.356,1.356,0,0,0-.451.295.694.694,0,0,0-.191.5.763.763,0,0,0,.26.607,2.359,2.359,0,0,0,.694.4,6.019,6.019,0,0,0,.972.26c.364.069.746.156,1.128.243s.746.191,1.11.312a3.038,3.038,0,0,1,.972.5,2.5,2.5,0,0,1,.694.781,2.4,2.4,0,0,1,.26,1.162,2.529,2.529,0,0,1-.382,1.423,3.244,3.244,0,0,1-.989.954,4.9,4.9,0,0,1-1.353.538,7.271,7.271,0,0,1-1.475.173,6.212,6.212,0,0,1-1.648-.208,4.2,4.2,0,0,1-1.319-.607,2.913,2.913,0,0,1-.867-1.024,3.342,3.342,0,0,1-.347-1.457h2.1v.017Zm6.853-6.4h1.579v-2.845h2.082v2.828h1.874v1.544h-1.874v5.031a5.335,5.335,0,0,0,.035.573,1.2,1.2,0,0,0,.121.4.678.678,0,0,0,.295.243,1.546,1.546,0,0,0,.555.087,3.611,3.611,0,0,0,.434-.017,3.743,3.743,0,0,0,.434-.069v1.614c-.226.035-.451.052-.677.069a4.322,4.322,0,0,1-.677.035,4.483,4.483,0,0,1-1.319-.156,1.9,1.9,0,0,1-.781-.451,1.613,1.613,0,0,1-.382-.746,5.918,5.918,0,0,1-.121-1.041v-5.552H213.65v-1.544Zm6.992,0H222.6v1.284h.035a2.577,2.577,0,0,1,1.215-1.18,3.932,3.932,0,0,1,1.7-.364,4.275,4.275,0,0,1,1.943.4,3.648,3.648,0,0,1,1.371,1.076,4.488,4.488,0,0,1,.815,1.6,7.009,7.009,0,0,1,.035,3.782,5.1,5.1,0,0,1-.746,1.579,3.691,3.691,0,0,1-1.267,1.093,3.745,3.745,0,0,1-1.8.416,5.3,5.3,0,0,1-.9-.087,3.837,3.837,0,0,1-.868-.26,3.115,3.115,0,0,1-.763-.468,2.645,2.645,0,0,1-.59-.659h-.035v4.7h-2.082V304.291Zm7.27,4.719a4.229,4.229,0,0,0-.173-1.232,3.144,3.144,0,0,0-.5-1.058,2.776,2.776,0,0,0-.816-.746,2.219,2.219,0,0,0-1.128-.278,2.3,2.3,0,0,0-1.978.9,4.109,4.109,0,0,0-.659,2.429,4.493,4.493,0,0,0,.174,1.319,2.934,2.934,0,0,0,.521,1.041,2.478,2.478,0,0,0,.833.694,2.352,2.352,0,0,0,1.128.26,2.307,2.307,0,0,0,1.2-.295,2.8,2.8,0,0,0,.815-.746,3.053,3.053,0,0,0,.451-1.058A5.958,5.958,0,0,0,227.911,309.011Zm3.661-8.311h2.082v1.96h-2.082Zm0,3.591h2.082v9.421h-2.082Zm3.938-3.591h2.082v13.012h-2.082Zm8.432,13.273a4.958,4.958,0,0,1-2.013-.382,4.568,4.568,0,0,1-1.492-1.024,4.457,4.457,0,0,1-.92-1.579,6.169,6.169,0,0,1-.33-2,5.636,5.636,0,0,1,.33-1.978,4.613,4.613,0,0,1,.92-1.579,4.16,4.16,0,0,1,1.492-1.024,5.266,5.266,0,0,1,2.013-.382,4.956,4.956,0,0,1,2.013.382,4.317,4.317,0,0,1,1.492,1.024,4.456,4.456,0,0,1,.92,1.579,6.062,6.062,0,0,1,.33,1.978,5.664,5.664,0,0,1-.33,2,4.912,4.912,0,0,1-.92,1.579,4.162,4.162,0,0,1-1.492,1.024A5.2,5.2,0,0,1,243.943,313.973Zm0-1.648a2.4,2.4,0,0,0,1.2-.295,2.511,2.511,0,0,0,.833-.763,3.27,3.27,0,0,0,.486-1.058,4.733,4.733,0,0,0,0-2.412,3.11,3.11,0,0,0-.486-1.058,2.637,2.637,0,0,0-.833-.746,2.447,2.447,0,0,0-1.2-.295,2.4,2.4,0,0,0-1.2.295,2.658,2.658,0,0,0-.833.746,3.109,3.109,0,0,0-.486,1.058,4.732,4.732,0,0,0,0,2.412,3.109,3.109,0,0,0,.486,1.058,2.691,2.691,0,0,0,.833.763A2.272,2.272,0,0,0,243.943,312.324Zm5.378-8.033H250.9v-2.845h2.082v2.828h1.874v1.544h-1.874v5.031a5.335,5.335,0,0,0,.035.573,1.2,1.2,0,0,0,.121.4.678.678,0,0,0,.295.243,1.547,1.547,0,0,0,.555.087,3.611,3.611,0,0,0,.434-.017,3.742,3.742,0,0,0,.434-.069v1.614c-.226.035-.451.052-.677.069a4.322,4.322,0,0,1-.677.035,4.483,4.483,0,0,1-1.319-.156,1.9,1.9,0,0,1-.781-.451,1.612,1.612,0,0,1-.382-.746,5.923,5.923,0,0,1-.121-1.041v-5.552h-1.579v-1.544Z" transform="translate(-150.757 -291.643)"/>
    <path id="Path_4503" data-name="Path 4503" d="M45.432,257.557H35.907L32.975,248.5l-2.949,9.057-9.525-.017,7.7,5.6L25.254,272.2l7.7-5.6,7.7,5.6-2.932-9.057Z" transform="translate(-20.5 -248.5)" fill="#00b67a"/>
    <path id="Path_4504" data-name="Path 4504" d="M97.813,334.947l-.659-2.047L92.4,336.353Z" transform="translate(-79.925 -318.257)" fill="#005128"/>
  </g>
  <rect id="Rectangle" width="19.595" height="19.595" transform="translate(0 31.405)" fill="#00b67a"/>
  <rect id="Rectangle_00000119823381696065812290000006309620969489227403_" width="19.595" height="19.595" transform="translate(21.023 31.405)" fill="#00b67a"/>
  <rect id="Rectangle_00000111193577153650357570000000971353195221845171_" width="19.595" height="19.595" transform="translate(42.252 31.405)" fill="#00b67a"/>
  <rect id="Rectangle_00000008833768892528033700000000322006702697863864_" width="19.595" height="19.595" transform="translate(63.276 31.405)" fill="#00b67a"/>
  <rect id="Rectangle_00000134962926880305233990000003318531366453452990_" width="19.595" height="19.595" transform="translate(84.504 31.405)" fill="#dcdce6"/>
  <path id="Rectangle_00000044876543712720924350000008132246518786235026_" d="M48,27.6h9.8V46.991H48Z" transform="translate(36.504 3.805)" fill="#00b67a"/>
  <path id="Shape_00000004503963772281965500000004689748023012954798_" d="M14.736,39l3.062-.816,1.225,3.878Zm6.94-4.9H16.369l-1.633-4.9L13.1,34.1H8l4.286,3.062-1.633,4.9L14.94,39l2.654-1.837L21.676,34.1Z" transform="translate(-5.143 5.471)" fill="#fff"/>
  <path id="Shape_00000062892359206520126170000006215398374882685355_" d="M25.344,39l3.062-.816,1.225,3.878Zm6.736-4.9H26.773L25.14,29.2l-1.633,4.9H18.2l4.286,3.062-1.633,4.9L25.14,39l2.654-1.837L32.08,34.1Z" transform="translate(5.477 5.471)" fill="#fff"/>
  <path id="Shape_00000041986034659674372480000017210300048664811149_" d="M35.744,39l3.062-.816,1.225,3.878Zm6.736-4.9H37.173L35.54,29.2l-1.633,4.9H28.6l4.286,3.062-1.429,4.9L35.744,39,38.4,37.161,42.48,34.1Z" transform="translate(16.305 5.471)" fill="#fff"/>
  <path id="Shape_00000155124147350657945740000004241176506388462744_" d="M45.94,39,49,38.181l1.225,3.878Zm6.94-4.9H47.573L45.94,29.2l-1.633,4.9H39l4.286,3.062-1.633,4.9L45.94,39l2.654-1.837L52.88,34.1Z" transform="translate(27.133 5.471)" fill="#fff"/>
  <path id="Shape_00000131362776327819300620000011855054010791946398_" d="M56.34,39l3.062-.816,1.225,3.878Zm6.736-4.9H57.769l-1.633-4.9-1.429,4.9H49.4l4.286,3.062-1.633,4.9L56.34,39l2.654-1.837L63.076,34.1Z" transform="translate(37.962 5.471)" fill="#fff"/>
</svg>
